<svg viewBox="0 0 240 52" fill="none" xmlns="http://www.w3.org/2000/svg">
 <path fill-rule="evenodd" clip-rule="evenodd" d="M96.7731 17.5557C96.7731 12.4506 96.8043 11.8317 96.8655 10.8419C96.9276 9.75933 97.1443 9.17095 97.9798 9.01642C98.4131 8.92398 98.7221 8.92405 99.0309 8.89286C99.4641 8.89286 99.7739 8.83076 99.7739 8.55289C99.7739 8.36718 99.5886 8.27414 99.0309 8.27414C97.9177 8.27414 94.0812 8.36717 93.8033 8.36717C92.5966 8.36717 90.9877 8.27414 89.2238 8.27414C88.6048 8.27414 88.2959 8.33628 88.2959 8.58325C88.2959 8.83077 88.6048 8.89286 88.9457 8.89286C89.4092 8.92405 89.8737 8.95493 90.1524 9.04737C90.9256 9.26399 91.1422 9.78967 91.2038 10.6562C91.2659 11.6463 91.2969 12.2028 91.2969 17.2458V22.6911C91.2969 24.6095 91.2659 26.4653 91.2038 27.7029C91.1113 30.1782 91.0801 30.735 89.9667 30.9205C89.6259 30.9826 89.2859 31.0137 88.9148 31.0446C88.4815 31.0446 88.2959 31.1371 88.2959 31.3225C88.2959 31.6015 88.5436 31.6636 88.9769 31.6636C90.6781 31.6636 92.3491 31.5703 93.8033 31.5703C97.0821 31.5703 99.9596 31.756 104.229 31.756C105.466 31.756 105.714 31.7249 105.962 30.9205C106.27 30.0236 106.611 27.084 106.611 26.3729C106.611 25.9396 106.58 25.7851 106.364 25.7851C106.116 25.7851 106.055 26.0329 105.962 26.3729C105.621 27.8271 105.095 28.6315 104.353 28.9717C103.486 29.4359 102.496 29.4662 100.795 29.4662C98.2264 29.4662 97.6387 29.3117 97.2063 28.7239C96.68 28.0741 96.7731 25.8463 96.7731 22.722V17.5557ZM113.603 26.0329C113.603 26.5274 113.572 27.9195 113.48 29.2193C113.417 30.1161 113.232 30.6726 112.428 30.8893C112.149 30.9825 111.84 30.9825 111.345 31.0446C110.973 31.0446 110.788 31.1683 110.788 31.3225C110.788 31.5394 110.973 31.6636 111.407 31.6636C112.799 31.6636 115.305 31.5703 116.202 31.5703C117.223 31.5703 119.791 31.6636 122.018 31.6636C122.482 31.6636 122.637 31.5395 122.637 31.3849C122.637 31.1683 122.514 31.075 122.142 31.0446C121.616 30.9825 120.997 30.9826 120.44 30.8593C119.296 30.6426 119.234 29.8683 119.172 29.0951C119.079 27.7962 119.079 26.5274 119.079 26.0329V23.8363C119.079 23.4031 119.111 22.1964 119.574 20.8966C120.007 19.5978 124.431 12.0174 125.483 10.7182C126.04 10.0063 126.35 9.48062 127.216 9.14066C127.587 9.01647 128.02 8.92405 128.422 8.89286C128.825 8.89286 129.041 8.79986 129.041 8.55289C129.041 8.33627 128.793 8.27414 128.422 8.27414C127.834 8.27414 125.298 8.36717 124.865 8.36717C123.689 8.36717 122.637 8.27414 121.368 8.27414C120.874 8.27414 120.688 8.36718 120.688 8.55289C120.688 8.76867 120.936 8.86189 121.214 8.92399C122.142 9.07852 122.328 9.35725 122.328 9.69721C122.328 10.0995 122.142 10.6253 121.833 11.2751C121.245 12.5128 119.574 15.6061 117.687 19.1645C117.192 18.2359 113.325 11.3681 112.83 10.4707C112.613 10.0684 112.52 9.78968 112.52 9.57306C112.52 9.32609 112.644 9.01642 113.48 8.92399C113.943 8.83071 114.099 8.76865 114.099 8.52168C114.099 8.33625 113.851 8.27414 113.51 8.27414C111.561 8.27414 109.612 8.36717 109.087 8.36717C107.91 8.36717 105.59 8.27414 104.322 8.27414C103.95 8.27414 103.703 8.33627 103.703 8.55289C103.703 8.73833 103.858 8.86196 104.167 8.89286C104.415 8.92405 104.786 8.98528 104.971 9.04737C105.962 9.35727 106.301 9.7593 107.478 11.5538C108.529 13.1314 111.592 18.2359 112.737 20.34C113.263 21.361 113.603 21.9797 113.603 23.65V26.0329ZM131.206 27.1151C131.114 29.9927 130.959 30.766 129.752 30.9517C129.412 31.0138 129.01 31.0137 128.731 31.0446C128.299 31.0446 128.143 31.1683 128.143 31.3537C128.143 31.6015 128.391 31.6636 128.825 31.6636C130.031 31.6636 132.321 31.5703 133.032 31.5703C134.95 31.6015 135.94 31.6636 137.023 31.6636C137.518 31.6636 137.765 31.6015 137.765 31.3537C137.765 31.1683 137.611 31.075 137.147 31.0446C136.528 30.9825 135.971 30.9826 135.507 30.828C134.641 30.5181 134.517 29.6828 134.455 27.4551L134.146 16.9058C136.404 19.1024 139.498 22.0109 141.23 23.5885C143.087 25.2898 145.809 27.7341 147.913 29.5904C149.924 31.3537 150.883 32.096 151.378 32.096C151.781 32.096 151.997 31.7561 151.997 30.1782C152.121 23.9597 152.121 17.7723 152.368 11.5538C152.461 9.63511 152.771 9.10948 153.792 8.98529C154.008 8.92404 154.163 8.92405 154.565 8.89286C154.936 8.89286 155.09 8.70742 155.09 8.55289C155.09 8.36718 154.874 8.27414 154.411 8.27414C153.111 8.27414 151.564 8.36717 150.883 8.36717C149.645 8.36717 147.634 8.27414 146.397 8.27414C146.057 8.27414 145.779 8.36719 145.779 8.58325C145.779 8.73834 145.933 8.89286 146.335 8.89286C146.769 8.92405 147.263 8.95493 147.696 9.04737C148.934 9.26399 149.089 10.0683 149.151 11.8007L149.336 23.4031C148.501 22.6599 146.367 20.5876 143.21 17.6791C136.126 11.1818 134.517 9.63516 133.218 8.55289C132.413 7.90303 132.259 7.80976 132.011 7.80976C131.64 7.80976 131.516 8.36715 131.485 9.29517C131.3 13.2859 131.361 20.7421 131.206 27.1151ZM160.721 22.6911C160.721 25.3518 160.659 27.5483 160.567 29.0338C160.474 30.2402 160.165 30.828 159.546 30.9205C159.206 30.9826 158.989 31.0137 158.587 31.0446C158.246 31.0446 157.999 31.1371 157.999 31.3537C157.999 31.5083 158.091 31.6636 158.617 31.6636C159.484 31.6636 159.886 31.6324 160.752 31.6015C161.619 31.5703 162.361 31.5703 163.104 31.5703C163.691 31.5703 164.96 31.6636 166.166 31.787C167.187 31.8794 168.239 31.9103 169.476 31.9103C175.695 31.9103 178.541 29.7761 180.058 28.2294C181.821 26.5586 183.461 23.4955 183.461 19.7522C183.461 16.0702 182.069 13.4716 180.491 11.8938C177.676 9.01644 173.529 8.33628 168.24 8.3051C165.64 8.33628 164.248 8.36717 163.228 8.36717C161.866 8.36717 159.019 8.27414 158.246 8.27414C157.72 8.27414 157.535 8.36718 157.535 8.55289C157.535 8.70742 157.658 8.86196 158.123 8.89286C158.71 8.95495 159.019 8.95495 159.267 8.98529C160.442 9.10948 160.598 9.94505 160.659 10.8419C160.721 11.8317 160.721 12.6982 160.721 17.2458V22.6911ZM166.197 16.7513C166.197 14.2449 166.259 12.0174 166.229 10.966C166.229 10.6873 166.259 10.5328 166.506 10.4086C166.785 10.2541 167.497 10.1617 168.177 10.1617C170.219 10.1617 173.158 10.7494 175.293 13.5338C176.592 15.2971 177.613 17.8032 177.613 20.6188C177.613 23.5264 177.211 26.2799 175.603 27.8884C173.963 29.5904 172.137 30.0548 169.972 30.0548C168.611 30.0548 167.342 29.6216 166.785 28.9405C166.444 28.6005 166.321 27.9816 166.259 26.7131C166.229 26.1253 166.197 23.9908 166.197 20.7112V16.7513ZM189.494 22.6911C189.494 24.6095 189.463 26.4349 189.401 27.6717C189.339 29.6216 189.215 30.7971 188.349 30.9205C188.102 30.9826 187.792 31.0137 187.421 31.0446C186.957 31.0446 186.802 31.1992 186.802 31.3537C186.802 31.5703 186.987 31.6636 187.545 31.6636C189.246 31.6636 190.546 31.5703 192 31.5703C195.248 31.5703 197.569 31.756 201.838 31.756C202.983 31.756 203.199 31.7249 203.416 30.9205C203.571 30.3327 203.91 27.9816 203.91 26.7752C203.91 26.404 203.88 26.0941 203.633 26.0941C203.447 26.0941 203.323 26.2798 203.261 26.6507C202.983 28.074 202.612 28.7551 201.745 29.0951C200.879 29.4359 199.672 29.4662 198.868 29.4662C195.433 29.4662 195.001 28.9718 194.97 26.8061C194.939 25.6306 194.97 23.8052 194.97 22.7532V20.6188C194.97 20.371 195.001 20.2164 195.155 20.2164C196.114 20.2164 198.651 20.2779 199.517 20.34C201.034 20.4324 201.466 20.9587 201.591 21.8555C201.622 22.1033 201.652 22.32 201.683 22.5675C201.745 22.8457 201.807 23.0622 202.024 23.0622C202.209 23.0622 202.302 22.8765 202.302 22.4745C202.302 22.1342 202.302 20.6187 202.333 19.9068C202.426 18.7 202.58 17.5866 202.58 17.277C202.58 17.0913 202.581 16.9058 202.395 16.9058C202.241 16.9058 202.147 17.0292 201.962 17.3079C201.622 17.8648 201.219 17.9578 199.703 18.0193C198.59 18.0502 196.083 18.0814 195.217 18.0502C195.001 18.0502 194.97 17.8957 194.97 17.6791V10.8727C194.97 10.6561 195.031 10.5637 195.217 10.5637C196.145 10.5637 198.837 10.6252 199.858 10.7182C201.343 10.8419 201.745 11.2439 201.9 11.9558C202.024 12.3885 202.054 12.6982 202.054 13.0384C202.085 13.3171 202.209 13.4717 202.364 13.4717C202.55 13.4717 202.673 13.286 202.673 13.0384C202.766 11.4296 202.828 10.3471 202.921 9.72842C203.014 8.83075 203.075 8.5217 203.075 8.36717C203.075 8.21208 203.045 8.08843 202.89 8.08843C202.766 8.08843 202.612 8.15054 202.395 8.21207C202.085 8.27416 201.343 8.33622 200.724 8.33622C200.23 8.33622 192.649 8.36717 192 8.36717C190.638 8.36717 189.154 8.27414 187.389 8.27414C186.895 8.27414 186.709 8.36718 186.709 8.55289C186.709 8.73833 186.864 8.86196 187.266 8.89286C187.576 8.92405 188.008 8.92404 188.287 8.98529C189.06 9.17101 189.339 9.69725 189.401 10.5941C189.463 11.5842 189.494 12.2028 189.494 17.2458V22.6911ZM232.683 8.98529C232.59 8.21209 232.404 7.77881 232.095 7.77881C231.786 7.77881 231.538 8.08847 231.043 8.89286L222.566 23.8667L213.718 9.04737C213.068 8.08845 212.851 7.77881 212.511 7.77881C212.202 7.77881 211.986 8.05756 211.862 8.98529L209.046 28.0128C208.737 30.0548 208.427 30.766 207.531 30.9517C207.189 31.0138 206.849 31.0137 206.602 31.0446C206.169 31.0446 205.983 31.1683 205.983 31.3537C205.983 31.6636 206.355 31.6636 206.664 31.6636C207.808 31.6636 209.263 31.5703 210.221 31.5703C211.15 31.5703 212.851 31.6636 214.212 31.6636C214.708 31.6636 214.831 31.5703 214.831 31.3225C214.831 31.1371 214.739 31.0446 214.274 31.0446C213.872 31.0137 213.594 30.9825 213.13 30.8893C212.357 30.735 212.047 30.3639 212.047 29.4662C212.047 29.0026 212.047 28.3218 212.171 26.9917L213.068 18.2668C213.656 19.319 215.017 21.8556 215.543 22.7532C216.719 24.7332 218.606 28.2595 219.688 29.9927C220.555 31.3537 220.741 31.6636 221.081 31.6636C221.328 31.6636 221.514 31.477 222.349 29.8994L228.723 17.9577L229.836 29.0338C229.96 30.426 229.929 30.6114 229.435 30.7971C229.218 30.8592 229.094 30.9826 229.094 31.1059C229.094 31.2613 229.218 31.447 229.806 31.477C233.332 31.6636 235.838 31.6636 238.406 31.6636C238.901 31.6636 239.148 31.6015 239.148 31.3537C239.148 31.1371 238.963 31.0446 238.561 31.0446C238.159 31.0137 237.416 30.9517 236.797 30.766C235.776 30.4569 235.467 29.6828 235.22 27.6717L232.683 8.98529Z" fill="#0001FF" />
 <path fill-rule="evenodd" clip-rule="evenodd" d="M104.007 41.702C104.007 42.525 103.999 42.9965 103.988 43.3572C103.968 44.0501 103.849 44.179 103.654 44.226C103.59 44.2456 103.534 44.2456 103.442 44.254C103.386 44.2624 103.34 44.2821 103.34 44.3096C103.34 44.3656 103.386 44.3838 103.488 44.3838C103.729 44.3922 103.95 44.3558 104.172 44.3558C104.532 44.3558 104.958 44.3754 105.328 44.3838C105.688 44.3922 105.993 44.4119 106.677 44.4119C107.038 44.4119 107.111 44.4119 107.176 44.1714C107.223 43.977 107.297 43.3487 107.297 43.2746C107.297 43.2102 107.297 43.1361 107.241 43.1361C107.195 43.1361 107.176 43.1726 107.158 43.2746C107.084 43.6721 106.982 43.8663 106.687 43.9587C106.437 44.0329 106.131 44.0416 105.854 44.0416C105.493 44.0416 105.244 44.0219 105.087 43.9587C104.856 43.8663 104.801 43.6632 104.782 43.2842C104.774 43.09 104.782 42.0178 104.782 41.7032V40.8901C104.782 40.8527 104.799 40.8258 104.847 40.8258C105.004 40.8258 105.919 40.8454 106.169 40.8718C106.501 40.9083 106.612 41.0376 106.649 41.177C106.677 41.2598 106.687 41.352 106.687 41.4357C106.687 41.5091 106.695 41.5829 106.751 41.5829C106.788 41.5829 106.806 41.5368 106.816 41.4444C106.824 41.3154 106.824 41.1027 106.853 40.8162C106.881 40.511 106.926 40.3543 106.926 40.2984C106.926 40.2427 106.907 40.2242 106.88 40.2242C106.843 40.2242 106.816 40.2618 106.77 40.3166C106.677 40.4273 106.557 40.4554 106.307 40.4737C106.095 40.4934 104.958 40.4933 104.837 40.4933C104.791 40.4933 104.782 40.4652 104.782 40.4009V37.8492C104.782 37.7846 104.799 37.7568 104.837 37.7568C104.939 37.7568 105.947 37.7652 106.104 37.7849C106.51 37.8223 106.705 37.9147 106.77 38.1274C106.798 38.2007 106.816 38.3123 106.816 38.4325C106.816 38.5056 106.832 38.5519 106.89 38.5519C106.926 38.5519 106.954 38.4873 106.964 38.3949C106.98 38.1544 106.992 37.9793 107 37.8408C107.017 37.5818 107.074 37.4711 107.074 37.4059C107.074 37.3596 107.066 37.323 107.038 37.323C107.01 37.323 106.991 37.3314 106.936 37.3595C106.88 37.3876 106.714 37.4059 106.511 37.4154C106.298 37.4239 104.459 37.4238 104.394 37.4238C103.812 37.3957 103.562 37.3958 103.35 37.3958C103.248 37.3958 103.201 37.4154 103.201 37.4696C103.201 37.5064 103.257 37.516 103.322 37.5248C103.405 37.5332 103.525 37.5331 103.59 37.5528C103.895 37.6174 103.968 37.7655 103.988 38.0802C104.007 38.3755 104.007 38.6345 104.007 40.0759V41.702ZM113.923 41.702C113.923 42.5893 113.923 43.3199 113.877 43.7084C113.839 43.9759 113.793 44.179 113.608 44.2164C113.525 44.236 113.451 44.2445 113.349 44.2532C113.275 44.2532 113.257 44.2813 113.257 44.3088C113.257 44.3647 113.303 44.383 113.405 44.383C113.543 44.383 113.756 44.3633 113.941 44.3633C114.135 44.3549 114.292 44.3549 114.311 44.3549C114.357 44.3549 114.671 44.383 115.078 44.4106C115.476 44.4387 115.965 44.4656 116.363 44.4656C117.934 44.4656 118.766 43.8188 119.163 43.403C119.681 42.8574 120.162 41.9608 120.162 40.7963C120.162 39.6966 119.727 38.9287 119.265 38.4485C118.165 37.3112 116.474 37.3949 115.559 37.3949C115.004 37.3949 114.422 37.4231 114.311 37.4231C114.264 37.4231 113.682 37.3949 113.267 37.3949C113.165 37.3949 113.118 37.4146 113.118 37.4688C113.118 37.5057 113.156 37.5239 113.22 37.5239C113.303 37.5239 113.461 37.5324 113.534 37.552C113.839 37.6166 113.885 37.7647 113.904 38.0793C113.924 38.3746 113.924 38.6337 113.924 40.075L113.923 41.702ZM114.699 39.9278C114.699 39.2158 114.699 38.2727 114.708 37.9591C114.708 37.8571 114.736 37.8108 114.819 37.7743C114.892 37.7369 115.235 37.709 115.42 37.709C116.519 37.709 117.573 37.8389 118.442 38.754C118.821 39.1512 119.329 39.9095 119.329 41.0826C119.329 41.933 119.07 42.8203 118.59 43.2917C118.044 43.8373 117.25 44.1521 116.39 44.1521C115.299 44.1521 114.939 43.9576 114.819 43.7817C114.745 43.6806 114.727 43.3108 114.717 43.0793C114.709 42.904 114.697 42.0532 114.697 41.0738L114.699 39.9278ZM127.23 40.075C127.23 38.6337 127.23 38.3746 127.25 38.0793C127.267 37.7551 127.342 37.5885 127.592 37.552C127.702 37.5352 127.758 37.5239 127.823 37.5239C127.86 37.5239 127.896 37.5042 127.896 37.4688C127.896 37.4132 127.85 37.3949 127.748 37.3949C127.471 37.3949 126.917 37.4231 126.833 37.4231C126.75 37.4231 126.186 37.3949 125.771 37.3949C125.669 37.3949 125.623 37.4146 125.623 37.4688C125.623 37.5057 125.659 37.5239 125.697 37.5239C125.78 37.5239 125.937 37.5324 126.011 37.552C126.316 37.6166 126.39 37.7647 126.409 38.0793C126.428 38.3746 126.428 38.6337 126.428 40.075V41.425C126.428 42.7742 126.78 43.4216 127.232 43.8556C127.888 44.4754 128.822 44.5119 129.136 44.5119C129.682 44.5119 130.374 44.4195 131.04 43.8278C131.78 43.1714 131.891 42.0631 131.891 41.0643V40.075C131.891 38.6337 131.891 38.3746 131.911 38.0793C131.927 37.7551 132.003 37.6079 132.253 37.552C132.364 37.5352 132.419 37.5239 132.484 37.5239C132.521 37.5239 132.557 37.5042 132.557 37.4688C132.557 37.4132 132.511 37.3949 132.41 37.3949C132.132 37.3949 131.698 37.4231 131.633 37.4231C131.578 37.4231 131.069 37.3949 130.654 37.3949C130.552 37.3949 130.505 37.4146 130.505 37.4688C130.505 37.5057 130.542 37.5239 130.58 37.5239C130.662 37.5239 130.82 37.5324 130.894 37.552C131.198 37.6166 131.272 37.7647 131.291 38.0793C131.31 38.3746 131.31 38.6337 131.31 40.075V41.2306C131.31 42.1834 131.199 42.9686 130.775 43.4957C130.442 43.8933 129.886 44.1607 129.323 44.1607C128.796 44.1607 128.381 44.0779 127.927 43.6525C127.53 43.2735 127.234 42.7008 127.234 41.3694L127.23 40.075ZM141.028 37.7924C141.416 37.8009 141.805 37.8009 142.193 37.8122C143.08 37.8318 143.302 38.0431 143.33 38.3204C143.33 38.3578 143.338 38.3856 143.338 38.4224C143.347 38.5514 143.366 38.5792 143.412 38.5792C143.45 38.5792 143.478 38.5426 143.478 38.4589C143.478 38.3578 143.506 37.72 143.506 37.4427C143.506 37.3871 143.506 37.3311 143.459 37.3311C143.423 37.3311 143.339 37.3593 143.201 37.3775C143.053 37.4056 142.841 37.4236 142.544 37.4236H139.078C138.968 37.4236 138.616 37.4068 138.348 37.3775C138.099 37.3579 138.006 37.2668 137.942 37.2668C137.905 37.2668 137.868 37.3871 137.849 37.4427C137.832 37.5169 137.646 38.3117 137.646 38.4039C137.646 38.4589 137.665 38.4867 137.692 38.4867C137.729 38.4867 137.756 38.4698 137.784 38.3943C137.812 38.3299 137.84 38.2653 137.942 38.1077C138.089 37.8863 138.311 37.8217 138.884 37.8122C139.337 37.8037 139.799 37.8037 140.252 37.7924V41.702C140.252 42.5893 140.252 43.3199 140.206 43.7084C140.169 43.9759 140.123 44.179 139.938 44.2164C139.855 44.236 139.744 44.2532 139.661 44.2532C139.605 44.2532 139.586 44.2813 139.586 44.3088C139.586 44.3647 139.633 44.383 139.735 44.383C140.012 44.383 140.594 44.3549 140.64 44.3549C140.687 44.3549 141.269 44.383 141.778 44.383C141.879 44.383 141.926 44.3549 141.926 44.3088C141.926 44.2807 141.909 44.2532 141.851 44.2532C141.768 44.2532 141.565 44.2335 141.436 44.2164C141.158 44.179 141.103 43.9759 141.075 43.7084C141.029 43.3199 141.029 42.5893 141.029 41.702L141.028 37.7924ZM151.923 41.656C151.97 41.656 151.988 41.6757 152.006 41.7116L152.866 43.9855C152.921 44.133 152.866 44.2164 152.811 44.235C152.774 44.2434 152.746 44.263 152.746 44.2993C152.746 44.3552 152.848 44.3551 153.023 44.3647C153.661 44.3844 154.336 44.3844 154.474 44.3844C154.576 44.3844 154.659 44.3648 154.659 44.3102C154.659 44.2642 154.613 44.2546 154.558 44.2546C154.484 44.2546 154.336 44.2462 154.197 44.1996C154.003 44.1439 153.735 43.9958 153.402 43.1729C152.838 41.7681 151.387 37.9509 151.249 37.5994C151.138 37.3129 151.101 37.2668 151.045 37.2668C150.99 37.2668 150.952 37.3224 150.842 37.6276L148.744 43.3673C148.578 43.8292 148.393 44.1804 147.967 44.2363C147.894 44.2448 147.81 44.256 147.745 44.256C147.663 44.256 147.616 44.2757 147.616 44.3116C147.616 44.3675 147.671 44.3858 147.791 44.3858C148.226 44.3858 148.735 44.3577 148.837 44.3577C148.938 44.3577 149.308 44.3858 149.529 44.3858C149.613 44.3858 149.696 44.3661 149.696 44.3116C149.696 44.2751 149.668 44.256 149.575 44.256C149.547 44.256 149.52 44.256 149.493 44.256C149.335 44.256 149.16 44.1731 149.16 43.9882C149.16 43.8219 149.206 43.5997 149.289 43.3687L149.844 41.733C149.861 41.6866 149.89 41.6588 149.936 41.6588L151.923 41.656ZM150.037 41.3231C150.009 41.3231 149.991 41.3033 150.009 41.2587L150.822 38.7626C150.869 38.6241 150.915 38.6241 150.961 38.7626L151.839 41.2587C151.848 41.2952 151.848 41.3231 151.802 41.3231H150.037ZM160.462 41.702C160.462 42.5893 160.462 43.3199 160.416 43.7084C160.378 43.9759 160.323 44.1886 160.138 44.226C160.055 44.2456 159.954 44.254 159.898 44.254C159.814 44.254 159.796 44.2821 159.796 44.3096C159.796 44.3656 159.842 44.3838 159.944 44.3838C160.221 44.3838 160.803 44.3558 160.85 44.3558C160.896 44.3558 161.488 44.3838 161.996 44.3838C162.098 44.3838 162.135 44.3557 162.135 44.3096C162.135 44.2816 162.107 44.254 162.024 44.254C161.969 44.254 161.774 44.2344 161.645 44.2172C161.367 44.1798 161.313 43.9768 161.284 43.7093C161.238 43.3207 161.238 42.5902 161.238 41.7029V40.0759C161.238 38.6345 161.238 38.3755 161.255 38.0802C161.275 37.756 161.348 37.5989 161.597 37.5528C161.708 37.5359 161.764 37.5248 161.829 37.5248C161.865 37.5248 161.902 37.505 161.902 37.4696C161.902 37.414 161.856 37.3958 161.754 37.3958C161.477 37.3958 160.894 37.4238 160.848 37.4238C160.802 37.4238 160.22 37.3958 159.915 37.3958C159.813 37.3958 159.767 37.4154 159.767 37.4696C159.767 37.5064 159.804 37.5248 159.841 37.5248C159.906 37.5248 160.025 37.5332 160.127 37.5621C160.331 37.6085 160.423 37.7653 160.442 38.0799C160.462 38.3752 160.462 38.6343 160.462 40.0756V41.702ZM168.706 43.0243C168.706 43.8652 168.66 44.1329 168.429 44.1981C168.291 44.2445 168.124 44.2532 168.05 44.2532C168.004 44.2532 167.976 44.2728 167.976 44.3088C167.976 44.3734 168.032 44.383 168.124 44.383C168.54 44.383 168.928 44.3549 169.013 44.3549C169.096 44.3549 169.465 44.383 169.991 44.383C170.102 44.383 170.157 44.3633 170.157 44.3088C170.157 44.2723 170.129 44.2532 170.083 44.2532C170.001 44.2532 169.798 44.2447 169.623 44.1981C169.373 44.1242 169.281 43.8837 169.262 43.1254L169.142 38.6981C169.438 39.031 170.481 40.1952 171.552 41.3508C172.53 42.4047 173.859 43.7632 173.961 43.8556C174.451 44.3456 174.563 44.4473 174.637 44.4473C174.702 44.4473 174.72 44.4012 174.72 43.7912L174.74 38.3929C174.74 37.7551 174.804 37.6166 175.063 37.5615C175.174 37.5419 175.23 37.5334 175.304 37.5242C175.368 37.5157 175.405 37.496 175.405 37.4595C175.405 37.4039 175.34 37.3952 175.238 37.3952C174.86 37.3952 174.555 37.4233 174.452 37.4233C174.35 37.4233 173.906 37.3952 173.492 37.3952C173.381 37.3952 173.307 37.4036 173.307 37.4595C173.307 37.4963 173.335 37.5242 173.436 37.5242C173.52 37.5242 173.666 37.5326 173.832 37.5703C174.119 37.6445 174.183 37.8475 174.193 38.4488L174.295 43.1445C173.999 42.8394 172.993 41.7116 172.079 40.7314C170.657 39.2063 169.281 37.7186 169.143 37.5615C169.05 37.4691 168.892 37.2654 168.818 37.2654C168.744 37.2654 168.716 37.3671 168.716 37.7273C168.724 39.5207 168.707 38.319 168.707 41.656L168.706 43.0243ZM188.502 37.5155C188.482 37.3393 188.455 37.2654 188.391 37.2654C188.326 37.2654 188.289 37.3297 188.252 37.4135L185.535 43.2179L182.706 37.4039C182.66 37.3028 182.623 37.2654 182.567 37.2654C182.512 37.2654 182.475 37.3488 182.466 37.45L181.801 43.4583C181.754 43.8373 181.736 44.1703 181.431 44.226C181.291 44.2541 181.227 44.254 181.153 44.254C181.107 44.254 181.06 44.2737 181.06 44.3096C181.06 44.3743 181.126 44.3838 181.218 44.3838C181.468 44.3838 181.911 44.3558 181.995 44.3558C182.068 44.3558 182.539 44.3838 182.882 44.3838C182.974 44.3838 183.021 44.3642 183.021 44.3001C183.021 44.272 182.983 44.254 182.928 44.254C182.872 44.254 182.752 44.254 182.595 44.2172C182.457 44.1891 182.346 44.1155 182.346 43.8845C182.346 43.7275 182.355 43.5977 182.363 43.4505L182.742 39.0964C182.843 39.3465 183.906 41.629 183.989 41.7953C184.035 41.8878 184.831 43.487 185.071 43.9402C185.247 44.2731 185.293 44.3656 185.358 44.3656C185.441 44.3656 185.468 44.2819 185.663 43.8748L187.955 39.0135L188.398 43.8382C188.418 44.0048 188.426 44.1434 188.361 44.1712C188.315 44.188 188.297 44.1992 188.297 44.2357C188.297 44.2818 188.343 44.3096 188.556 44.3279C188.898 44.356 189.951 44.3838 190.155 44.3838C190.266 44.3838 190.294 44.3642 190.294 44.3096C190.294 44.2636 190.238 44.254 190.192 44.254C190.099 44.254 189.887 44.2541 189.618 44.1712C189.221 44.0414 189.156 43.5235 189.12 43.1914L188.502 37.5155ZM196.43 41.702C196.43 42.525 196.421 42.9965 196.413 43.3572C196.393 44.0501 196.275 44.179 196.08 44.226C196.016 44.2456 195.96 44.2456 195.867 44.254C195.812 44.2624 195.766 44.2821 195.766 44.3096C195.766 44.3656 195.812 44.3838 195.914 44.3838C196.154 44.3922 196.376 44.3558 196.598 44.3558C196.958 44.3558 197.383 44.3754 197.754 44.3838C198.113 44.3922 198.419 44.4119 199.103 44.4119C199.464 44.4119 199.537 44.4119 199.602 44.1714C199.648 43.977 199.722 43.3487 199.722 43.2746C199.722 43.2102 199.722 43.1361 199.667 43.1361C199.62 43.1361 199.602 43.1726 199.584 43.2746C199.509 43.6721 199.407 43.8663 199.112 43.9587C198.862 44.0329 198.557 44.0416 198.28 44.0416C197.919 44.0416 197.67 44.0219 197.513 43.9587C197.282 43.8663 197.226 43.6632 197.208 43.2842C197.199 43.09 197.208 42.0178 197.208 41.7032V40.8901C197.208 40.8527 197.228 40.8258 197.272 40.8258C197.429 40.8258 198.344 40.8454 198.594 40.8718C198.927 40.9083 199.038 41.0376 199.075 41.177C199.103 41.2598 199.112 41.352 199.112 41.4357C199.112 41.5091 199.121 41.5829 199.177 41.5829C199.213 41.5829 199.232 41.5368 199.241 41.4444C199.25 41.3154 199.25 41.1027 199.279 40.8162C199.307 40.511 199.352 40.3543 199.352 40.2984C199.352 40.2427 199.335 40.2242 199.306 40.2242C199.269 40.2242 199.241 40.2618 199.195 40.3166C199.103 40.4273 198.982 40.4554 198.733 40.4737C198.521 40.4934 197.383 40.4933 197.263 40.4933C197.217 40.4933 197.208 40.4652 197.208 40.4009V37.8492C197.208 37.7846 197.227 37.7568 197.263 37.7568C197.365 37.7568 198.372 37.7652 198.529 37.7849C198.936 37.8223 199.131 37.9147 199.195 38.1274C199.223 38.2007 199.241 38.3123 199.241 38.4325C199.241 38.5056 199.261 38.5519 199.315 38.5519C199.352 38.5519 199.38 38.4873 199.389 38.3949C199.406 38.1544 199.417 37.9793 199.426 37.8408C199.443 37.5818 199.5 37.4711 199.5 37.4059C199.5 37.3596 199.491 37.323 199.463 37.323C199.435 37.323 199.417 37.3314 199.361 37.3595C199.306 37.3876 199.139 37.4059 198.936 37.4154C198.724 37.4239 196.884 37.4238 196.819 37.4238C196.237 37.3957 195.988 37.3958 195.775 37.3958C195.673 37.3958 195.627 37.4154 195.627 37.4696C195.627 37.5064 195.683 37.516 195.747 37.5248C195.83 37.5332 195.95 37.5331 196.016 37.5528C196.321 37.6174 196.394 37.7655 196.413 38.0802C196.43 38.3755 196.43 38.6345 196.43 40.0759V41.702ZM206.246 43.0243C206.246 43.8652 206.2 44.1329 205.969 44.1981C205.83 44.2445 205.664 44.2532 205.59 44.2532C205.544 44.2532 205.516 44.2728 205.516 44.3088C205.516 44.3734 205.571 44.383 205.664 44.383C206.079 44.383 206.467 44.3549 206.553 44.3549C206.635 44.3549 207.005 44.383 207.531 44.383C207.641 44.383 207.697 44.3633 207.697 44.3088C207.697 44.2723 207.669 44.2532 207.623 44.2532C207.54 44.2532 207.338 44.2447 207.163 44.1981C206.913 44.1242 206.82 43.8837 206.802 43.1254L206.682 38.6981C206.978 39.031 208.02 40.1952 209.092 41.3508C210.07 42.4047 211.399 43.7632 211.501 43.8556C211.991 44.3456 212.103 44.4473 212.177 44.4473C212.242 44.4473 212.26 44.4012 212.26 43.7912L212.28 38.3929C212.28 37.7551 212.344 37.6166 212.603 37.5615C212.714 37.5419 212.769 37.5334 212.843 37.5242C212.908 37.5157 212.945 37.496 212.945 37.4595C212.945 37.4039 212.88 37.3952 212.778 37.3952C212.4 37.3952 212.095 37.4233 211.991 37.4233C211.889 37.4233 211.446 37.3952 211.031 37.3952C210.921 37.3952 210.847 37.4036 210.847 37.4595C210.847 37.4963 210.875 37.5242 210.976 37.5242C211.059 37.5242 211.205 37.5326 211.371 37.5703C211.658 37.6445 211.723 37.8475 211.732 38.4488L211.834 43.1445C211.538 42.8394 210.532 41.7116 209.619 40.7314C208.197 39.2063 206.821 37.7186 206.682 37.5615C206.59 37.4691 206.431 37.2654 206.357 37.2654C206.283 37.2654 206.255 37.3671 206.255 37.7273C206.264 39.5207 206.247 38.319 206.247 41.656L206.246 43.0243ZM221.752 37.7924C222.14 37.8009 222.529 37.8009 222.917 37.8122C223.804 37.8318 224.026 38.0431 224.054 38.3204C224.054 38.3578 224.062 38.3856 224.062 38.4224C224.071 38.5514 224.091 38.5792 224.137 38.5792C224.174 38.5792 224.202 38.5426 224.202 38.4589C224.202 38.3578 224.23 37.72 224.23 37.4427C224.23 37.3871 224.23 37.3311 224.183 37.3311C224.147 37.3311 224.063 37.3593 223.925 37.3775C223.777 37.4056 223.565 37.4236 223.268 37.4236H219.803C219.692 37.4236 219.341 37.4068 219.072 37.3775C218.823 37.3579 218.73 37.2668 218.666 37.2668C218.629 37.2668 218.592 37.3871 218.573 37.4427C218.556 37.5169 218.37 38.3117 218.37 38.4039C218.37 38.4589 218.389 38.4867 218.416 38.4867C218.453 38.4867 218.48 38.4698 218.508 38.3943C218.536 38.3299 218.564 38.2653 218.666 38.1077C218.813 37.8863 219.035 37.8217 219.608 37.8122C220.061 37.8037 220.523 37.8037 220.976 37.7924V41.702C220.976 42.5893 220.976 43.3199 220.93 43.7084C220.893 43.9759 220.847 44.179 220.662 44.2164C220.579 44.236 220.468 44.2532 220.385 44.2532C220.33 44.2532 220.311 44.2813 220.311 44.3088C220.311 44.3647 220.357 44.383 220.459 44.383C220.736 44.383 221.318 44.3549 221.364 44.3549C221.411 44.3549 221.993 44.383 222.502 44.383C222.603 44.383 222.65 44.3549 222.65 44.3088C222.65 44.2807 222.633 44.2532 222.576 44.2532C222.492 44.2532 222.289 44.2335 222.16 44.2164C221.882 44.179 221.827 43.9759 221.799 43.7084C221.753 43.3199 221.753 42.5893 221.753 41.702L221.752 37.7924Z" fill="#0001FF" />
 <path fill-rule="evenodd" clip-rule="evenodd" d="M36.5339 37.6546C37.1232 37.1033 37.7463 36.5377 38.3971 36.0296C41.9996 33.2173 43.9839 32.2203 47.9736 30.4713C49.1367 29.9615 52.7937 29.0494 53.5269 28.4412L51.5757 25.1528C48.1745 27.1338 45.1993 29.299 42.3566 31.8419L39.0938 34.943C38.3957 35.6304 37.4304 36.6731 36.5339 37.6546Z" fill="#0001FF" />
 <path fill-rule="evenodd" clip-rule="evenodd" d="M22.0098 31.747C24.9545 33.2139 28.4217 35.4759 32.0481 39.152L32.6893 39.6875C32.6705 33.628 32.6408 27.5241 32.6986 21.4649C32.7173 19.5884 32.307 19.3978 31.4538 18.2441C30.4058 16.8273 28.789 15.7187 26.993 14.9189C26.3237 15.2802 25.6877 15.5318 24.9569 15.8827C24.6175 16.6304 24.8015 17.6315 24.7234 18.5213C24.9125 20.1608 25.1665 21.2123 26.1465 22.5246C27.8965 24.6273 29.7517 23.9833 30.3356 24.0745C28.9095 25.1256 27.124 24.9942 25.7928 24.497L24.5415 23.9262C24.2927 23.7639 24.0386 23.6136 23.761 23.4054C23.5603 23.2549 23.2064 22.8829 23.0108 22.8247C22.6557 23.5207 22.53 23.9667 22.3497 24.8308C22.1059 25.9989 22.0074 28.1663 22.0135 29.4002L22.033 31.4829C22.0345 31.5392 22.0386 31.565 22.0326 31.6212C22.0122 31.8415 22.077 31.3909 22.0176 31.7135L22.0098 31.747Z" fill="#FF6300" />
 <path fill-rule="evenodd" clip-rule="evenodd" d="M57.7938 30.7358C50.1168 32.0945 44.4838 33.4757 38.7264 38.5425C37.9619 39.2151 34.9076 42.2527 34.51 43.6108C35.0098 43.4263 38.8295 40.8777 40.826 39.8702L44.9123 37.9545C49.1399 36.2233 53.4728 35.3911 58.5149 35.3687C58.8178 35.7895 59.8766 37.3909 60.0329 37.9424C57.3528 38.1625 52.3041 37.8755 50.1359 39.0062C52.0899 39.2007 54.9637 39.0156 57.1178 39.1015C59.0837 39.1807 61.6075 39.6483 63.4307 39.5571C62.8644 38.2254 61.4556 37.0095 60.8841 35.5304L66.976 36.0097C66.7368 34.8891 56.0318 18.7567 54.8861 16.924C54.0119 15.5254 53.8618 14.9976 52.4595 14.1625C50.3009 12.8772 48.6555 13.0193 46.3842 13.1548C47.6394 15.4166 52.983 23.4025 54.973 26.3833C55.8234 27.6574 57.1993 29.5121 57.7938 30.7358Z" fill="#0001FF" />
 <path fill-rule="evenodd" clip-rule="evenodd" d="M0 35.9664C1.76813 36.1602 4.42846 35.2627 6.41898 35.493C6.11103 35.7968 3.8093 39.0988 3.58878 39.5503C5.11766 39.6613 8.09811 39.1774 9.8887 39.0864C12.2461 38.9666 14.502 39.1225 16.7969 39.0602C16.6262 38.9275 16.6401 38.9072 16.3119 38.7674C14.7074 38.0843 8.49597 37.9759 6.92927 37.9793L8.5137 35.4073C15.4559 35.0443 22.0305 37.5002 27.77 40.6561C29.6053 41.6657 31.3304 42.9278 32.8617 43.8599C30.4893 40.171 29.3041 39.2477 26.2074 36.834C22.1909 33.7026 14.8348 31.251 9.27958 30.7865C10.2987 27.8091 16.0333 22.0721 11.3621 20.0784C9.3006 21.0219 5.22764 30.5308 0 35.9664V35.9664Z" fill="#0001FF" />
 <path fill-rule="evenodd" clip-rule="evenodd" d="M12.2001 26.9072C12.9631 26.8638 13.0915 26.9594 13.9733 26.6601C13.9826 27.153 13.5623 28.0361 13.2604 28.456C12.8369 29.0447 12.3321 29.4034 11.6 29.8023L11.9352 29.7967C13.3123 29.5475 14.6004 28.8498 15.2315 27.5824C15.4376 27.1682 15.5175 26.6558 15.6317 26.3611C16.1441 26.17 16.7892 25.8969 17.3049 25.8796C18.3273 26.8842 20.7963 30.5749 21.4897 31.9435C21.1205 30.1016 19.9569 26.8576 18.9095 25.3559L19.5282 25.1499C19.1237 23.9795 18.5019 23.0027 17.7897 22.0781C17.1175 21.2057 16.3169 20.6194 15.6699 19.7834C15.1483 19.2809 14.4415 18.1463 14.1174 17.4022C13.9035 16.8761 14.1212 16.5914 14.2978 15.6604C14.5057 14.5685 14.5428 13.0911 14.3268 11.9743C14.2246 11.4458 14.0707 10.8943 13.855 10.3954C13.8224 10.3199 13.784 10.2295 13.7466 10.1576L13.5869 9.92456L13.6837 11.8241C13.4752 12.5209 13.643 15.005 12.0065 16.7399C11.2682 17.5227 10.8036 17.6564 9.8734 18.5713C9.40969 19.0275 8.55099 20.2806 8.45589 20.7739C8.12174 21.1582 7.80873 22.2753 7.67619 22.7657C7.57341 23.1454 7.2256 24.5399 7.26622 24.9128C7.30722 24.7975 7.37121 24.7297 7.43636 24.5869C7.661 24.0938 7.94665 23.648 8.22783 23.1714C8.31469 23.0245 8.32953 22.9645 8.42481 22.8193C8.58618 22.5733 8.71942 22.3586 8.88322 22.0986C9.23928 21.5334 10.3593 19.8809 11.2487 19.6202C14.9842 21.1019 13.5021 24.3247 12.2001 26.9068V26.9072Z" fill="#E100FE" />
 <path fill-rule="evenodd" clip-rule="evenodd" d="M7.44702 11.2983L7.11658 11.4101C6.90205 11.639 5.96019 12.3845 6.21347 13.1647C6.43213 13.2252 6.5695 13.1271 6.99295 13.161C8.48215 13.2767 8.00705 13.8937 7.88143 14.4312C7.54054 15.8891 5.92779 14.8164 5.34316 15.2461C5.13331 15.5813 6.27062 17.3126 7.2321 17.2053C7.26879 17.0642 7.18093 16.4743 7.21313 16.2208C7.25637 15.8792 7.29699 15.5862 7.51283 15.3763C8.18658 14.7213 8.93219 15.7505 9.13006 15.9518C9.59751 16.4269 10.0489 16.707 10.705 16.7869C11.6161 16.8979 12.0319 16.4558 12.08 15.7377C12.1779 14.2773 10.9887 11.7251 8.92062 12.7325C8.57336 12.9017 8.50097 13.2022 8.11384 13.0876C7.39985 12.8764 8.01087 11.6701 7.44702 11.2993V11.2983Z" fill="#DF00FF" />
 <path fill-rule="evenodd" clip-rule="evenodd" d="M22.667 8.18589C20.885 9.17057 21.6015 12.6791 22.4664 12.9742C23.4647 13.3151 26.144 11.9945 25.5591 9.45885C25.251 8.12278 23.9098 7.49904 22.667 8.18589Z" fill="#0001FF" />
 <path fill-rule="evenodd" clip-rule="evenodd" d="M28.1793 12.4137C25.5978 13.5423 24.741 13.6346 22.3248 13.4465C19.8075 13.2503 17.8204 12.0638 17.5564 12.0239L16.6554 11.5018C16.3706 11.3479 16.0516 11.1177 15.7619 10.9366L14.464 10.0068C14.417 9.96878 14.3211 9.88662 14.2713 9.8503C14.2461 9.83158 14.1916 9.79528 14.1641 9.77918C14.0935 9.73781 14.106 9.74715 14.0371 9.71851C14.4008 10.3161 15.039 11.0068 15.5018 11.5503C16.0267 12.1667 16.5179 12.6329 17.0554 13.1531C17.558 13.6396 18.2165 14.1397 18.7429 14.4852C19.4777 14.9675 20.1933 15.2352 20.5827 15.4894C20.4638 15.7429 20.3512 16.2871 20.2905 16.5918C20.2098 16.9402 20.1424 17.2431 20.0742 17.6183C20.008 17.9817 19.975 18.2602 19.9121 18.6219C19.6485 20.5973 19.6285 22.6828 19.9338 24.8574C20.2234 26.917 20.968 29.9575 21.9937 31.8064L22.0186 31.7141C22.0774 31.3915 22.013 31.8421 22.0336 31.6218C22.0392 31.5656 22.0354 31.5398 22.0339 31.4835L22.0145 29.4008C22.0089 28.1669 22.1069 25.9995 22.3506 24.8314C22.5309 23.9673 22.6565 23.5213 23.0116 22.8253C23.2072 22.8835 23.5613 23.2555 23.762 23.406C24.0396 23.6142 24.2937 23.7645 24.5425 23.9268L25.7937 24.4976C27.1249 24.9948 28.9105 25.1262 30.3366 24.0751C29.7527 23.9839 27.8974 24.6279 26.1475 22.5252C25.1675 21.2129 24.9134 20.1614 24.7244 18.5219C24.8024 17.6321 24.6184 16.631 24.9578 15.8833C25.8315 15.4637 26.57 15.1862 27.3913 14.6932C29.1853 13.6165 31.0683 11.9876 32.1796 10.2032C32.2211 10.1366 32.2054 10.1584 32.2453 10.0955C32.3196 9.97832 32.2359 10.0936 32.3198 9.98393L32.316 9.97273C31.743 10.2848 30.971 10.8655 30.3598 11.236C29.7032 11.634 28.8966 12.0967 28.1798 12.4135L28.1793 12.4137Z" fill="#0001FF" />
 <path fill-rule="evenodd" clip-rule="evenodd" d="M50.2242 22.8737L48.2595 19.5625C45.1253 22.4688 42.5395 25.4459 40.2036 28.8115L37.7493 32.5851C36.7146 34.2399 34.9756 37.5117 34.3518 38.583C34.3649 38.9376 34.3812 39.2512 34.4003 39.5159C35.0536 38.0952 36.6855 35.673 37.1616 35.0223C40.9597 29.8338 44.9913 26.5427 50.2242 22.8737Z" fill="#E100FE" />
 <path fill-rule="evenodd" clip-rule="evenodd" d="M46.8004 17.1134C46.2238 16.1809 45.5159 15.1202 45.0333 14.1733C42.2745 17.7796 40.1416 21.3325 38.3583 25.2591L36.6212 29.4118C35.8663 31.3108 34.6698 35.0921 34.3003 36.0703C34.3059 36.6762 34.3153 37.241 34.3266 37.7508C34.703 36.182 35.5991 33.7974 35.8874 33.1108C38.5745 26.7133 42.0393 22.402 46.8004 17.1134V17.1134Z" fill="#FF6300" />
 <path fill-rule="evenodd" clip-rule="evenodd" d="M41.7815 14.1516C39.3516 14.9367 37.0772 16.5349 35.6668 18.1557C34.6739 19.2965 34.3541 19.5483 34.3646 21.4647C34.3796 24.0955 34.2914 29.5112 34.2913 33.8925C34.4618 32.4426 34.7596 30.8241 34.8834 30.2634C36.2464 24.0881 38.5557 19.5015 41.7815 14.1516V14.1516Z" fill="#FF6300" />
 <path fill-rule="evenodd" clip-rule="evenodd" d="M78.208 52H76.96V0H78.208V52Z" fill="#D76713" />
</svg>