<svg viewBox="0 0 141 93" fill="none" xmlns="http://www.w3.org/2000/svg">
 <path fill-rule="evenodd" clip-rule="evenodd" d="M9.02489 68.1582C9.02489 63.4707 9.05352 62.9024 9.10976 61.9935C9.16678 60.9995 9.3657 60.4592 10.1329 60.3173C10.5307 60.2325 10.8145 60.2325 11.098 60.2039C11.4958 60.2039 11.7803 60.1469 11.7803 59.8917C11.7803 59.7212 11.6101 59.6358 11.098 59.6358C10.0759 59.6358 6.55317 59.7212 6.29803 59.7212C5.19 59.7212 3.7127 59.6358 2.0931 59.6358C1.52477 59.6358 1.24109 59.6928 1.24109 59.9196C1.24109 60.1469 1.52477 60.2039 1.8377 60.2039C2.26337 60.2325 2.68982 60.2609 2.94573 60.3458C3.6557 60.5447 3.85462 61.0274 3.91111 61.823C3.96813 62.7321 3.99661 63.2431 3.99661 67.8736V72.8735C3.99661 74.635 3.96813 76.339 3.91111 77.4754C3.82624 79.7482 3.79758 80.2595 2.77521 80.4298C2.46228 80.4868 2.15015 80.5154 1.80936 80.5438C1.41155 80.5438 1.24109 80.6287 1.24109 80.7989C1.24109 81.0551 1.46855 81.1121 1.86636 81.1121C3.42843 81.1121 4.96272 81.0265 6.29803 81.0265C9.30865 81.0265 11.9508 81.197 15.871 81.197C17.0067 81.197 17.2343 81.1684 17.4618 80.4298C17.7454 79.6063 18.0584 76.9071 18.0584 76.2541C18.0584 75.8563 18.0298 75.7144 17.8309 75.7144C17.6034 75.7144 17.5472 75.942 17.4618 76.2541C17.1494 77.5894 16.6659 78.328 15.9846 78.6404C15.1887 79.0666 14.2798 79.0944 12.7178 79.0944C10.3593 79.0944 9.81966 78.9526 9.42263 78.4129C8.93944 77.8162 9.02489 75.7706 9.02489 72.9019V68.1582ZM24.4783 75.942C24.4783 76.396 24.4497 77.6743 24.3651 78.8677C24.3079 79.6912 24.1376 80.2022 23.399 80.4011C23.143 80.4868 22.8593 80.4867 22.4045 80.5438C22.0637 80.5438 21.8932 80.6573 21.8932 80.7989C21.8932 80.9981 22.0637 81.1121 22.4615 81.1121C23.7397 81.1121 26.0413 81.0265 26.8645 81.0265C27.802 81.0265 30.1596 81.1121 32.2051 81.1121C32.6313 81.1121 32.7731 80.9981 32.7731 80.8562C32.7731 80.6573 32.6599 80.5716 32.3191 80.5438C31.8357 80.4867 31.2675 80.4868 30.7562 80.3735C29.7055 80.1746 29.6485 79.4637 29.5915 78.7537C29.5066 77.5611 29.5066 76.396 29.5066 75.942V73.9251C29.5066 73.5273 29.5353 72.4193 29.9607 71.2258C30.3585 70.0332 34.4209 63.0729 35.3868 61.88C35.8981 61.2262 36.1825 60.7436 36.9776 60.4314C37.3184 60.3174 37.7161 60.2325 38.0853 60.2039C38.4547 60.2039 38.6535 60.1185 38.6535 59.8917C38.6535 59.6928 38.4261 59.6358 38.0853 59.6358C37.5456 59.6358 35.2164 59.7212 34.8186 59.7212C33.7393 59.7212 32.7732 59.6358 31.6084 59.6358C31.1541 59.6358 30.9839 59.7212 30.9839 59.8917C30.9839 60.0899 31.2114 60.1755 31.4665 60.2325C32.3191 60.3744 32.4894 60.6303 32.4894 60.9425C32.4894 61.3119 32.3192 61.7946 32.0346 62.3913C31.4949 63.5277 29.9607 66.368 28.2284 69.6353C27.7736 68.7827 24.2225 62.4767 23.7682 61.6527C23.5693 61.2832 23.4838 61.0274 23.4838 60.8285C23.4838 60.6017 23.5979 60.3174 24.3651 60.2325C24.7905 60.1468 24.9332 60.0898 24.9332 59.8631C24.9332 59.6928 24.7059 59.6358 24.3927 59.6358C22.6033 59.6358 20.814 59.7212 20.3314 59.7212C19.2512 59.7212 17.1209 59.6358 15.9559 59.6358C15.6151 59.6358 15.3876 59.6928 15.3876 59.8917C15.3876 60.062 15.5303 60.1755 15.814 60.2039C16.0416 60.2325 16.3824 60.2888 16.5527 60.3458C17.4618 60.6303 17.7739 60.9995 18.8541 62.6472C19.8192 64.0957 22.6317 68.7827 23.6827 70.7147C24.1662 71.6522 24.4783 72.2203 24.4783 73.754V75.942ZM40.6418 76.9357C40.5569 79.5779 40.4146 80.2879 39.3065 80.4584C38.9944 80.5154 38.6249 80.5154 38.369 80.5438C37.972 80.5438 37.8293 80.6573 37.8293 80.8276C37.8293 81.0551 38.0569 81.1121 38.4547 81.1121C39.5624 81.1121 41.665 81.0265 42.3179 81.0265C44.0789 81.0551 44.9885 81.1121 45.9825 81.1121C46.4373 81.1121 46.6639 81.0551 46.6639 80.8276C46.6639 80.6573 46.522 80.5716 46.0966 80.5438C45.5283 80.4867 45.0163 80.4868 44.5907 80.3449C43.7951 80.0603 43.6818 79.2934 43.6248 77.2478L43.3411 67.5615C45.4142 69.5784 48.2554 72.249 49.8459 73.6975C51.5506 75.2596 54.0498 77.504 55.9819 79.2085C57.8285 80.8276 58.709 81.5091 59.1638 81.5091C59.5332 81.5091 59.732 81.197 59.732 79.7482C59.8453 74.0383 59.8453 68.3571 60.0726 62.6472C60.1575 60.8854 60.442 60.4028 61.3795 60.2888C61.5784 60.2325 61.7203 60.2325 62.0895 60.2039C62.4303 60.2039 62.5721 60.0336 62.5721 59.8917C62.5721 59.7212 62.3734 59.6358 61.948 59.6358C60.7543 59.6358 59.334 59.7212 58.7089 59.7212C57.5725 59.7212 55.7259 59.6358 54.5902 59.6358C54.2773 59.6358 54.0223 59.7212 54.0223 59.9196C54.0223 60.062 54.1641 60.2039 54.5332 60.2039C54.931 60.2325 55.3852 60.2609 55.783 60.3458C56.9194 60.5447 57.0613 61.2832 57.1185 62.8739L57.2888 73.5273C56.5215 72.8449 54.5619 70.9421 51.6637 68.2714C45.159 62.3057 43.6819 60.8855 42.4884 59.8917C41.7499 59.295 41.608 59.2094 41.3804 59.2094C41.0396 59.2094 40.9264 59.7212 40.8978 60.5733C40.7275 64.2376 40.7837 71.0839 40.6418 76.9357ZM67.7424 72.8735C67.7424 75.3166 67.6853 77.3335 67.6004 78.6974C67.515 79.8052 67.2314 80.3449 66.6631 80.4298C66.3509 80.4868 66.152 80.5154 65.7825 80.5438C65.4696 80.5438 65.2428 80.6287 65.2428 80.8276C65.2428 80.9695 65.3277 81.1121 65.8104 81.1121C66.606 81.1121 66.9753 81.0835 67.7709 81.0551C68.5665 81.0265 69.2483 81.0265 69.9298 81.0265C70.4695 81.0265 71.6342 81.1121 72.7422 81.2254C73.6797 81.3103 74.6457 81.3386 75.7813 81.3386C81.4912 81.3386 84.1047 79.379 85.4973 77.9588C87.1164 76.4246 88.6221 73.6121 88.6221 70.175C88.6221 66.7942 87.3438 64.4082 85.8952 62.9593C83.31 60.3174 79.503 59.6928 74.6457 59.6642C72.2589 59.6928 70.9806 59.7212 70.0438 59.7212C68.7934 59.7212 66.1797 59.6358 65.4695 59.6358C64.9868 59.6358 64.8167 59.7212 64.8167 59.8917C64.8167 60.0336 64.9299 60.1755 65.3563 60.2039C65.896 60.2609 66.1797 60.2609 66.407 60.2888C67.4864 60.4028 67.6292 61.17 67.6854 61.9935C67.7424 62.9024 67.7424 63.698 67.7424 67.8736V72.8735ZM72.7707 67.4196C72.7707 65.1182 72.8272 63.0729 72.7994 62.1075C72.7994 61.8516 72.8272 61.7097 73.0545 61.5957C73.3104 61.4538 73.9635 61.3689 74.5886 61.3689C76.4636 61.3689 79.1621 61.9086 81.122 64.4652C82.3154 66.0843 83.2529 68.3855 83.2529 70.9707C83.2529 73.6405 82.8837 76.1687 81.4065 77.6457C79.9007 79.2085 78.2246 79.6349 76.2364 79.6349C74.9865 79.6349 73.8216 79.2371 73.3103 78.6117C72.9974 78.2996 72.8841 77.7313 72.8271 76.5665C72.7992 76.0268 72.7707 74.0669 72.7707 71.0555V67.4196ZM94.1613 72.8735C94.1613 74.635 94.133 76.3111 94.076 77.4467C94.0197 79.2371 93.9054 80.3165 93.1106 80.4298C92.8833 80.4868 92.5987 80.5154 92.2579 80.5438C91.8323 80.5438 91.6897 80.6857 91.6897 80.8276C91.6897 81.0265 91.8601 81.1121 92.3719 81.1121C93.934 81.1121 95.1274 81.0265 96.4627 81.0265C99.445 81.0265 101.576 81.197 105.496 81.197C106.547 81.197 106.746 81.1684 106.945 80.4298C107.087 79.8901 107.399 77.7313 107.399 76.6235C107.399 76.2827 107.371 75.9982 107.144 75.9982C106.973 75.9982 106.859 76.1687 106.802 76.5092C106.547 77.8161 106.206 78.4415 105.411 78.7537C104.615 79.0666 103.507 79.0944 102.769 79.0944C99.6153 79.0944 99.2183 78.6404 99.1899 76.6519C99.1613 75.5725 99.1899 73.8964 99.1899 72.9306V70.9707C99.1899 70.7431 99.2182 70.6012 99.3601 70.6012C100.241 70.6012 102.57 70.6577 103.365 70.7147C104.758 70.7996 105.155 71.2828 105.269 72.1063C105.297 72.3338 105.325 72.5328 105.354 72.76C105.411 73.0154 105.468 73.2143 105.667 73.2143C105.837 73.2143 105.922 73.0438 105.922 72.6746C105.922 72.3622 105.922 70.9706 105.951 70.3169C106.036 69.2089 106.178 68.1866 106.178 67.9023C106.178 67.7318 106.178 67.5615 106.008 67.5615C105.866 67.5615 105.78 67.6747 105.61 67.9306C105.297 68.4419 104.928 68.5273 103.536 68.5838C102.513 68.6122 100.212 68.6408 99.4163 68.6122C99.2182 68.6122 99.1899 68.4703 99.1899 68.2714V62.0218C99.1899 61.8229 99.246 61.7381 99.4163 61.7381C100.269 61.7381 102.74 61.7946 103.678 61.88C105.041 61.9935 105.411 62.3626 105.553 63.0163C105.667 63.4136 105.695 63.698 105.695 64.0104C105.723 64.2663 105.837 64.4082 105.979 64.4082C106.149 64.4082 106.263 64.2377 106.263 64.0104C106.348 62.5332 106.405 61.5392 106.49 60.9711C106.576 60.1469 106.632 59.8631 106.632 59.7212C106.632 59.5788 106.604 59.4653 106.462 59.4653C106.348 59.4653 106.206 59.5223 106.008 59.5788C105.723 59.6358 105.041 59.6928 104.473 59.6928C104.019 59.6928 97.0586 59.7212 96.4627 59.7212C95.2123 59.7212 93.8491 59.6358 92.2293 59.6358C91.7752 59.6358 91.605 59.7212 91.605 59.8917C91.605 60.062 91.7466 60.1755 92.1161 60.2039C92.4006 60.2325 92.7977 60.2325 93.0536 60.2888C93.7635 60.4593 94.0197 60.9425 94.076 61.766C94.133 62.6751 94.1613 63.2431 94.1613 67.8736V72.8735ZM133.818 60.2888C133.733 59.5788 133.562 59.181 133.278 59.181C132.994 59.181 132.766 59.4653 132.312 60.2039L124.529 73.9529L116.404 60.3458C115.807 59.4653 115.608 59.181 115.296 59.181C115.013 59.181 114.814 59.4369 114.7 60.2888L112.114 77.7599C111.831 79.6349 111.546 80.2879 110.723 80.4584C110.41 80.5154 110.098 80.5154 109.87 80.5438C109.473 80.5438 109.302 80.6573 109.302 80.8276C109.302 81.1121 109.644 81.1121 109.927 81.1121C110.978 81.1121 112.313 81.0265 113.194 81.0265C114.046 81.0265 115.608 81.1121 116.858 81.1121C117.313 81.1121 117.426 81.0265 117.426 80.7989C117.426 80.6287 117.342 80.5438 116.915 80.5438C116.546 80.5154 116.291 80.4868 115.864 80.4011C115.154 80.2595 114.87 79.9187 114.87 79.0944C114.87 78.6688 114.87 78.0437 114.984 76.8224L115.807 68.8111C116.347 69.7773 117.597 72.1063 118.08 72.9306C119.16 74.7485 120.893 77.9864 121.886 79.5779C122.682 80.8276 122.853 81.1121 123.165 81.1121C123.392 81.1121 123.562 80.9408 124.33 79.4923L130.182 68.5273L131.204 78.6974C131.318 79.9757 131.289 80.1459 130.835 80.3165C130.636 80.3735 130.522 80.4868 130.522 80.6001C130.522 80.7427 130.636 80.9132 131.176 80.9408C134.414 81.1121 136.715 81.1121 139.073 81.1121C139.528 81.1121 139.755 81.0551 139.755 80.8276C139.755 80.6287 139.584 80.5438 139.215 80.5438C138.846 80.5154 138.164 80.4584 137.596 80.2879C136.658 80.0041 136.375 79.2933 136.147 77.4467L133.818 60.2888Z" fill="#0001FF" />
 <path fill-rule="evenodd" clip-rule="evenodd" d="M15.6675 90.3293C15.6675 91.0849 15.6598 91.5179 15.6495 91.8491C15.6315 92.4853 15.5223 92.6037 15.3437 92.6468C15.2847 92.6649 15.2334 92.6648 15.1485 92.6725C15.0974 92.6803 15.0551 92.6984 15.0551 92.7236C15.0551 92.775 15.0974 92.7917 15.191 92.7917C15.4118 92.7995 15.6152 92.766 15.8193 92.766C16.1497 92.766 16.5404 92.784 16.8804 92.7917C17.2109 92.7995 17.4909 92.8176 18.1191 92.8176C18.4504 92.8176 18.5178 92.8176 18.5776 92.5967C18.6199 92.4182 18.688 91.8413 18.688 91.7732C18.688 91.7141 18.6879 91.6461 18.6368 91.6461C18.5943 91.6461 18.5775 91.6796 18.5608 91.7732C18.4927 92.1383 18.3991 92.3165 18.1279 92.4014C17.8983 92.4695 17.6181 92.4775 17.3635 92.4775C17.0322 92.4775 16.8034 92.4594 16.6595 92.4014C16.4474 92.3165 16.3961 92.13 16.3793 91.782C16.3716 91.6038 16.3793 90.6193 16.3793 90.3303V89.5838C16.3793 89.5494 16.3948 89.5247 16.4387 89.5247C16.5827 89.5247 17.4228 89.5427 17.6524 89.567C17.9573 89.6005 18.0597 89.7192 18.0933 89.8472C18.1191 89.9233 18.1279 90.0079 18.1279 90.0848C18.1279 90.1521 18.1356 90.22 18.187 90.22C18.2208 90.22 18.2376 90.1776 18.2463 90.0927C18.2541 89.9743 18.2541 89.779 18.2807 89.5159C18.3065 89.2357 18.3479 89.0918 18.3479 89.0404C18.3479 88.9894 18.3299 88.9723 18.3057 88.9723C18.2719 88.9723 18.2463 89.0069 18.204 89.0572C18.1191 89.1589 18.0087 89.1847 17.7796 89.2014C17.5846 89.2195 16.5403 89.2195 16.4299 89.2195C16.3873 89.2195 16.3793 89.1937 16.3793 89.1346V86.7916C16.3793 86.7323 16.3948 86.7068 16.4299 86.7068C16.5233 86.7068 17.4484 86.7145 17.5926 86.7326C17.9661 86.7669 18.1446 86.8517 18.204 87.047C18.2298 87.1144 18.2463 87.2168 18.2463 87.3272C18.2463 87.3943 18.2617 87.4369 18.3144 87.4369C18.3479 87.4369 18.3734 87.3775 18.3822 87.2927C18.3977 87.0718 18.4081 86.9111 18.4161 86.7839C18.4315 86.546 18.4839 86.4444 18.4839 86.3846C18.4839 86.342 18.4762 86.3085 18.4504 86.3085C18.4246 86.3085 18.4078 86.3162 18.3567 86.342C18.3056 86.3678 18.1527 86.3846 17.9662 86.3933C17.7709 86.4011 16.0824 86.401 16.0225 86.401C15.488 86.3752 15.259 86.3753 15.0639 86.3753C14.9703 86.3753 14.9277 86.3933 14.9277 86.4431C14.9277 86.4769 14.979 86.4857 15.0381 86.4937C15.1142 86.5014 15.2246 86.5014 15.2847 86.5195C15.5646 86.5788 15.632 86.7148 15.6495 87.0037C15.6676 87.2749 15.6675 87.5127 15.6675 88.8361V90.3293ZM24.7722 90.3293C24.7722 91.144 24.7723 91.8148 24.7297 92.1716C24.6954 92.4172 24.653 92.6037 24.4833 92.638C24.4072 92.656 24.3393 92.6638 24.2457 92.6718C24.1776 92.6718 24.1608 92.6976 24.1608 92.7228C24.1608 92.7742 24.203 92.7909 24.2967 92.7909C24.4239 92.7909 24.6191 92.7729 24.7889 92.7729C24.9672 92.7652 25.1114 92.7652 25.1282 92.7652C25.1708 92.7652 25.4595 92.791 25.8333 92.8163C26.1981 92.8421 26.6476 92.8668 27.0127 92.8668C28.4556 92.8668 29.2189 92.273 29.584 91.8912C30.0592 91.3902 30.5009 90.567 30.5009 89.4976C30.5009 88.4879 30.1017 87.7828 29.6773 87.3419C28.6676 86.2976 27.1144 86.3745 26.2742 86.3745C25.7652 86.3745 25.2306 86.4003 25.1282 86.4003C25.0859 86.4003 24.5514 86.3745 24.1696 86.3745C24.076 86.3745 24.0336 86.3926 24.0336 86.4424C24.0336 86.4762 24.0679 86.4929 24.1269 86.4929C24.203 86.4929 24.348 86.5007 24.4151 86.5187C24.6952 86.5781 24.7377 86.714 24.7552 87.0029C24.7733 87.2741 24.7731 87.5119 24.7731 88.8354L24.7722 90.3293ZM25.485 88.7002C25.485 88.0465 25.485 87.1805 25.4927 86.8926C25.4927 86.7989 25.5186 86.7563 25.5949 86.7228C25.6623 86.6885 25.9767 86.6629 26.1465 86.6629C27.1562 86.6629 28.1239 86.7821 28.9215 87.6224C29.2698 87.9872 29.7362 88.6834 29.7362 89.7605C29.7362 90.5414 29.4986 91.3561 29.0574 91.789C28.5567 92.29 27.8269 92.5789 27.0377 92.5789C26.036 92.5789 25.7053 92.4004 25.5949 92.2389C25.5271 92.146 25.5103 91.8065 25.5015 91.5939C25.4938 91.433 25.4834 90.6518 25.4834 89.7525L25.485 88.7002ZM36.9911 88.8354C36.9911 87.5119 36.9912 87.2741 37.0092 87.0029C37.0247 86.7052 37.0941 86.5523 37.3229 86.5187C37.4245 86.5033 37.4757 86.4929 37.535 86.4929C37.5693 86.4929 37.6029 86.4749 37.6029 86.4424C37.6029 86.3913 37.5605 86.3745 37.4668 86.3745C37.2125 86.3745 36.7035 86.4003 36.6266 86.4003C36.5505 86.4003 36.0327 86.3745 35.6512 86.3745C35.5575 86.3745 35.5153 86.3926 35.5153 86.4424C35.5153 86.4762 35.5488 86.4929 35.5831 86.4929C35.6592 86.4929 35.804 86.5007 35.8713 86.5187C36.1515 86.5781 36.2192 86.714 36.2368 87.0029C36.2548 87.2741 36.2549 87.5119 36.2549 88.8354V90.0749C36.2549 91.3138 36.5774 91.9082 36.9927 92.3068C37.5951 92.8759 38.4531 92.9094 38.741 92.9094C39.242 92.9094 39.8781 92.8245 40.4895 92.2812C41.1688 91.6785 41.2705 90.6609 41.2705 89.7437V88.8354C41.2705 87.5119 41.2706 87.2741 41.2887 87.0029C41.3041 86.7052 41.3732 86.5701 41.6028 86.5187C41.7047 86.5033 41.7551 86.4929 41.8152 86.4929C41.8487 86.4929 41.8821 86.4749 41.8821 86.4424C41.8821 86.3913 41.8399 86.3745 41.747 86.3745C41.4924 86.3745 41.0932 86.4003 41.0339 86.4003C40.9828 86.4003 40.5162 86.3745 40.1346 86.3745C40.041 86.3745 39.9984 86.3926 39.9984 86.4424C39.9984 86.4762 40.0321 86.4929 40.0665 86.4929C40.1426 86.4929 40.2874 86.5007 40.3548 86.5187C40.6347 86.5781 40.7027 86.714 40.7194 87.0029C40.7375 87.2741 40.7375 87.5119 40.7375 88.8354V89.8965C40.7375 90.7713 40.635 91.4923 40.2455 91.9763C39.9398 92.3413 39.4301 92.5869 38.9123 92.5869C38.4288 92.5869 38.0473 92.5108 37.6312 92.1203C37.2662 91.7722 36.9943 91.2464 36.9943 90.0239L36.9911 88.8354ZM49.6606 86.7395C50.0166 86.7472 50.3735 86.7473 50.7295 86.7576C51.5443 86.7757 51.7484 86.9697 51.774 87.2243C51.774 87.2586 51.7817 87.2841 51.7817 87.3179C51.7894 87.4363 51.8074 87.4619 51.8497 87.4619C51.884 87.4619 51.9095 87.4283 51.9095 87.3515C51.9095 87.2586 51.9354 86.673 51.9354 86.4184C51.9354 86.3673 51.9354 86.3159 51.8929 86.3159C51.8593 86.3159 51.7824 86.3418 51.6552 86.3585C51.5201 86.3843 51.3248 86.4008 51.0527 86.4008H47.8701C47.7685 86.4008 47.446 86.3854 47.1996 86.3585C46.9706 86.3405 46.8857 86.2569 46.8266 86.2569C46.7923 86.2569 46.7585 86.3673 46.741 86.4184C46.7255 86.4865 46.5545 87.2163 46.5545 87.3009C46.5545 87.3515 46.5725 87.377 46.5971 87.377C46.6314 87.377 46.6561 87.3615 46.6819 87.2921C46.7077 87.233 46.733 87.1737 46.8266 87.029C46.9618 86.8257 47.1659 86.7664 47.6917 86.7576C48.1078 86.7499 48.5319 86.7498 48.9481 86.7395V90.3293C48.9481 91.144 48.948 91.8148 48.9057 92.1716C48.8719 92.4172 48.8297 92.6037 48.6591 92.638C48.5833 92.656 48.4816 92.6718 48.4047 92.6718C48.3541 92.6718 48.3367 92.6976 48.3367 92.7228C48.3367 92.7742 48.3792 92.7909 48.4729 92.7909C48.7272 92.7909 49.2617 92.7652 49.3042 92.7652C49.3473 92.7652 49.8818 92.7909 50.3485 92.7909C50.4419 92.7909 50.4845 92.7652 50.4845 92.7228C50.4845 92.697 50.469 92.6718 50.4164 92.6718C50.3397 92.6718 50.1534 92.6537 50.0347 92.638C49.7795 92.6037 49.7292 92.4172 49.7034 92.1716C49.6611 91.8148 49.661 91.144 49.661 90.3293L49.6606 86.7395ZM59.6645 90.287C59.7068 90.287 59.7238 90.3051 59.7406 90.3381L60.5302 92.426C60.5808 92.5614 60.5303 92.638 60.4792 92.6551C60.4454 92.6628 60.4199 92.6808 60.4199 92.7141C60.4199 92.7654 60.5135 92.7654 60.6745 92.7742C61.2601 92.7922 61.8795 92.7923 62.0067 92.7923C62.1004 92.7923 62.1765 92.7742 62.1765 92.7242C62.1765 92.6819 62.1341 92.6731 62.0836 92.6731C62.0155 92.6731 61.8795 92.6654 61.7523 92.6225C61.5738 92.5715 61.3282 92.4355 61.0225 91.6798C60.5047 90.3899 59.1723 86.885 59.0451 86.5623C58.9434 86.2991 58.9091 86.2569 58.8577 86.2569C58.8074 86.2569 58.7729 86.3079 58.6713 86.5881L56.7453 91.8584C56.5925 92.2825 56.4227 92.605 56.0321 92.6563C55.9643 92.6641 55.8874 92.6744 55.8281 92.6744C55.7522 92.6744 55.7096 92.6924 55.7096 92.7254C55.7096 92.7768 55.7602 92.7935 55.8706 92.7935C56.2697 92.7935 56.7365 92.7677 56.8301 92.7677C56.923 92.7677 57.263 92.7935 57.4663 92.7935C57.5431 92.7935 57.619 92.7755 57.619 92.7254C57.619 92.6919 57.5932 92.6744 57.5086 92.6744C57.4828 92.6744 57.4575 92.6744 57.4327 92.6744C57.2877 92.6744 57.1269 92.5982 57.1269 92.4285C57.1269 92.2758 57.1692 92.0717 57.2453 91.8597L57.7552 90.3577C57.7707 90.3152 57.7974 90.2896 57.8397 90.2896L59.6645 90.287ZM57.9326 89.9813C57.9068 89.9813 57.8903 89.9632 57.9068 89.9222L58.6535 87.6303C58.6961 87.5031 58.7384 87.5031 58.7807 87.6303L59.5874 89.9222C59.5951 89.9557 59.5951 89.9813 59.5531 89.9813H57.9326ZM67.5046 90.3293C67.5046 91.144 67.5045 91.8148 67.4622 92.1716C67.4279 92.4172 67.3773 92.6125 67.2076 92.6468C67.131 92.6649 67.038 92.6725 66.9867 92.6725C66.91 92.6725 66.8931 92.6984 66.8931 92.7236C66.8931 92.775 66.9357 92.7917 67.0293 92.7917C67.2837 92.7917 67.8182 92.766 67.8607 92.766C67.903 92.766 68.4463 92.7917 68.913 92.7917C69.0067 92.7917 69.041 92.7659 69.041 92.7236C69.041 92.6978 69.0153 92.6725 68.9387 92.6725C68.8881 92.6725 68.7097 92.6545 68.5905 92.6388C68.3359 92.6045 68.2857 92.418 68.2599 92.1724C68.2176 91.8156 68.2175 91.1448 68.2175 90.3301V88.8361C68.2175 87.5127 68.2176 87.2749 68.2331 87.0037C68.2512 86.706 68.3179 86.5618 68.5468 86.5195C68.6492 86.504 68.6998 86.4937 68.7597 86.4937C68.7932 86.4937 68.8269 86.4756 68.8269 86.4431C68.8269 86.392 68.7843 86.3753 68.6915 86.3753C68.4371 86.3753 67.9018 86.401 67.8595 86.401C67.8169 86.401 67.2824 86.3753 67.0023 86.3753C66.9089 86.3753 66.8662 86.3933 66.8662 86.4431C66.8662 86.4769 66.9006 86.4937 66.9344 86.4937C66.9942 86.4937 67.1039 86.5015 67.1975 86.528C67.384 86.5706 67.4689 86.7145 67.4864 87.0035C67.5045 87.2746 67.5046 87.5125 67.5046 88.8359V90.3293ZM75.0747 91.5434C75.0747 92.3155 75.0323 92.5614 74.8202 92.6212C74.6931 92.6638 74.5401 92.6718 74.4722 92.6718C74.4297 92.6718 74.4042 92.6898 74.4042 92.7228C74.4042 92.7822 74.4552 92.7909 74.5401 92.7909C74.9219 92.7909 75.278 92.7652 75.3564 92.7652C75.4325 92.7652 75.7717 92.7909 76.2544 92.7909C76.356 92.7909 76.4071 92.7729 76.4071 92.7228C76.4071 92.6893 76.3814 92.6718 76.3391 92.6718C76.2632 92.6718 76.0774 92.664 75.9165 92.6212C75.6869 92.5534 75.6019 92.3325 75.5852 91.6362L75.4748 87.571C75.7467 87.8767 76.704 88.9458 77.6877 90.0068C78.5857 90.9745 79.8063 92.2219 79.8997 92.3068C80.3496 92.7567 80.4526 92.8501 80.5207 92.8501C80.58 92.8501 80.5967 92.8077 80.5967 92.2476L80.6149 87.2908C80.6149 86.7052 80.6738 86.578 80.9117 86.5275C81.0133 86.5094 81.0645 86.5017 81.1326 86.4932C81.1917 86.4854 81.2255 86.4673 81.2255 86.4338C81.2255 86.3827 81.1661 86.3748 81.0724 86.3748C80.7252 86.3748 80.4451 86.4006 80.3502 86.4006C80.2565 86.4006 79.8491 86.3748 79.4689 86.3748C79.3672 86.3748 79.2991 86.3825 79.2991 86.4338C79.2991 86.4676 79.3248 86.4932 79.4177 86.4932C79.4943 86.4932 79.6282 86.5009 79.781 86.5355C80.0444 86.6036 80.1035 86.7901 80.1123 87.3422L80.2059 91.6538C79.934 91.3736 79.0104 90.3381 78.1714 89.438C76.866 88.0377 75.6024 86.6717 75.4753 86.5275C75.3904 86.4426 75.245 86.2556 75.1769 86.2556C75.109 86.2556 75.0835 86.3489 75.0835 86.6797C75.0912 88.3264 75.0756 87.223 75.0756 90.287L75.0747 91.5434ZM93.2509 86.4852C93.2328 86.3235 93.2084 86.2556 93.149 86.2556C93.09 86.2556 93.0556 86.3146 93.0218 86.3915L90.5267 91.7212L87.9293 86.3828C87.8867 86.2899 87.8531 86.2556 87.8021 86.2556C87.7507 86.2556 87.7173 86.3322 87.7085 86.4251L87.0979 91.9419C87.0553 92.2899 87.0385 92.5957 86.7586 92.6468C86.6304 92.6726 86.5713 92.6725 86.5032 92.6725C86.4609 92.6725 86.4183 92.6906 86.4183 92.7236C86.4183 92.783 86.4785 92.7917 86.5633 92.7917C86.7922 92.7917 87.1995 92.766 87.2761 92.766C87.3435 92.766 87.7764 92.7917 88.0908 92.7917C88.1757 92.7917 88.2181 92.7737 88.2181 92.7149C88.2181 92.6891 88.1837 92.6725 88.1334 92.6725C88.082 92.6725 87.9717 92.6726 87.8277 92.6388C87.7005 92.613 87.5988 92.5454 87.5988 92.3333C87.5988 92.1891 87.6066 92.0699 87.6144 91.9348L87.9623 87.9368C88.0552 88.1664 89.0314 90.2623 89.1075 90.415C89.1498 90.4999 89.8805 91.9683 90.1008 92.3844C90.2623 92.6901 90.3046 92.775 90.3639 92.775C90.4408 92.775 90.4655 92.6981 90.644 92.3243L92.7486 87.8607L93.156 92.2908C93.174 92.4438 93.1817 92.5709 93.1221 92.5965C93.0798 92.612 93.0631 92.6222 93.0631 92.6558C93.0631 92.6981 93.1054 92.7236 93.3007 92.7404C93.6144 92.7662 94.5818 92.7917 94.7691 92.7917C94.8708 92.7917 94.8963 92.7737 94.8963 92.7236C94.8963 92.6813 94.8452 92.6725 94.8027 92.6725C94.7178 92.6725 94.5227 92.6726 94.2761 92.5965C93.9113 92.4773 93.8521 92.0018 93.8185 91.6968L93.2509 86.4852ZM100.531 90.3293C100.531 91.0849 100.523 91.5179 100.515 91.8491C100.497 92.4853 100.388 92.6037 100.209 92.6468C100.15 92.6649 100.099 92.6648 100.014 92.6725C99.963 92.6803 99.9207 92.6984 99.9207 92.7236C99.9207 92.775 99.9631 92.7917 100.057 92.7917C100.278 92.7995 100.481 92.766 100.685 92.766C101.015 92.766 101.406 92.784 101.746 92.7917C102.076 92.7995 102.357 92.8176 102.985 92.8176C103.316 92.8176 103.383 92.8176 103.443 92.5967C103.486 92.4182 103.554 91.8413 103.554 91.7732C103.554 91.7141 103.554 91.6461 103.503 91.6461C103.46 91.6461 103.443 91.6796 103.426 91.7732C103.358 92.1383 103.265 92.3165 102.993 92.4014C102.764 92.4695 102.484 92.4775 102.229 92.4775C101.898 92.4775 101.669 92.4594 101.525 92.4014C101.313 92.3165 101.262 92.13 101.245 91.782C101.237 91.6038 101.245 90.6193 101.245 90.3303V89.5838C101.245 89.5494 101.263 89.5247 101.304 89.5247C101.448 89.5247 102.289 89.5427 102.518 89.567C102.823 89.6005 102.925 89.7192 102.959 89.8472C102.985 89.9233 102.993 90.0079 102.993 90.0848C102.993 90.1521 103.001 90.22 103.053 90.22C103.086 90.22 103.103 90.1776 103.112 90.0927C103.12 89.9743 103.12 89.779 103.146 89.5159C103.172 89.2357 103.214 89.0918 103.214 89.0404C103.214 88.9894 103.198 88.9723 103.171 88.9723C103.137 88.9723 103.112 89.0069 103.07 89.0572C102.985 89.1589 102.874 89.1847 102.646 89.2014C102.45 89.2195 101.406 89.2195 101.295 89.2195C101.253 89.2195 101.245 89.1937 101.245 89.1346V86.7916C101.245 86.7323 101.263 86.7068 101.295 86.7068C101.389 86.7068 102.314 86.7145 102.458 86.7326C102.832 86.7669 103.01 86.8517 103.07 87.047C103.096 87.1144 103.112 87.2168 103.112 87.3272C103.112 87.3943 103.13 87.4369 103.18 87.4369C103.214 87.4369 103.239 87.3775 103.248 87.2927C103.263 87.0718 103.274 86.9111 103.282 86.7839C103.297 86.546 103.35 86.4444 103.35 86.3846C103.35 86.342 103.342 86.3085 103.316 86.3085C103.29 86.3085 103.273 86.3162 103.222 86.342C103.171 86.3678 103.018 86.3846 102.832 86.3933C102.637 86.4011 100.948 86.401 100.888 86.401C100.354 86.3752 100.125 86.3753 99.9295 86.3753C99.8359 86.3753 99.7933 86.3933 99.7933 86.4431C99.7933 86.4769 99.8446 86.4857 99.9037 86.4937C99.9798 86.5014 100.09 86.5014 100.15 86.5195C100.43 86.5788 100.498 86.7148 100.515 87.0037C100.531 87.2749 100.531 87.5127 100.531 88.8361V90.3293ZM109.544 91.5434C109.544 92.3155 109.501 92.5614 109.289 92.6212C109.162 92.6638 109.009 92.6718 108.941 92.6718C108.899 92.6718 108.873 92.6898 108.873 92.7228C108.873 92.7822 108.924 92.7909 109.009 92.7909C109.391 92.7909 109.747 92.7652 109.825 92.7652C109.901 92.7652 110.241 92.7909 110.723 92.7909C110.825 92.7909 110.876 92.7729 110.876 92.7228C110.876 92.6893 110.85 92.6718 110.808 92.6718C110.732 92.6718 110.546 92.664 110.385 92.6212C110.156 92.5534 110.071 92.3325 110.054 91.6362L109.944 87.571C110.216 87.8767 111.173 88.9458 112.157 90.0068C113.055 90.9745 114.275 92.2219 114.369 92.3068C114.819 92.7567 114.922 92.8501 114.99 92.8501C115.049 92.8501 115.066 92.8077 115.066 92.2476L115.084 87.2908C115.084 86.7052 115.143 86.578 115.381 86.5275C115.482 86.5094 115.533 86.5017 115.602 86.4932C115.661 86.4854 115.694 86.4673 115.694 86.4338C115.694 86.3827 115.635 86.3748 115.541 86.3748C115.194 86.3748 114.914 86.4006 114.819 86.4006C114.725 86.4006 114.318 86.3748 113.938 86.3748C113.836 86.3748 113.768 86.3825 113.768 86.4338C113.768 86.4676 113.794 86.4932 113.887 86.4932C113.963 86.4932 114.097 86.5009 114.25 86.5355C114.513 86.6036 114.572 86.7901 114.581 87.3422L114.675 91.6538C114.403 91.3736 113.479 90.3381 112.641 89.438C111.335 88.0377 110.072 86.6717 109.944 86.5275C109.859 86.4426 109.714 86.2556 109.646 86.2556C109.578 86.2556 109.552 86.3489 109.552 86.6797C109.56 88.3264 109.545 87.223 109.545 90.287L109.544 91.5434ZM123.782 86.7395C124.138 86.7472 124.495 86.7473 124.851 86.7576C125.666 86.7757 125.87 86.9697 125.895 87.2243C125.895 87.2586 125.903 87.2841 125.903 87.3179C125.911 87.4363 125.929 87.4619 125.971 87.4619C126.005 87.4619 126.031 87.4283 126.031 87.3515C126.031 87.2586 126.057 86.673 126.057 86.4184C126.057 86.3673 126.057 86.3159 126.014 86.3159C125.981 86.3159 125.904 86.3418 125.776 86.3585C125.641 86.3843 125.446 86.4008 125.174 86.4008H121.992C121.89 86.4008 121.567 86.3854 121.321 86.3585C121.092 86.3405 121.007 86.2569 120.948 86.2569C120.914 86.2569 120.88 86.3673 120.862 86.4184C120.847 86.4865 120.676 87.2163 120.676 87.3009C120.676 87.3515 120.694 87.377 120.718 87.377C120.753 87.377 120.777 87.3615 120.803 87.2921C120.829 87.233 120.854 87.1737 120.948 87.029C121.083 86.8257 121.287 86.7664 121.813 86.7576C122.229 86.7499 122.653 86.7498 123.069 86.7395V90.3293C123.069 91.144 123.069 91.8148 123.027 92.1716C122.993 92.4172 122.951 92.6037 122.781 92.638C122.705 92.656 122.603 92.6718 122.526 92.6718C122.475 92.6718 122.458 92.6976 122.458 92.7228C122.458 92.7742 122.5 92.7909 122.594 92.7909C122.848 92.7909 123.383 92.7652 123.426 92.7652C123.469 92.7652 124.003 92.7909 124.47 92.7909C124.563 92.7909 124.606 92.7652 124.606 92.7228C124.606 92.697 124.59 92.6718 124.538 92.6718C124.461 92.6718 124.275 92.6537 124.156 92.638C123.901 92.6037 123.85 92.4172 123.825 92.1716C123.782 91.8148 123.782 91.144 123.782 90.3293L123.782 86.7395Z" fill="#0001FF" />
 <path fill-rule="evenodd" clip-rule="evenodd" d="M74.6978 41.0889C75.5099 40.3291 76.3685 39.5497 77.2653 38.8496C82.2298 34.9739 84.9644 33.6 90.4625 31.1897C92.0653 30.4872 97.1049 29.2303 98.1155 28.3921L95.4265 23.8605C90.7393 26.5904 86.6393 29.5742 82.7218 33.0786L78.2255 37.3521C77.2634 38.2994 75.9332 39.7363 74.6978 41.0889Z" fill="#0001FF" />
 <path fill-rule="evenodd" clip-rule="evenodd" d="M54.6823 32.9477C58.7403 34.9692 63.5183 38.0864 68.5159 43.1523L69.3994 43.8904C69.3736 35.5398 69.3326 27.1282 69.4123 18.7781C69.4381 16.1921 68.8727 15.9295 67.6968 14.3396C66.2527 12.3872 64.0245 10.8594 61.5495 9.75732C60.6272 10.2552 59.7507 10.602 58.7436 11.0854C58.2759 12.1158 58.5295 13.4955 58.4219 14.7217C58.6825 16.9811 59.0325 18.4301 60.383 20.2385C62.7946 23.1362 65.3513 22.2488 66.1559 22.3744C64.1906 23.823 61.73 23.6418 59.8955 22.9566L58.1712 22.17C57.8284 21.9463 57.4782 21.7392 57.0956 21.4523C56.8191 21.2449 56.3313 20.7323 56.0617 20.6521C55.5724 21.6113 55.3991 22.2258 55.1507 23.4166C54.8148 25.0264 54.6789 28.0133 54.6874 29.7136L54.7142 32.5837C54.7163 32.6613 54.722 32.6969 54.7137 32.7743C54.6856 33.0779 54.7749 32.457 54.6931 32.9015L54.6823 32.9477Z" fill="#FF6300" />
 <path fill-rule="evenodd" clip-rule="evenodd" d="M103.996 31.5539C93.4161 33.4263 85.6534 35.3297 77.7192 42.3121C76.6656 43.2391 72.4566 47.425 71.9087 49.2967C72.5975 49.0423 77.8613 45.5302 80.6127 44.1417L86.2439 41.5019C92.0698 39.1161 98.0409 37.9693 104.989 37.9383C105.407 38.5183 106.866 40.7251 107.081 41.4851C103.388 41.7885 96.4303 41.393 93.4424 42.9512C96.1352 43.2192 100.095 42.964 103.064 43.0824C105.773 43.1916 109.251 43.836 111.764 43.7104C110.983 41.8751 109.042 40.1995 108.254 38.1612L116.649 38.8217C116.32 37.2774 101.567 15.0457 99.9886 12.5201C98.7838 10.5928 98.577 9.86543 96.6445 8.71458C93.6697 6.94329 91.4023 7.1391 88.2723 7.32588C90.002 10.4428 97.3659 21.448 100.108 25.5558C101.28 27.3116 103.176 29.8675 103.996 31.5539Z" fill="#0001FF" />
 <path fill-rule="evenodd" clip-rule="evenodd" d="M24.3508 38.7624C26.7875 39.0294 30.4536 37.7927 33.1967 38.11C32.7723 38.5287 29.6003 43.079 29.2964 43.7013C31.4034 43.8543 35.5107 43.1874 37.9782 43.062C41.227 42.8969 44.3358 43.1118 47.4983 43.0259C47.2631 42.843 47.2822 42.8151 46.8299 42.6224C44.6188 41.681 36.0589 41.5317 33.8999 41.5363L36.0834 37.9919C45.6503 37.4917 54.7106 40.8761 62.62 45.2252C65.1493 46.6164 67.5266 48.3557 69.6368 49.6402C66.3675 44.5567 64.7341 43.2843 60.4666 39.9579C54.9317 35.6427 44.7944 32.2642 37.1388 31.6241C38.5433 27.521 46.446 19.6149 40.0087 16.8674C37.1678 18.1677 31.5549 31.2717 24.3508 38.7624Z" fill="#0001FF" />
 <path fill-rule="evenodd" clip-rule="evenodd" d="M41.1632 26.278C42.2148 26.2181 42.3918 26.3499 43.6068 25.9374C43.6197 26.6166 43.0406 27.8336 42.6245 28.4122C42.0409 29.2236 41.3452 29.7178 40.3363 30.2676L40.7982 30.2599C42.696 29.9165 44.4711 28.955 45.3408 27.2085C45.6248 26.6376 45.735 25.9315 45.8923 25.5254C46.5984 25.262 47.4874 24.8856 48.1982 24.8619C49.607 26.2462 53.0095 31.3323 53.9651 33.2183C53.4564 30.6801 51.8528 26.2096 50.4094 24.1401L51.262 23.8563C50.7045 22.2434 49.8476 20.8972 48.8663 19.6231C47.9399 18.4209 46.8365 17.6129 45.9449 16.4607C45.2262 15.7683 44.2521 14.2047 43.8056 13.1792C43.5107 12.4543 43.8107 12.0619 44.054 10.779C44.3406 9.27421 44.3917 7.23827 44.094 5.69916C43.9532 4.97088 43.7411 4.21084 43.4439 3.52332C43.399 3.41935 43.346 3.29479 43.2944 3.19573L43.0745 2.87451L43.2078 5.49226C42.9204 6.45246 43.1518 9.87582 40.8965 12.2665C39.879 13.3454 39.2388 13.5296 37.9569 14.7903C37.3179 15.419 36.1345 17.146 36.0035 17.8257C35.543 18.3554 35.1116 19.8947 34.929 20.5706C34.7874 21.0938 34.308 23.0156 34.364 23.5294C34.4205 23.3705 34.5087 23.2771 34.5985 23.0803C34.9081 22.4008 35.3017 21.7865 35.6892 21.1297C35.8089 20.9272 35.8293 20.8446 35.9607 20.6444C36.183 20.3054 36.3666 20.0096 36.5924 19.6512C37.0831 18.8724 38.6266 16.5952 39.8522 16.2358C45 18.2777 42.9575 22.7191 41.1632 26.2774V26.278Z" fill="#E100FE" />
 <path fill-rule="evenodd" clip-rule="evenodd" d="M34.6138 4.76758L34.1585 4.92157C33.8628 5.23708 32.5649 6.26432 32.9139 7.33958C33.2152 7.42291 33.4045 7.28777 33.9881 7.33447C36.0403 7.4939 35.3856 8.34419 35.2125 9.08485C34.7427 11.094 32.5202 9.61578 31.7145 10.2078C31.4253 10.6699 32.9927 13.0557 34.3176 12.9079C34.3682 12.7134 34.2471 11.9004 34.2915 11.5511C34.3511 11.0803 34.4071 10.6765 34.7045 10.3874C35.633 9.48468 36.6605 10.9031 36.9332 11.1804C37.5774 11.8351 38.1994 12.2211 39.1036 12.3313C40.3592 12.4842 40.9321 11.8749 40.9985 10.8853C41.1334 8.87281 39.4945 5.35573 36.6446 6.74392C36.166 6.97713 36.0663 7.39118 35.5327 7.2333C34.5488 6.9423 35.3909 5.2799 34.6138 4.76884V4.76758Z" fill="#DF00FF" />
 <path fill-rule="evenodd" clip-rule="evenodd" d="M55.5879 0.478476C53.1322 1.83545 54.1196 6.67051 55.3114 7.07709C56.6873 7.54687 60.3795 5.72706 59.5735 2.23272C59.1489 0.391518 57.3007 -0.468053 55.5879 0.478476Z" fill="#0001FF" />
 <path fill-rule="evenodd" clip-rule="evenodd" d="M63.1843 6.30477C59.6268 7.86013 58.446 7.98731 55.1163 7.72804C51.6472 7.45767 48.9088 5.82263 48.5451 5.76768L47.3034 5.04817C46.911 4.83611 46.4714 4.51877 46.072 4.2693L44.2835 2.98791C44.2187 2.93554 44.0866 2.82231 44.018 2.77227C43.9832 2.74647 43.908 2.69643 43.8701 2.67425C43.7729 2.61723 43.7901 2.63011 43.6952 2.59064C44.1964 3.41411 45.0759 4.36602 45.7137 5.11493C46.437 5.96446 47.114 6.60684 47.8546 7.32376C48.5473 7.99425 49.4547 8.68334 50.1801 9.15957C51.1927 9.82413 52.1789 10.1931 52.7155 10.5434C52.5517 10.8927 52.3965 11.6426 52.3129 12.0626C52.2017 12.5427 52.1087 12.9602 52.0148 13.4772C51.9235 13.9779 51.8781 14.3618 51.7914 14.8602C51.4282 17.5824 51.4005 20.4565 51.8213 23.4532C52.2204 26.2915 53.2465 30.4816 54.66 33.0294L54.6943 32.9023C54.7753 32.4578 54.6865 33.0787 54.7149 32.775C54.7227 32.6976 54.7175 32.6621 54.7154 32.5844L54.6886 29.7144C54.6809 28.014 54.816 25.0272 55.1519 23.4174C55.4003 22.2265 55.5734 21.612 56.0628 20.6529C56.3324 20.7331 56.8202 21.2456 57.0968 21.4531C57.4794 21.7399 57.8295 21.9471 58.1724 22.1708L59.8967 22.9573C61.7312 23.6425 64.1918 23.8237 66.1571 22.3751C65.3525 22.2495 62.7958 23.1369 60.3842 20.2393C59.0337 18.4309 58.6836 16.9818 58.4231 14.7224C58.5307 13.4962 58.277 12.1165 58.7448 11.0862C59.9488 10.508 60.9666 10.1255 62.0983 9.44622C64.5705 7.96232 67.1656 5.71764 68.6969 3.25858C68.7542 3.16674 68.7325 3.19685 68.7875 3.11017C68.8899 2.94868 68.7746 3.10759 68.8901 2.95641L68.8849 2.94098C68.0953 3.37104 67.0314 4.1713 66.1891 4.68184C65.2843 5.23031 64.1727 5.86803 63.1849 6.30453L63.1843 6.30477Z" fill="#0001FF" />
 <path fill-rule="evenodd" clip-rule="evenodd" d="M93.5638 20.7196L90.8563 16.1565C86.5372 20.1616 82.9737 24.2643 79.7547 28.9023L76.3725 34.1026C74.9466 36.3831 72.55 40.8919 71.6904 42.3683C71.7085 42.8569 71.7309 43.289 71.7572 43.6538C72.6575 41.696 74.9064 38.358 75.5625 37.4613C80.7966 30.3111 86.3525 25.7758 93.5638 20.7196Z" fill="#E100FE" />
 <path fill-rule="evenodd" clip-rule="evenodd" d="M88.8459 12.7815C88.0513 11.4965 87.0757 10.0348 86.4106 8.72998C82.6088 13.6997 79.6696 18.5959 77.212 24.007L74.8182 29.7298C73.7778 32.3468 72.129 37.5577 71.6198 38.9056C71.6275 39.7407 71.6405 40.5191 71.656 41.2215C72.1748 39.0597 73.4096 35.7735 73.8068 34.8272C77.5099 26.011 82.2847 20.0697 88.8459 12.7815Z" fill="#FF6300" />
 <path fill-rule="evenodd" clip-rule="evenodd" d="M81.9292 8.69977C78.5807 9.78174 75.4463 11.9842 73.5027 14.2177C72.1344 15.7899 71.6937 16.1369 71.7081 18.7778C71.7288 22.4032 71.6073 29.8665 71.6071 35.9043C71.8421 33.9062 72.2525 31.6757 72.423 30.9031C74.3014 22.3931 77.4837 16.0723 81.9292 8.69977Z" fill="#FF6300" />
 <path fill-rule="evenodd" clip-rule="evenodd" d="M0 53.7631H141V53.3454H0V53.7631Z" fill="#D76713" />
</svg>