<svg viewBox="0 0 141 94" fill="none" xmlns="http://www.w3.org/2000/svg">
 <path fill-rule="evenodd" clip-rule="evenodd" d="M9.02508 68.0678C9.02508 63.3803 9.05371 62.812 9.10995 61.9031C9.16696 60.9091 9.36588 60.3688 10.1331 60.227C10.5309 60.1421 10.8147 60.1421 11.0982 60.1135C11.496 60.1135 11.7804 60.0565 11.7804 59.8013C11.7804 59.6308 11.6103 59.5454 11.0982 59.5454C10.0761 59.5454 6.55335 59.6308 6.29821 59.6308C5.19019 59.6308 3.71288 59.5454 2.09328 59.5454C1.52495 59.5454 1.24127 59.6024 1.24127 59.8292C1.24127 60.0565 1.52495 60.1135 1.83788 60.1135C2.26355 60.1421 2.69 60.1705 2.94592 60.2554C3.65588 60.4543 3.8548 60.937 3.9113 61.7326C3.96831 62.6417 3.9968 63.1527 3.9968 67.7832V72.7831C3.9968 74.5446 3.96831 76.2486 3.9113 77.385C3.82642 79.6578 3.79777 80.1691 2.77539 80.3394C2.46246 80.3964 2.15033 80.425 1.80954 80.4534C1.41173 80.4534 1.24127 80.5383 1.24127 80.7085C1.24127 80.9647 1.46873 81.0217 1.86654 81.0217C3.42861 81.0217 4.9629 80.9361 6.29821 80.9361C9.30884 80.9361 11.9509 81.1066 15.8712 81.1066C17.0068 81.1066 17.2345 81.078 17.462 80.3394C17.7455 79.5159 18.0586 76.8167 18.0586 76.1637C18.0586 75.7659 18.03 75.624 17.8311 75.624C17.6036 75.624 17.5474 75.8516 17.462 76.1637C17.1496 77.499 16.6661 78.2376 15.9847 78.55C15.1889 78.9762 14.28 79.004 12.718 79.004C10.3595 79.004 9.81985 78.8622 9.42282 78.3225C8.93962 77.7258 9.02508 75.6803 9.02508 72.8115V68.0678ZM24.4785 75.8516C24.4785 76.3056 24.4499 77.5839 24.3653 78.7773C24.308 79.6008 24.1377 80.1118 23.3991 80.3107C23.1432 80.3964 22.8595 80.3964 22.4046 80.4534C22.0639 80.4534 21.8934 80.5669 21.8934 80.7085C21.8934 80.9077 22.0638 81.0217 22.4616 81.0217C23.7399 81.0217 26.0414 80.9361 26.8647 80.9361C27.8022 80.9361 30.1598 81.0217 32.2053 81.0217C32.6315 81.0217 32.7733 80.9077 32.7733 80.7658C32.7733 80.5669 32.6601 80.4812 32.3193 80.4534C31.8359 80.3964 31.2677 80.3964 30.7564 80.2832C29.7056 80.0843 29.6487 79.3733 29.5917 78.6633C29.5068 77.4707 29.5068 76.3056 29.5068 75.8516V73.8347C29.5068 73.4369 29.5355 72.3289 29.9609 71.1354C30.3587 69.9428 34.4211 62.9825 35.3869 61.7896C35.8983 61.1359 36.1826 60.6532 36.9777 60.341C37.3185 60.227 37.7163 60.1421 38.0855 60.1135C38.4549 60.1135 38.6537 60.0281 38.6537 59.8013C38.6537 59.6024 38.4263 59.5454 38.0855 59.5454C37.5458 59.5454 35.2166 59.6308 34.8188 59.6308C33.7394 59.6308 32.7733 59.5454 31.6086 59.5454C31.1543 59.5454 30.9841 59.6308 30.9841 59.8013C30.9841 59.9995 31.2116 60.0851 31.4667 60.1421C32.3193 60.284 32.4895 60.5399 32.4895 60.8521C32.4895 61.2215 32.3194 61.7042 32.0348 62.3009C31.4951 63.4373 29.9609 66.2776 28.2286 69.545C27.7737 68.6923 24.2227 62.3863 23.7684 61.5623C23.5695 61.1929 23.484 60.937 23.484 60.7381C23.484 60.5113 23.5981 60.227 24.3653 60.1421C24.7907 60.0564 24.9334 59.9995 24.9334 59.7727C24.9334 59.6024 24.7061 59.5454 24.3929 59.5454C22.6035 59.5454 20.8142 59.6308 20.3315 59.6308C19.2514 59.6308 17.1211 59.5454 15.9561 59.5454C15.6153 59.5454 15.3878 59.6024 15.3878 59.8013C15.3878 59.9716 15.5304 60.0851 15.8142 60.1135C16.0418 60.1421 16.3826 60.1984 16.5529 60.2554C17.462 60.5399 17.7741 60.9091 18.8543 62.5568C19.8194 64.0053 22.6319 68.6923 23.6829 70.6243C24.1663 71.5618 24.4785 72.1299 24.4785 73.6636V75.8516ZM40.642 76.8453C40.5571 79.4875 40.4147 80.1975 39.3067 80.368C38.9946 80.425 38.6251 80.425 38.3692 80.4534C37.9722 80.4534 37.8294 80.5669 37.8294 80.7372C37.8294 80.9647 38.0571 81.0217 38.4549 81.0217C39.5626 81.0217 41.6652 80.9361 42.3181 80.9361C44.0791 80.9647 44.9886 81.0217 45.9826 81.0217C46.4375 81.0217 46.6641 80.9647 46.6641 80.7372C46.6641 80.5669 46.5222 80.4812 46.0968 80.4534C45.5285 80.3964 45.0165 80.3964 44.5909 80.2545C43.7952 79.9699 43.682 79.203 43.625 77.1574L43.3413 67.4711C45.4144 69.488 48.2556 72.1586 49.846 73.6072C51.5508 75.1692 54.05 77.4136 55.982 79.1181C57.8287 80.7372 58.7091 81.4187 59.164 81.4187C59.5334 81.4187 59.7322 81.1066 59.7322 79.6578C59.8455 73.9479 59.8455 68.2667 60.0728 62.5568C60.1577 60.795 60.4422 60.3124 61.3797 60.1984C61.5786 60.1421 61.7205 60.1421 62.0897 60.1135C62.4305 60.1135 62.5723 59.9432 62.5723 59.8013C62.5723 59.6308 62.3736 59.5454 61.9481 59.5454C60.7545 59.5454 59.3342 59.6308 58.7091 59.6308C57.5727 59.6308 55.726 59.5454 54.5904 59.5454C54.2775 59.5454 54.0225 59.6308 54.0225 59.8292C54.0225 59.9716 54.1643 60.1135 54.5334 60.1135C54.9312 60.1421 55.3854 60.1705 55.7832 60.2554C56.9196 60.4543 57.0615 61.1928 57.1187 62.7835L57.2889 73.4369C56.5217 72.7545 54.562 70.8517 51.6639 68.1811C45.1592 62.2153 43.682 60.7951 42.4886 59.8013C41.75 59.2046 41.6081 59.119 41.3806 59.119C41.0398 59.119 40.9266 59.6308 40.898 60.4829C40.7277 64.1473 40.7839 70.9935 40.642 76.8453ZM67.7426 72.7831C67.7426 75.2262 67.6855 77.2431 67.6006 78.607C67.5152 79.7148 67.2316 80.2545 66.6632 80.3394C66.3511 80.3964 66.1522 80.425 65.7827 80.4534C65.4698 80.4534 65.243 80.5383 65.243 80.7372C65.243 80.8791 65.3279 81.0217 65.8106 81.0217C66.6062 81.0217 66.9755 80.9931 67.7711 80.9647C68.5667 80.9361 69.2485 80.9361 69.93 80.9361C70.4697 80.9361 71.6344 81.0218 72.7424 81.135C73.6799 81.2199 74.6459 81.2482 75.7815 81.2482C81.4914 81.2482 84.1049 79.2886 85.4975 77.8685C87.1166 76.3342 88.6222 73.5217 88.6222 70.0846C88.6222 66.7038 87.3439 64.3178 85.8954 62.869C83.3102 60.227 79.5032 59.6025 74.6459 59.5738C72.2591 59.6025 70.9808 59.6308 70.044 59.6308C68.7936 59.6308 66.1799 59.5454 65.4697 59.5454C64.987 59.5454 64.8169 59.6308 64.8169 59.8013C64.8169 59.9432 64.93 60.0851 65.3565 60.1135C65.8962 60.1705 66.1799 60.1705 66.4072 60.1984C67.4866 60.3124 67.6294 61.0796 67.6856 61.9031C67.7426 62.812 67.7426 63.6076 67.7426 67.7832V72.7831ZM72.7709 67.3292C72.7709 65.0278 72.8274 62.9825 72.7996 62.0171C72.7996 61.7612 72.8274 61.6193 73.0546 61.5053C73.3106 61.3634 73.9637 61.2785 74.5888 61.2785C76.4638 61.2785 79.1623 61.8182 81.1222 64.3748C82.3156 65.9939 83.2531 68.2951 83.2531 70.8803C83.2531 73.5501 82.8839 76.0783 81.4067 77.5553C79.9009 79.1181 78.2248 79.5445 76.2366 79.5445C74.9866 79.5445 73.8218 79.1467 73.3105 78.5214C72.9976 78.2092 72.8843 77.6409 72.8273 76.4761C72.7994 75.9364 72.7709 73.9766 72.7709 70.9652V67.3292ZM94.1615 72.7831C94.1615 74.5446 94.1331 76.2207 94.0761 77.3563C94.0199 79.1467 93.9056 80.2261 93.1108 80.3394C92.8835 80.3964 92.5989 80.425 92.2581 80.4534C91.8325 80.4534 91.6898 80.5953 91.6898 80.7372C91.6898 80.9361 91.8603 81.0217 92.3721 81.0217C93.9342 81.0217 95.1276 80.9361 96.4629 80.9361C99.4451 80.9361 101.576 81.1066 105.496 81.1066C106.547 81.1066 106.746 81.078 106.945 80.3394C107.087 79.7997 107.399 77.6409 107.399 76.5331C107.399 76.1923 107.371 75.9078 107.144 75.9078C106.974 75.9078 106.86 76.0783 106.803 76.4188C106.547 77.7257 106.207 78.3511 105.411 78.6633C104.615 78.9762 103.507 79.004 102.769 79.004C99.6155 79.004 99.2185 78.5501 99.1901 76.5615C99.1614 75.4822 99.1901 73.806 99.1901 72.8402V70.8803C99.1901 70.6527 99.2184 70.5108 99.3603 70.5108C100.241 70.5108 102.57 70.5673 103.365 70.6243C104.758 70.7092 105.155 71.1924 105.269 72.0159C105.297 72.2434 105.325 72.4424 105.354 72.6696C105.411 72.925 105.468 73.1239 105.667 73.1239C105.837 73.1239 105.922 72.9534 105.922 72.5842C105.922 72.2718 105.922 70.8802 105.951 70.2265C106.036 69.1185 106.178 68.0962 106.178 67.8119C106.178 67.6414 106.178 67.4711 106.008 67.4711C105.866 67.4711 105.78 67.5843 105.61 67.8402C105.298 68.3515 104.928 68.437 103.536 68.4934C102.514 68.5218 100.212 68.5504 99.4165 68.5218C99.2184 68.5218 99.1901 68.38 99.1901 68.1811V61.9314C99.1901 61.7325 99.2462 61.6477 99.4165 61.6477C100.269 61.6477 102.74 61.7042 103.678 61.7896C105.042 61.9031 105.411 62.2722 105.553 62.926C105.667 63.3232 105.695 63.6076 105.695 63.92C105.723 64.1759 105.837 64.3178 105.979 64.3178C106.15 64.3178 106.263 64.1473 106.263 63.92C106.348 62.4428 106.405 61.4488 106.49 60.8807C106.576 60.0565 106.632 59.7727 106.632 59.6308C106.632 59.4884 106.604 59.3749 106.462 59.3749C106.349 59.3749 106.207 59.4319 106.008 59.4884C105.723 59.5454 105.042 59.6024 104.473 59.6024C104.019 59.6024 97.0588 59.6308 96.4629 59.6308C95.2125 59.6308 93.8493 59.5454 92.2295 59.5454C91.7754 59.5454 91.6051 59.6308 91.6051 59.8013C91.6051 59.9716 91.7468 60.0851 92.1162 60.1135C92.4008 60.1421 92.7978 60.1421 93.0538 60.1984C93.7637 60.3689 94.0199 60.8521 94.0761 61.6756C94.1331 62.5847 94.1615 63.1527 94.1615 67.7832V72.7831ZM133.818 60.1984C133.733 59.4884 133.562 59.0906 133.278 59.0906C132.994 59.0906 132.767 59.3749 132.313 60.1135L124.529 73.8625L116.404 60.2554C115.808 59.3749 115.609 59.0906 115.297 59.0906C115.013 59.0906 114.814 59.3465 114.7 60.1984L112.115 77.6695C111.831 79.5445 111.547 80.1975 110.723 80.368C110.41 80.425 110.098 80.425 109.87 80.4534C109.473 80.4534 109.302 80.5669 109.302 80.7372C109.302 81.0217 109.644 81.0217 109.927 81.0217C110.978 81.0217 112.313 80.9361 113.194 80.9361C114.047 80.9361 115.609 81.0217 116.858 81.0217C117.313 81.0217 117.427 80.9361 117.427 80.7085C117.427 80.5383 117.342 80.4534 116.915 80.4534C116.546 80.425 116.291 80.3964 115.865 80.3107C115.155 80.1691 114.87 79.8283 114.87 79.004C114.87 78.5784 114.87 77.9533 114.984 76.732L115.808 68.7207C116.347 69.6869 117.597 72.0159 118.08 72.8402C119.16 74.6582 120.893 77.896 121.887 79.4875C122.682 80.7372 122.853 81.0217 123.165 81.0217C123.392 81.0217 123.563 80.8504 124.33 79.4019L130.182 68.4369L131.205 78.607C131.318 79.8853 131.29 80.0556 130.835 80.2261C130.637 80.2831 130.523 80.3964 130.523 80.5097C130.523 80.6523 130.637 80.8228 131.176 80.8504C134.414 81.0217 136.716 81.0217 139.073 81.0217C139.528 81.0217 139.755 80.9647 139.755 80.7372C139.755 80.5383 139.585 80.4534 139.215 80.4534C138.846 80.425 138.164 80.368 137.596 80.1975C136.659 79.9137 136.375 79.2029 136.147 77.3563L133.818 60.1984Z" fill="white" />
 <mask id="path-2-outside-1_1062_267" maskUnits="userSpaceOnUse" x="13.9277" y="85.1653" width="113" height="9" fill="black">
  <rect fill="white" x="13.9277" y="85.1653" width="113" height="9" />
  <path fill-rule="evenodd" clip-rule="evenodd" d="M15.6674 90.239C15.6674 90.9947 15.6598 91.4276 15.6495 91.7588C15.6314 92.395 15.5222 92.5134 15.3437 92.5565C15.2846 92.5746 15.2333 92.5745 15.1484 92.5823C15.0974 92.59 15.0551 92.6081 15.0551 92.6334C15.0551 92.6847 15.0973 92.7015 15.1909 92.7015C15.4118 92.7092 15.6151 92.6757 15.8192 92.6757C16.1497 92.6757 16.5403 92.6937 16.8803 92.7015C17.2108 92.7092 17.4909 92.7273 18.119 92.7273C18.4503 92.7273 18.5177 92.7273 18.5776 92.5065C18.6199 92.3279 18.6879 91.7511 18.6879 91.6829C18.6879 91.6239 18.6878 91.5558 18.6368 91.5558C18.5942 91.5558 18.5775 91.5893 18.5607 91.6829C18.4926 92.048 18.399 92.2263 18.1279 92.3111C17.8983 92.3792 17.618 92.3873 17.3634 92.3873C17.0322 92.3873 16.8034 92.3692 16.6594 92.3111C16.4473 92.2263 16.3961 92.0398 16.3793 91.6918C16.3715 91.5135 16.3793 90.529 16.3793 90.2401V89.4935C16.3793 89.4592 16.3948 89.4344 16.4386 89.4344C16.5826 89.4344 17.4227 89.4525 17.6523 89.4767C17.9573 89.5103 18.0597 89.629 18.0932 89.7569C18.119 89.833 18.1279 89.9176 18.1279 89.9945C18.1279 90.0618 18.1356 90.1297 18.1869 90.1297C18.2207 90.1297 18.2375 90.0873 18.2463 90.0025C18.254 89.8841 18.254 89.6888 18.2806 89.4256C18.3064 89.1455 18.3478 89.0015 18.3478 88.9502C18.3478 88.8991 18.3299 88.8821 18.3056 88.8821C18.2718 88.8821 18.2462 88.9166 18.2039 88.9669C18.119 89.0686 18.0086 89.0944 17.7796 89.1112C17.5845 89.1292 16.5402 89.1292 16.4298 89.1292C16.3873 89.1292 16.3793 89.1034 16.3793 89.0443V86.7014C16.3793 86.642 16.3947 86.6165 16.4298 86.6165C16.5232 86.6165 17.4483 86.6242 17.5925 86.6423C17.9661 86.6766 18.1446 86.7615 18.2039 86.9567C18.2297 87.0241 18.2463 87.1265 18.2463 87.2369C18.2463 87.304 18.2617 87.3466 18.3143 87.3466C18.3478 87.3466 18.3734 87.2873 18.3822 87.2024C18.3976 86.9816 18.408 86.8208 18.416 86.6936C18.4315 86.4558 18.4839 86.3542 18.4839 86.2943C18.4839 86.2518 18.4761 86.2182 18.4503 86.2182C18.4245 86.2182 18.4077 86.2259 18.3566 86.2517C18.3056 86.2775 18.1527 86.2943 17.9662 86.3031C17.7709 86.3108 16.0823 86.3108 16.0225 86.3108C15.4879 86.285 15.2589 86.285 15.0639 86.285C14.9702 86.285 14.9277 86.303 14.9277 86.3528C14.9277 86.3866 14.979 86.3954 15.0381 86.4034C15.1142 86.4112 15.2245 86.4111 15.2846 86.4292C15.5645 86.4885 15.6319 86.6245 15.6495 86.9134C15.6675 87.1846 15.6674 87.4224 15.6674 88.7459V90.239ZM24.7721 90.239C24.7721 91.0538 24.7722 91.7245 24.7296 92.0813C24.6953 92.3269 24.653 92.5134 24.4832 92.5477C24.4071 92.5658 24.3392 92.5736 24.2456 92.5816C24.1775 92.5816 24.1607 92.6073 24.1607 92.6326C24.1607 92.6839 24.203 92.7007 24.2966 92.7007C24.4238 92.7007 24.6191 92.6826 24.7888 92.6826C24.9671 92.6749 25.1114 92.6749 25.1282 92.6749C25.1707 92.6749 25.4594 92.7007 25.8333 92.726C26.198 92.7518 26.6476 92.7766 27.0126 92.7766C28.4555 92.7766 29.2189 92.1827 29.5839 91.8009C30.0591 91.2999 30.5008 90.4767 30.5008 89.4074C30.5008 88.3976 30.1017 87.6926 29.6773 87.2517C28.6676 86.2074 27.1144 86.2842 26.2741 86.2842C25.7651 86.2842 25.2306 86.3101 25.1282 86.3101C25.0858 86.3101 24.5514 86.2842 24.1695 86.2842C24.0759 86.2842 24.0335 86.3023 24.0335 86.3521C24.0335 86.3859 24.0678 86.4027 24.1269 86.4027C24.203 86.4027 24.3479 86.4104 24.415 86.4285C24.6952 86.4878 24.7376 86.6237 24.7551 86.9127C24.7732 87.1838 24.7731 87.4216 24.7731 88.7451L24.7721 90.239ZM25.485 88.6099C25.485 87.9562 25.4849 87.0902 25.4927 86.8023C25.4927 86.7086 25.5185 86.6661 25.5949 86.6325C25.6622 86.5982 25.9767 86.5726 26.1464 86.5726C27.1562 86.5726 28.1238 86.6919 28.9215 87.5321C29.2698 87.8969 29.7362 88.5932 29.7362 89.6702C29.7362 90.4511 29.4985 91.2658 29.0574 91.6987C28.5566 92.1997 27.8268 92.4887 27.0377 92.4887C26.0359 92.4887 25.7053 92.3101 25.5949 92.1486C25.527 92.0558 25.5103 91.7163 25.5015 91.5037C25.4937 91.3427 25.4834 90.5615 25.4834 89.6622L25.485 88.6099ZM36.9911 88.7451C36.9911 87.4216 36.9911 87.1838 37.0092 86.9127C37.0247 86.615 37.094 86.462 37.3228 86.4285C37.4245 86.413 37.4756 86.4027 37.5349 86.4027C37.5692 86.4027 37.6028 86.3846 37.6028 86.3521C37.6028 86.301 37.5604 86.2842 37.4668 86.2842C37.2124 86.2842 36.7034 86.3101 36.6266 86.3101C36.5505 86.3101 36.0327 86.2842 35.6511 86.2842C35.5575 86.2842 35.5152 86.3023 35.5152 86.3521C35.5152 86.3859 35.5488 86.4027 35.5831 86.4027C35.6592 86.4027 35.8039 86.4104 35.8712 86.4285C36.1514 86.4878 36.2192 86.6237 36.2367 86.9127C36.2548 87.1838 36.2548 87.4216 36.2548 88.7451V89.9847C36.2548 91.2235 36.5773 91.8179 36.9927 92.2165C37.595 92.7856 38.453 92.8191 38.7409 92.8191C39.2419 92.8191 39.8781 92.7342 40.4895 92.1909C41.1688 91.5883 41.2705 90.5706 41.2705 89.6535V88.7451C41.2705 87.4216 41.2705 87.1838 41.2886 86.9127C41.3041 86.615 41.3731 86.4798 41.6027 86.4285C41.7046 86.413 41.755 86.4027 41.8151 86.4027C41.8487 86.4027 41.8821 86.3846 41.8821 86.3521C41.8821 86.301 41.8398 86.2842 41.747 86.2842C41.4923 86.2842 41.0932 86.3101 41.0338 86.3101C40.9827 86.3101 40.5161 86.2842 40.1346 86.2842C40.0409 86.2842 39.9984 86.3023 39.9984 86.3521C39.9984 86.3859 40.0321 86.4027 40.0664 86.4027C40.1425 86.4027 40.2874 86.4104 40.3547 86.4285C40.6346 86.4878 40.7026 86.6237 40.7194 86.9127C40.7374 87.1838 40.7375 87.4216 40.7375 88.7451V89.8062C40.7375 90.681 40.635 91.402 40.2454 91.886C39.9397 92.251 39.43 92.4966 38.9122 92.4966C38.4288 92.4966 38.0473 92.4206 37.6311 92.03C37.2661 91.682 36.9942 91.1561 36.9942 89.9336L36.9911 88.7451ZM49.6605 86.6492C50.0165 86.657 50.3735 86.657 50.7295 86.6673C51.5442 86.6854 51.7484 86.8794 51.7739 87.134C51.7739 87.1684 51.7816 87.1939 51.7816 87.2277C51.7894 87.3461 51.8073 87.3717 51.8497 87.3717C51.884 87.3717 51.9095 87.3381 51.9095 87.2612C51.9095 87.1683 51.9353 86.5827 51.9353 86.3281C51.9353 86.277 51.9354 86.2257 51.8928 86.2257C51.8593 86.2257 51.7824 86.2515 51.6552 86.2683C51.52 86.2941 51.3248 86.3105 51.0526 86.3105H47.87C47.7684 86.3105 47.446 86.2951 47.1996 86.2683C46.9705 86.2502 46.8856 86.1666 46.8266 86.1666C46.7923 86.1666 46.7585 86.277 46.7409 86.3281C46.7254 86.3962 46.5545 87.126 46.5545 87.2107C46.5545 87.2612 46.5725 87.2867 46.597 87.2867C46.6313 87.2867 46.6561 87.2712 46.6819 87.2018C46.7077 87.1428 46.7329 87.0834 46.8266 86.9387C46.9617 86.7354 47.1659 86.6761 47.6916 86.6673C48.1078 86.6596 48.5319 86.6596 48.948 86.6492V90.239C48.948 91.0538 48.948 91.7245 48.9057 92.0813C48.8719 92.3269 48.8296 92.5134 48.6591 92.5477C48.5832 92.5658 48.4815 92.5816 48.4046 92.5816C48.3541 92.5816 48.3366 92.6073 48.3366 92.6326C48.3366 92.6839 48.3791 92.7007 48.4728 92.7007C48.7272 92.7007 49.2616 92.6749 49.3042 92.6749C49.3473 92.6749 49.8818 92.7007 50.3484 92.7007C50.4418 92.7007 50.4845 92.6749 50.4845 92.6326C50.4845 92.6068 50.4689 92.5816 50.4163 92.5816C50.3397 92.5816 50.1533 92.5634 50.0346 92.5477C49.7795 92.5134 49.7291 92.3269 49.7033 92.0813C49.661 91.7245 49.661 91.0538 49.661 90.239L49.6605 86.6492ZM59.6645 90.1968C59.7068 90.1968 59.7238 90.2148 59.7405 90.2479L60.5302 92.3357C60.5807 92.4711 60.5302 92.5478 60.4792 92.5648C60.4454 92.5725 60.4198 92.5906 60.4198 92.6238C60.4198 92.6752 60.5134 92.6751 60.6744 92.6839C61.26 92.702 61.8795 92.702 62.0067 92.702C62.1003 92.702 62.1764 92.684 62.1764 92.6339C62.1764 92.5916 62.1341 92.5828 62.0835 92.5828C62.0154 92.5828 61.8794 92.5751 61.7522 92.5323C61.5737 92.4812 61.3281 92.3452 61.0224 91.5896C60.5046 90.2997 59.1722 86.7947 59.045 86.472C58.9434 86.2089 58.909 86.1666 58.8577 86.1666C58.8074 86.1666 58.7729 86.2177 58.6712 86.4978L56.7452 91.7681C56.5925 92.1922 56.4226 92.5147 56.0321 92.5661C55.9642 92.5738 55.8873 92.5841 55.828 92.5841C55.7522 92.5841 55.7096 92.6022 55.7096 92.6352C55.7096 92.6865 55.7601 92.7033 55.8705 92.7033C56.2696 92.7033 56.7364 92.6775 56.8301 92.6775C56.9229 92.6775 57.2629 92.7033 57.4662 92.7033C57.5431 92.7033 57.6189 92.6852 57.6189 92.6352C57.6189 92.6016 57.5932 92.5841 57.5086 92.5841C57.4828 92.5841 57.4574 92.5841 57.4327 92.5841C57.2877 92.5841 57.1269 92.508 57.1269 92.3382C57.1269 92.1855 57.1692 91.9814 57.2453 91.7694L57.7551 90.2675C57.7706 90.2249 57.7974 90.1994 57.8397 90.1994L59.6645 90.1968ZM57.9326 89.8911C57.9068 89.8911 57.8903 89.873 57.9068 89.8319L58.6534 87.5401C58.696 87.4129 58.7384 87.4129 58.7807 87.5401L59.5873 89.8319C59.5951 89.8655 59.595 89.8911 59.553 89.8911H57.9326ZM67.5045 90.239C67.5045 91.0538 67.5044 91.7245 67.4621 92.0813C67.4278 92.3269 67.3773 92.5222 67.2075 92.5565C67.1309 92.5746 67.0379 92.5823 66.9866 92.5823C66.91 92.5823 66.8931 92.6081 66.8931 92.6334C66.8931 92.6847 66.9356 92.7015 67.0293 92.7015C67.2836 92.7015 67.8181 92.6757 67.8607 92.6757C67.903 92.6757 68.4463 92.7015 68.913 92.7015C69.0066 92.7015 69.041 92.6757 69.041 92.6334C69.041 92.6076 69.0152 92.5823 68.9386 92.5823C68.8881 92.5823 68.7097 92.5642 68.5905 92.5485C68.3359 92.5142 68.2856 92.3277 68.2598 92.0821C68.2175 91.7253 68.2175 91.0545 68.2175 90.2398V88.7459C68.2175 87.4224 68.2176 87.1846 68.2331 86.9134C68.2511 86.6157 68.3179 86.4715 68.5467 86.4292C68.6491 86.4137 68.6997 86.4034 68.7596 86.4034C68.7931 86.4034 68.8268 86.3853 68.8268 86.3528C68.8268 86.3017 68.7843 86.285 68.6914 86.285C68.437 86.285 67.9017 86.3108 67.8594 86.3108C67.8168 86.3108 67.2824 86.285 67.0022 86.285C66.9088 86.285 66.8662 86.303 66.8662 86.3528C66.8662 86.3866 66.9005 86.4034 66.9343 86.4034C66.9942 86.4034 67.1038 86.4112 67.1974 86.4378C67.384 86.4803 67.4688 86.6243 67.4864 86.9132C67.5044 87.1843 67.5045 87.4222 67.5045 88.7456V90.239ZM75.0746 91.4531C75.0746 92.2253 75.0322 92.4711 74.8202 92.5309C74.693 92.5735 74.54 92.5816 74.4722 92.5816C74.4296 92.5816 74.4042 92.5996 74.4042 92.6326C74.4042 92.6919 74.4552 92.7007 74.5401 92.7007C74.9219 92.7007 75.2779 92.6749 75.3563 92.6749C75.4324 92.6749 75.7716 92.7007 76.2543 92.7007C76.356 92.7007 76.407 92.6826 76.407 92.6326C76.407 92.599 76.3813 92.5816 76.339 92.5816C76.2632 92.5816 76.0774 92.5738 75.9164 92.5309C75.6868 92.4631 75.6019 92.2422 75.5851 91.546L75.4747 87.4808C75.7466 87.7865 76.704 88.8555 77.6877 89.9166C78.5857 90.8843 79.8062 92.1316 79.8996 92.2165C80.3495 92.6664 80.4525 92.7598 80.5206 92.7598C80.58 92.7598 80.5967 92.7174 80.5967 92.1574L80.6148 87.2006C80.6148 86.615 80.6738 86.4878 80.9116 86.4372C81.0133 86.4192 81.0644 86.4114 81.1325 86.4029C81.1916 86.3951 81.2254 86.3771 81.2254 86.3435C81.2254 86.2924 81.166 86.2845 81.0724 86.2845C80.7251 86.2845 80.4451 86.3103 80.3501 86.3103C80.2565 86.3103 79.8491 86.2845 79.4688 86.2845C79.3672 86.2845 79.2991 86.2922 79.2991 86.3435C79.2991 86.3773 79.3248 86.4029 79.4176 86.4029C79.4943 86.4029 79.6282 86.4107 79.7809 86.4452C80.0443 86.5134 80.1034 86.6998 80.1122 87.2519L80.2059 91.5635C79.934 91.2833 79.0103 90.2478 78.1714 89.3478C76.866 87.9474 75.6024 86.5814 75.4752 86.4372C75.3903 86.3523 75.2449 86.1653 75.1768 86.1653C75.109 86.1653 75.0834 86.2587 75.0834 86.5894C75.0912 88.2361 75.0756 87.1327 75.0756 90.1968L75.0746 91.4531ZM93.2509 86.3949C93.2328 86.2332 93.2083 86.1653 93.149 86.1653C93.0899 86.1653 93.0555 86.2244 93.0218 86.3012L90.5267 91.6309L87.9292 86.2925C87.8867 86.1996 87.8531 86.1653 87.802 86.1653C87.7507 86.1653 87.7172 86.2419 87.7085 86.3348L87.0978 91.8517C87.0553 92.1997 87.0384 92.5054 86.7585 92.5565C86.6303 92.5823 86.5712 92.5823 86.5031 92.5823C86.4608 92.5823 86.4183 92.6003 86.4183 92.6334C86.4183 92.6927 86.4784 92.7015 86.5633 92.7015C86.7921 92.7015 87.1995 92.6757 87.2761 92.6757C87.3434 92.6757 87.7763 92.7015 88.0908 92.7015C88.1757 92.7015 88.218 92.6834 88.218 92.6246C88.218 92.5988 88.1836 92.5823 88.1333 92.5823C88.082 92.5823 87.9716 92.5823 87.8277 92.5485C87.7005 92.5227 87.5987 92.4551 87.5987 92.243C87.5987 92.0988 87.6066 91.9797 87.6143 91.8445L87.9623 87.8465C88.0552 88.0761 89.0314 90.172 89.1075 90.3247C89.1498 90.4096 89.8804 91.878 90.1007 92.2941C90.2622 92.5998 90.3045 92.6847 90.3638 92.6847C90.4407 92.6847 90.4654 92.6079 90.644 92.234L92.7486 87.7704L93.1559 92.2005C93.174 92.3535 93.1816 92.4807 93.1221 92.5062C93.0797 92.5217 93.063 92.532 93.063 92.5655C93.063 92.6078 93.1053 92.6334 93.3006 92.6501C93.6143 92.6759 94.5818 92.7015 94.7691 92.7015C94.8707 92.7015 94.8963 92.6834 94.8963 92.6334C94.8963 92.5911 94.8452 92.5823 94.8026 92.5823C94.7177 92.5823 94.5227 92.5823 94.2761 92.5062C93.9113 92.387 93.852 91.9115 93.8185 91.6066L93.2509 86.3949ZM100.53 90.239C100.53 90.9947 100.523 91.4276 100.515 91.7588C100.497 92.395 100.388 92.5134 100.209 92.5565C100.15 92.5746 100.099 92.5745 100.014 92.5823C99.9629 92.59 99.9206 92.6081 99.9206 92.6334C99.9206 92.6847 99.963 92.7015 100.057 92.7015C100.278 92.7092 100.481 92.6757 100.685 92.6757C101.015 92.6757 101.406 92.6937 101.746 92.7015C102.076 92.7092 102.357 92.7273 102.985 92.7273C103.316 92.7273 103.383 92.7273 103.443 92.5065C103.486 92.3279 103.554 91.7511 103.554 91.6829C103.554 91.6239 103.554 91.5558 103.503 91.5558C103.46 91.5558 103.443 91.5893 103.426 91.6829C103.358 92.048 103.265 92.2263 102.993 92.3111C102.764 92.3792 102.484 92.3873 102.229 92.3873C101.898 92.3873 101.669 92.3692 101.525 92.3111C101.313 92.2263 101.262 92.0398 101.245 91.6918C101.237 91.5135 101.245 90.529 101.245 90.2401V89.4935C101.245 89.4592 101.263 89.4344 101.304 89.4344C101.448 89.4344 102.288 89.4525 102.518 89.4767C102.823 89.5103 102.925 89.629 102.959 89.7569C102.985 89.833 102.993 89.9176 102.993 89.9945C102.993 90.0618 103.001 90.1297 103.052 90.1297C103.086 90.1297 103.103 90.0873 103.112 90.0025C103.12 89.8841 103.12 89.6888 103.146 89.4256C103.172 89.1455 103.214 89.0015 103.214 88.9502C103.214 88.8991 103.198 88.8821 103.171 88.8821C103.137 88.8821 103.112 88.9166 103.07 88.9669C102.985 89.0686 102.874 89.0944 102.645 89.1112C102.45 89.1292 101.406 89.1292 101.295 89.1292C101.253 89.1292 101.245 89.1034 101.245 89.0443V86.7014C101.245 86.642 101.263 86.6165 101.295 86.6165C101.389 86.6165 102.314 86.6242 102.458 86.6423C102.832 86.6766 103.01 86.7615 103.07 86.9567C103.095 87.0241 103.112 87.1265 103.112 87.2369C103.112 87.304 103.13 87.3466 103.18 87.3466C103.214 87.3466 103.239 87.2873 103.248 87.2024C103.263 86.9816 103.274 86.8208 103.282 86.6936C103.297 86.4558 103.349 86.3542 103.349 86.2943C103.349 86.2518 103.342 86.2182 103.316 86.2182C103.29 86.2182 103.273 86.2259 103.222 86.2517C103.171 86.2775 103.018 86.2943 102.832 86.3031C102.637 86.3108 100.948 86.3108 100.888 86.3108C100.354 86.285 100.125 86.285 99.9295 86.285C99.8358 86.285 99.7933 86.303 99.7933 86.3528C99.7933 86.3866 99.8446 86.3954 99.9036 86.4034C99.9797 86.4112 100.09 86.4111 100.15 86.4292C100.43 86.4885 100.498 86.6245 100.515 86.9134C100.531 87.1846 100.53 87.4224 100.53 88.7459V90.239ZM109.544 91.4531C109.544 92.2253 109.501 92.4711 109.289 92.5309C109.162 92.5735 109.009 92.5816 108.941 92.5816C108.899 92.5816 108.873 92.5996 108.873 92.6326C108.873 92.6919 108.924 92.7007 109.009 92.7007C109.391 92.7007 109.747 92.6749 109.825 92.6749C109.901 92.6749 110.241 92.7007 110.723 92.7007C110.825 92.7007 110.876 92.6826 110.876 92.6326C110.876 92.599 110.85 92.5816 110.808 92.5816C110.732 92.5816 110.546 92.5738 110.385 92.5309C110.156 92.4631 110.071 92.2422 110.054 91.546L109.944 87.4808C110.216 87.7865 111.173 88.8555 112.157 89.9166C113.055 90.8843 114.275 92.1316 114.369 92.2165C114.818 92.6664 114.921 92.7598 114.99 92.7598C115.049 92.7598 115.066 92.7174 115.066 92.1574L115.084 87.2006C115.084 86.615 115.143 86.4878 115.381 86.4372C115.482 86.4192 115.533 86.4114 115.601 86.4029C115.661 86.3951 115.694 86.3771 115.694 86.3435C115.694 86.2924 115.635 86.2845 115.541 86.2845C115.194 86.2845 114.914 86.3103 114.819 86.3103C114.725 86.3103 114.318 86.2845 113.938 86.2845C113.836 86.2845 113.768 86.2922 113.768 86.3435C113.768 86.3773 113.794 86.4029 113.887 86.4029C113.963 86.4029 114.097 86.4107 114.25 86.4452C114.513 86.5134 114.572 86.6998 114.581 87.2519L114.675 91.5635C114.403 91.2833 113.479 90.2478 112.64 89.3478C111.335 87.9474 110.071 86.5814 109.944 86.4372C109.859 86.3523 109.714 86.1653 109.646 86.1653C109.578 86.1653 109.552 86.2587 109.552 86.5894C109.56 88.2361 109.545 87.1327 109.545 90.1968L109.544 91.4531ZM123.782 86.6492C124.138 86.657 124.495 86.657 124.851 86.6673C125.666 86.6854 125.87 86.8794 125.895 87.134C125.895 87.1684 125.903 87.1939 125.903 87.2277C125.911 87.3461 125.929 87.3717 125.971 87.3717C126.005 87.3717 126.031 87.3381 126.031 87.2612C126.031 87.1683 126.057 86.5827 126.057 86.3281C126.057 86.277 126.057 86.2257 126.014 86.2257C125.98 86.2257 125.904 86.2515 125.776 86.2683C125.641 86.2941 125.446 86.3105 125.174 86.3105H121.991C121.89 86.3105 121.567 86.2951 121.321 86.2683C121.092 86.2502 121.007 86.1666 120.948 86.1666C120.913 86.1666 120.88 86.277 120.862 86.3281C120.847 86.3962 120.676 87.126 120.676 87.2107C120.676 87.2612 120.694 87.2867 120.718 87.2867C120.753 87.2867 120.777 87.2712 120.803 87.2018C120.829 87.1428 120.854 87.0834 120.948 86.9387C121.083 86.7354 121.287 86.6761 121.813 86.6673C122.229 86.6596 122.653 86.6596 123.069 86.6492V90.239C123.069 91.0538 123.069 91.7245 123.027 92.0813C122.993 92.3269 122.951 92.5134 122.781 92.5477C122.705 92.5658 122.603 92.5816 122.526 92.5816C122.475 92.5816 122.458 92.6073 122.458 92.6326C122.458 92.6839 122.5 92.7007 122.594 92.7007C122.848 92.7007 123.383 92.6749 123.426 92.6749C123.469 92.6749 124.003 92.7007 124.47 92.7007C124.563 92.7007 124.606 92.6749 124.606 92.6326C124.606 92.6068 124.59 92.5816 124.538 92.5816C124.461 92.5816 124.275 92.5634 124.156 92.5477C123.901 92.5134 123.85 92.3269 123.825 92.0813C123.782 91.7245 123.782 91.0538 123.782 90.239L123.782 86.6492Z" />
 </mask>
 <path fill-rule="evenodd" clip-rule="evenodd" d="M15.6674 90.239C15.6674 90.9947 15.6598 91.4276 15.6495 91.7588C15.6314 92.395 15.5222 92.5134 15.3437 92.5565C15.2846 92.5746 15.2333 92.5745 15.1484 92.5823C15.0974 92.59 15.0551 92.6081 15.0551 92.6334C15.0551 92.6847 15.0973 92.7015 15.1909 92.7015C15.4118 92.7092 15.6151 92.6757 15.8192 92.6757C16.1497 92.6757 16.5403 92.6937 16.8803 92.7015C17.2108 92.7092 17.4909 92.7273 18.119 92.7273C18.4503 92.7273 18.5177 92.7273 18.5776 92.5065C18.6199 92.3279 18.6879 91.7511 18.6879 91.6829C18.6879 91.6239 18.6878 91.5558 18.6368 91.5558C18.5942 91.5558 18.5775 91.5893 18.5607 91.6829C18.4926 92.048 18.399 92.2263 18.1279 92.3111C17.8983 92.3792 17.618 92.3873 17.3634 92.3873C17.0322 92.3873 16.8034 92.3692 16.6594 92.3111C16.4473 92.2263 16.3961 92.0398 16.3793 91.6918C16.3715 91.5135 16.3793 90.529 16.3793 90.2401V89.4935C16.3793 89.4592 16.3948 89.4344 16.4386 89.4344C16.5826 89.4344 17.4227 89.4525 17.6523 89.4767C17.9573 89.5103 18.0597 89.629 18.0932 89.7569C18.119 89.833 18.1279 89.9176 18.1279 89.9945C18.1279 90.0618 18.1356 90.1297 18.1869 90.1297C18.2207 90.1297 18.2375 90.0873 18.2463 90.0025C18.254 89.8841 18.254 89.6888 18.2806 89.4256C18.3064 89.1455 18.3478 89.0015 18.3478 88.9502C18.3478 88.8991 18.3299 88.8821 18.3056 88.8821C18.2718 88.8821 18.2462 88.9166 18.2039 88.9669C18.119 89.0686 18.0086 89.0944 17.7796 89.1112C17.5845 89.1292 16.5402 89.1292 16.4298 89.1292C16.3873 89.1292 16.3793 89.1034 16.3793 89.0443V86.7014C16.3793 86.642 16.3947 86.6165 16.4298 86.6165C16.5232 86.6165 17.4483 86.6242 17.5925 86.6423C17.9661 86.6766 18.1446 86.7615 18.2039 86.9567C18.2297 87.0241 18.2463 87.1265 18.2463 87.2369C18.2463 87.304 18.2617 87.3466 18.3143 87.3466C18.3478 87.3466 18.3734 87.2873 18.3822 87.2024C18.3976 86.9816 18.408 86.8208 18.416 86.6936C18.4315 86.4558 18.4839 86.3542 18.4839 86.2943C18.4839 86.2518 18.4761 86.2182 18.4503 86.2182C18.4245 86.2182 18.4077 86.2259 18.3566 86.2517C18.3056 86.2775 18.1527 86.2943 17.9662 86.3031C17.7709 86.3108 16.0823 86.3108 16.0225 86.3108C15.4879 86.285 15.2589 86.285 15.0639 86.285C14.9702 86.285 14.9277 86.303 14.9277 86.3528C14.9277 86.3866 14.979 86.3954 15.0381 86.4034C15.1142 86.4112 15.2245 86.4111 15.2846 86.4292C15.5645 86.4885 15.6319 86.6245 15.6495 86.9134C15.6675 87.1846 15.6674 87.4224 15.6674 88.7459V90.239ZM24.7721 90.239C24.7721 91.0538 24.7722 91.7245 24.7296 92.0813C24.6953 92.3269 24.653 92.5134 24.4832 92.5477C24.4071 92.5658 24.3392 92.5736 24.2456 92.5816C24.1775 92.5816 24.1607 92.6073 24.1607 92.6326C24.1607 92.6839 24.203 92.7007 24.2966 92.7007C24.4238 92.7007 24.6191 92.6826 24.7888 92.6826C24.9671 92.6749 25.1114 92.6749 25.1282 92.6749C25.1707 92.6749 25.4594 92.7007 25.8333 92.726C26.198 92.7518 26.6476 92.7766 27.0126 92.7766C28.4555 92.7766 29.2189 92.1827 29.5839 91.8009C30.0591 91.2999 30.5008 90.4767 30.5008 89.4074C30.5008 88.3976 30.1017 87.6926 29.6773 87.2517C28.6676 86.2074 27.1144 86.2842 26.2741 86.2842C25.7651 86.2842 25.2306 86.3101 25.1282 86.3101C25.0858 86.3101 24.5514 86.2842 24.1695 86.2842C24.0759 86.2842 24.0335 86.3023 24.0335 86.3521C24.0335 86.3859 24.0678 86.4027 24.1269 86.4027C24.203 86.4027 24.3479 86.4104 24.415 86.4285C24.6952 86.4878 24.7376 86.6237 24.7551 86.9127C24.7732 87.1838 24.7731 87.4216 24.7731 88.7451L24.7721 90.239ZM25.485 88.6099C25.485 87.9562 25.4849 87.0902 25.4927 86.8023C25.4927 86.7086 25.5185 86.6661 25.5949 86.6325C25.6622 86.5982 25.9767 86.5726 26.1464 86.5726C27.1562 86.5726 28.1238 86.6919 28.9215 87.5321C29.2698 87.8969 29.7362 88.5932 29.7362 89.6702C29.7362 90.4511 29.4985 91.2658 29.0574 91.6987C28.5566 92.1997 27.8268 92.4887 27.0377 92.4887C26.0359 92.4887 25.7053 92.3101 25.5949 92.1486C25.527 92.0558 25.5103 91.7163 25.5015 91.5037C25.4937 91.3427 25.4834 90.5615 25.4834 89.6622L25.485 88.6099ZM36.9911 88.7451C36.9911 87.4216 36.9911 87.1838 37.0092 86.9127C37.0247 86.615 37.094 86.462 37.3228 86.4285C37.4245 86.413 37.4756 86.4027 37.5349 86.4027C37.5692 86.4027 37.6028 86.3846 37.6028 86.3521C37.6028 86.301 37.5604 86.2842 37.4668 86.2842C37.2124 86.2842 36.7034 86.3101 36.6266 86.3101C36.5505 86.3101 36.0327 86.2842 35.6511 86.2842C35.5575 86.2842 35.5152 86.3023 35.5152 86.3521C35.5152 86.3859 35.5488 86.4027 35.5831 86.4027C35.6592 86.4027 35.8039 86.4104 35.8712 86.4285C36.1514 86.4878 36.2192 86.6237 36.2367 86.9127C36.2548 87.1838 36.2548 87.4216 36.2548 88.7451V89.9847C36.2548 91.2235 36.5773 91.8179 36.9927 92.2165C37.595 92.7856 38.453 92.8191 38.7409 92.8191C39.2419 92.8191 39.8781 92.7342 40.4895 92.1909C41.1688 91.5883 41.2705 90.5706 41.2705 89.6535V88.7451C41.2705 87.4216 41.2705 87.1838 41.2886 86.9127C41.3041 86.615 41.3731 86.4798 41.6027 86.4285C41.7046 86.413 41.755 86.4027 41.8151 86.4027C41.8487 86.4027 41.8821 86.3846 41.8821 86.3521C41.8821 86.301 41.8398 86.2842 41.747 86.2842C41.4923 86.2842 41.0932 86.3101 41.0338 86.3101C40.9827 86.3101 40.5161 86.2842 40.1346 86.2842C40.0409 86.2842 39.9984 86.3023 39.9984 86.3521C39.9984 86.3859 40.0321 86.4027 40.0664 86.4027C40.1425 86.4027 40.2874 86.4104 40.3547 86.4285C40.6346 86.4878 40.7026 86.6237 40.7194 86.9127C40.7374 87.1838 40.7375 87.4216 40.7375 88.7451V89.8062C40.7375 90.681 40.635 91.402 40.2454 91.886C39.9397 92.251 39.43 92.4966 38.9122 92.4966C38.4288 92.4966 38.0473 92.4206 37.6311 92.03C37.2661 91.682 36.9942 91.1561 36.9942 89.9336L36.9911 88.7451ZM49.6605 86.6492C50.0165 86.657 50.3735 86.657 50.7295 86.6673C51.5442 86.6854 51.7484 86.8794 51.7739 87.134C51.7739 87.1684 51.7816 87.1939 51.7816 87.2277C51.7894 87.3461 51.8073 87.3717 51.8497 87.3717C51.884 87.3717 51.9095 87.3381 51.9095 87.2612C51.9095 87.1683 51.9353 86.5827 51.9353 86.3281C51.9353 86.277 51.9354 86.2257 51.8928 86.2257C51.8593 86.2257 51.7824 86.2515 51.6552 86.2683C51.52 86.2941 51.3248 86.3105 51.0526 86.3105H47.87C47.7684 86.3105 47.446 86.2951 47.1996 86.2683C46.9705 86.2502 46.8856 86.1666 46.8266 86.1666C46.7923 86.1666 46.7585 86.277 46.7409 86.3281C46.7254 86.3962 46.5545 87.126 46.5545 87.2107C46.5545 87.2612 46.5725 87.2867 46.597 87.2867C46.6313 87.2867 46.6561 87.2712 46.6819 87.2018C46.7077 87.1428 46.7329 87.0834 46.8266 86.9387C46.9617 86.7354 47.1659 86.6761 47.6916 86.6673C48.1078 86.6596 48.5319 86.6596 48.948 86.6492V90.239C48.948 91.0538 48.948 91.7245 48.9057 92.0813C48.8719 92.3269 48.8296 92.5134 48.6591 92.5477C48.5832 92.5658 48.4815 92.5816 48.4046 92.5816C48.3541 92.5816 48.3366 92.6073 48.3366 92.6326C48.3366 92.6839 48.3791 92.7007 48.4728 92.7007C48.7272 92.7007 49.2616 92.6749 49.3042 92.6749C49.3473 92.6749 49.8818 92.7007 50.3484 92.7007C50.4418 92.7007 50.4845 92.6749 50.4845 92.6326C50.4845 92.6068 50.4689 92.5816 50.4163 92.5816C50.3397 92.5816 50.1533 92.5634 50.0346 92.5477C49.7795 92.5134 49.7291 92.3269 49.7033 92.0813C49.661 91.7245 49.661 91.0538 49.661 90.239L49.6605 86.6492ZM59.6645 90.1968C59.7068 90.1968 59.7238 90.2148 59.7405 90.2479L60.5302 92.3357C60.5807 92.4711 60.5302 92.5478 60.4792 92.5648C60.4454 92.5725 60.4198 92.5906 60.4198 92.6238C60.4198 92.6752 60.5134 92.6751 60.6744 92.6839C61.26 92.702 61.8795 92.702 62.0067 92.702C62.1003 92.702 62.1764 92.684 62.1764 92.6339C62.1764 92.5916 62.1341 92.5828 62.0835 92.5828C62.0154 92.5828 61.8794 92.5751 61.7522 92.5323C61.5737 92.4812 61.3281 92.3452 61.0224 91.5896C60.5046 90.2997 59.1722 86.7947 59.045 86.472C58.9434 86.2089 58.909 86.1666 58.8577 86.1666C58.8074 86.1666 58.7729 86.2177 58.6712 86.4978L56.7452 91.7681C56.5925 92.1922 56.4226 92.5147 56.0321 92.5661C55.9642 92.5738 55.8873 92.5841 55.828 92.5841C55.7522 92.5841 55.7096 92.6022 55.7096 92.6352C55.7096 92.6865 55.7601 92.7033 55.8705 92.7033C56.2696 92.7033 56.7364 92.6775 56.8301 92.6775C56.9229 92.6775 57.2629 92.7033 57.4662 92.7033C57.5431 92.7033 57.6189 92.6852 57.6189 92.6352C57.6189 92.6016 57.5932 92.5841 57.5086 92.5841C57.4828 92.5841 57.4574 92.5841 57.4327 92.5841C57.2877 92.5841 57.1269 92.508 57.1269 92.3382C57.1269 92.1855 57.1692 91.9814 57.2453 91.7694L57.7551 90.2675C57.7706 90.2249 57.7974 90.1994 57.8397 90.1994L59.6645 90.1968ZM57.9326 89.8911C57.9068 89.8911 57.8903 89.873 57.9068 89.8319L58.6534 87.5401C58.696 87.4129 58.7384 87.4129 58.7807 87.5401L59.5873 89.8319C59.5951 89.8655 59.595 89.8911 59.553 89.8911H57.9326ZM67.5045 90.239C67.5045 91.0538 67.5044 91.7245 67.4621 92.0813C67.4278 92.3269 67.3773 92.5222 67.2075 92.5565C67.1309 92.5746 67.0379 92.5823 66.9866 92.5823C66.91 92.5823 66.8931 92.6081 66.8931 92.6334C66.8931 92.6847 66.9356 92.7015 67.0293 92.7015C67.2836 92.7015 67.8181 92.6757 67.8607 92.6757C67.903 92.6757 68.4463 92.7015 68.913 92.7015C69.0066 92.7015 69.041 92.6757 69.041 92.6334C69.041 92.6076 69.0152 92.5823 68.9386 92.5823C68.8881 92.5823 68.7097 92.5642 68.5905 92.5485C68.3359 92.5142 68.2856 92.3277 68.2598 92.0821C68.2175 91.7253 68.2175 91.0545 68.2175 90.2398V88.7459C68.2175 87.4224 68.2176 87.1846 68.2331 86.9134C68.2511 86.6157 68.3179 86.4715 68.5467 86.4292C68.6491 86.4137 68.6997 86.4034 68.7596 86.4034C68.7931 86.4034 68.8268 86.3853 68.8268 86.3528C68.8268 86.3017 68.7843 86.285 68.6914 86.285C68.437 86.285 67.9017 86.3108 67.8594 86.3108C67.8168 86.3108 67.2824 86.285 67.0022 86.285C66.9088 86.285 66.8662 86.303 66.8662 86.3528C66.8662 86.3866 66.9005 86.4034 66.9343 86.4034C66.9942 86.4034 67.1038 86.4112 67.1974 86.4378C67.384 86.4803 67.4688 86.6243 67.4864 86.9132C67.5044 87.1843 67.5045 87.4222 67.5045 88.7456V90.239ZM75.0746 91.4531C75.0746 92.2253 75.0322 92.4711 74.8202 92.5309C74.693 92.5735 74.54 92.5816 74.4722 92.5816C74.4296 92.5816 74.4042 92.5996 74.4042 92.6326C74.4042 92.6919 74.4552 92.7007 74.5401 92.7007C74.9219 92.7007 75.2779 92.6749 75.3563 92.6749C75.4324 92.6749 75.7716 92.7007 76.2543 92.7007C76.356 92.7007 76.407 92.6826 76.407 92.6326C76.407 92.599 76.3813 92.5816 76.339 92.5816C76.2632 92.5816 76.0774 92.5738 75.9164 92.5309C75.6868 92.4631 75.6019 92.2422 75.5851 91.546L75.4747 87.4808C75.7466 87.7865 76.704 88.8555 77.6877 89.9166C78.5857 90.8843 79.8062 92.1316 79.8996 92.2165C80.3495 92.6664 80.4525 92.7598 80.5206 92.7598C80.58 92.7598 80.5967 92.7174 80.5967 92.1574L80.6148 87.2006C80.6148 86.615 80.6738 86.4878 80.9116 86.4372C81.0133 86.4192 81.0644 86.4114 81.1325 86.4029C81.1916 86.3951 81.2254 86.3771 81.2254 86.3435C81.2254 86.2924 81.166 86.2845 81.0724 86.2845C80.7251 86.2845 80.4451 86.3103 80.3501 86.3103C80.2565 86.3103 79.8491 86.2845 79.4688 86.2845C79.3672 86.2845 79.2991 86.2922 79.2991 86.3435C79.2991 86.3773 79.3248 86.4029 79.4176 86.4029C79.4943 86.4029 79.6282 86.4107 79.7809 86.4452C80.0443 86.5134 80.1034 86.6998 80.1122 87.2519L80.2059 91.5635C79.934 91.2833 79.0103 90.2478 78.1714 89.3478C76.866 87.9474 75.6024 86.5814 75.4752 86.4372C75.3903 86.3523 75.2449 86.1653 75.1768 86.1653C75.109 86.1653 75.0834 86.2587 75.0834 86.5894C75.0912 88.2361 75.0756 87.1327 75.0756 90.1968L75.0746 91.4531ZM93.2509 86.3949C93.2328 86.2332 93.2083 86.1653 93.149 86.1653C93.0899 86.1653 93.0555 86.2244 93.0218 86.3012L90.5267 91.6309L87.9292 86.2925C87.8867 86.1996 87.8531 86.1653 87.802 86.1653C87.7507 86.1653 87.7172 86.2419 87.7085 86.3348L87.0978 91.8517C87.0553 92.1997 87.0384 92.5054 86.7585 92.5565C86.6303 92.5823 86.5712 92.5823 86.5031 92.5823C86.4608 92.5823 86.4183 92.6003 86.4183 92.6334C86.4183 92.6927 86.4784 92.7015 86.5633 92.7015C86.7921 92.7015 87.1995 92.6757 87.2761 92.6757C87.3434 92.6757 87.7763 92.7015 88.0908 92.7015C88.1757 92.7015 88.218 92.6834 88.218 92.6246C88.218 92.5988 88.1836 92.5823 88.1333 92.5823C88.082 92.5823 87.9716 92.5823 87.8277 92.5485C87.7005 92.5227 87.5987 92.4551 87.5987 92.243C87.5987 92.0988 87.6066 91.9797 87.6143 91.8445L87.9623 87.8465C88.0552 88.0761 89.0314 90.172 89.1075 90.3247C89.1498 90.4096 89.8804 91.878 90.1007 92.2941C90.2622 92.5998 90.3045 92.6847 90.3638 92.6847C90.4407 92.6847 90.4654 92.6079 90.644 92.234L92.7486 87.7704L93.1559 92.2005C93.174 92.3535 93.1816 92.4807 93.1221 92.5062C93.0797 92.5217 93.063 92.532 93.063 92.5655C93.063 92.6078 93.1053 92.6334 93.3006 92.6501C93.6143 92.6759 94.5818 92.7015 94.7691 92.7015C94.8707 92.7015 94.8963 92.6834 94.8963 92.6334C94.8963 92.5911 94.8452 92.5823 94.8026 92.5823C94.7177 92.5823 94.5227 92.5823 94.2761 92.5062C93.9113 92.387 93.852 91.9115 93.8185 91.6066L93.2509 86.3949ZM100.53 90.239C100.53 90.9947 100.523 91.4276 100.515 91.7588C100.497 92.395 100.388 92.5134 100.209 92.5565C100.15 92.5746 100.099 92.5745 100.014 92.5823C99.9629 92.59 99.9206 92.6081 99.9206 92.6334C99.9206 92.6847 99.963 92.7015 100.057 92.7015C100.278 92.7092 100.481 92.6757 100.685 92.6757C101.015 92.6757 101.406 92.6937 101.746 92.7015C102.076 92.7092 102.357 92.7273 102.985 92.7273C103.316 92.7273 103.383 92.7273 103.443 92.5065C103.486 92.3279 103.554 91.7511 103.554 91.6829C103.554 91.6239 103.554 91.5558 103.503 91.5558C103.46 91.5558 103.443 91.5893 103.426 91.6829C103.358 92.048 103.265 92.2263 102.993 92.3111C102.764 92.3792 102.484 92.3873 102.229 92.3873C101.898 92.3873 101.669 92.3692 101.525 92.3111C101.313 92.2263 101.262 92.0398 101.245 91.6918C101.237 91.5135 101.245 90.529 101.245 90.2401V89.4935C101.245 89.4592 101.263 89.4344 101.304 89.4344C101.448 89.4344 102.288 89.4525 102.518 89.4767C102.823 89.5103 102.925 89.629 102.959 89.7569C102.985 89.833 102.993 89.9176 102.993 89.9945C102.993 90.0618 103.001 90.1297 103.052 90.1297C103.086 90.1297 103.103 90.0873 103.112 90.0025C103.12 89.8841 103.12 89.6888 103.146 89.4256C103.172 89.1455 103.214 89.0015 103.214 88.9502C103.214 88.8991 103.198 88.8821 103.171 88.8821C103.137 88.8821 103.112 88.9166 103.07 88.9669C102.985 89.0686 102.874 89.0944 102.645 89.1112C102.45 89.1292 101.406 89.1292 101.295 89.1292C101.253 89.1292 101.245 89.1034 101.245 89.0443V86.7014C101.245 86.642 101.263 86.6165 101.295 86.6165C101.389 86.6165 102.314 86.6242 102.458 86.6423C102.832 86.6766 103.01 86.7615 103.07 86.9567C103.095 87.0241 103.112 87.1265 103.112 87.2369C103.112 87.304 103.13 87.3466 103.18 87.3466C103.214 87.3466 103.239 87.2873 103.248 87.2024C103.263 86.9816 103.274 86.8208 103.282 86.6936C103.297 86.4558 103.349 86.3542 103.349 86.2943C103.349 86.2518 103.342 86.2182 103.316 86.2182C103.29 86.2182 103.273 86.2259 103.222 86.2517C103.171 86.2775 103.018 86.2943 102.832 86.3031C102.637 86.3108 100.948 86.3108 100.888 86.3108C100.354 86.285 100.125 86.285 99.9295 86.285C99.8358 86.285 99.7933 86.303 99.7933 86.3528C99.7933 86.3866 99.8446 86.3954 99.9036 86.4034C99.9797 86.4112 100.09 86.4111 100.15 86.4292C100.43 86.4885 100.498 86.6245 100.515 86.9134C100.531 87.1846 100.53 87.4224 100.53 88.7459V90.239ZM109.544 91.4531C109.544 92.2253 109.501 92.4711 109.289 92.5309C109.162 92.5735 109.009 92.5816 108.941 92.5816C108.899 92.5816 108.873 92.5996 108.873 92.6326C108.873 92.6919 108.924 92.7007 109.009 92.7007C109.391 92.7007 109.747 92.6749 109.825 92.6749C109.901 92.6749 110.241 92.7007 110.723 92.7007C110.825 92.7007 110.876 92.6826 110.876 92.6326C110.876 92.599 110.85 92.5816 110.808 92.5816C110.732 92.5816 110.546 92.5738 110.385 92.5309C110.156 92.4631 110.071 92.2422 110.054 91.546L109.944 87.4808C110.216 87.7865 111.173 88.8555 112.157 89.9166C113.055 90.8843 114.275 92.1316 114.369 92.2165C114.818 92.6664 114.921 92.7598 114.99 92.7598C115.049 92.7598 115.066 92.7174 115.066 92.1574L115.084 87.2006C115.084 86.615 115.143 86.4878 115.381 86.4372C115.482 86.4192 115.533 86.4114 115.601 86.4029C115.661 86.3951 115.694 86.3771 115.694 86.3435C115.694 86.2924 115.635 86.2845 115.541 86.2845C115.194 86.2845 114.914 86.3103 114.819 86.3103C114.725 86.3103 114.318 86.2845 113.938 86.2845C113.836 86.2845 113.768 86.2922 113.768 86.3435C113.768 86.3773 113.794 86.4029 113.887 86.4029C113.963 86.4029 114.097 86.4107 114.25 86.4452C114.513 86.5134 114.572 86.6998 114.581 87.2519L114.675 91.5635C114.403 91.2833 113.479 90.2478 112.64 89.3478C111.335 87.9474 110.071 86.5814 109.944 86.4372C109.859 86.3523 109.714 86.1653 109.646 86.1653C109.578 86.1653 109.552 86.2587 109.552 86.5894C109.56 88.2361 109.545 87.1327 109.545 90.1968L109.544 91.4531ZM123.782 86.6492C124.138 86.657 124.495 86.657 124.851 86.6673C125.666 86.6854 125.87 86.8794 125.895 87.134C125.895 87.1684 125.903 87.1939 125.903 87.2277C125.911 87.3461 125.929 87.3717 125.971 87.3717C126.005 87.3717 126.031 87.3381 126.031 87.2612C126.031 87.1683 126.057 86.5827 126.057 86.3281C126.057 86.277 126.057 86.2257 126.014 86.2257C125.98 86.2257 125.904 86.2515 125.776 86.2683C125.641 86.2941 125.446 86.3105 125.174 86.3105H121.991C121.89 86.3105 121.567 86.2951 121.321 86.2683C121.092 86.2502 121.007 86.1666 120.948 86.1666C120.913 86.1666 120.88 86.277 120.862 86.3281C120.847 86.3962 120.676 87.126 120.676 87.2107C120.676 87.2612 120.694 87.2867 120.718 87.2867C120.753 87.2867 120.777 87.2712 120.803 87.2018C120.829 87.1428 120.854 87.0834 120.948 86.9387C121.083 86.7354 121.287 86.6761 121.813 86.6673C122.229 86.6596 122.653 86.6596 123.069 86.6492V90.239C123.069 91.0538 123.069 91.7245 123.027 92.0813C122.993 92.3269 122.951 92.5134 122.781 92.5477C122.705 92.5658 122.603 92.5816 122.526 92.5816C122.475 92.5816 122.458 92.6073 122.458 92.6326C122.458 92.6839 122.5 92.7007 122.594 92.7007C122.848 92.7007 123.383 92.6749 123.426 92.6749C123.469 92.6749 124.003 92.7007 124.47 92.7007C124.563 92.7007 124.606 92.6749 124.606 92.6326C124.606 92.6068 124.59 92.5816 124.538 92.5816C124.461 92.5816 124.275 92.5634 124.156 92.5477C123.901 92.5134 123.85 92.3269 123.825 92.0813C123.782 91.7245 123.782 91.0538 123.782 90.239L123.782 86.6492Z" fill="white" />
 <path fill-rule="evenodd" clip-rule="evenodd" d="M15.6674 90.239C15.6674 90.9947 15.6598 91.4276 15.6495 91.7588C15.6314 92.395 15.5222 92.5134 15.3437 92.5565C15.2846 92.5746 15.2333 92.5745 15.1484 92.5823C15.0974 92.59 15.0551 92.6081 15.0551 92.6334C15.0551 92.6847 15.0973 92.7015 15.1909 92.7015C15.4118 92.7092 15.6151 92.6757 15.8192 92.6757C16.1497 92.6757 16.5403 92.6937 16.8803 92.7015C17.2108 92.7092 17.4909 92.7273 18.119 92.7273C18.4503 92.7273 18.5177 92.7273 18.5776 92.5065C18.6199 92.3279 18.6879 91.7511 18.6879 91.6829C18.6879 91.6239 18.6878 91.5558 18.6368 91.5558C18.5942 91.5558 18.5775 91.5893 18.5607 91.6829C18.4926 92.048 18.399 92.2263 18.1279 92.3111C17.8983 92.3792 17.618 92.3873 17.3634 92.3873C17.0322 92.3873 16.8034 92.3692 16.6594 92.3111C16.4473 92.2263 16.3961 92.0398 16.3793 91.6918C16.3715 91.5135 16.3793 90.529 16.3793 90.2401V89.4935C16.3793 89.4592 16.3948 89.4344 16.4386 89.4344C16.5826 89.4344 17.4227 89.4525 17.6523 89.4767C17.9573 89.5103 18.0597 89.629 18.0932 89.7569C18.119 89.833 18.1279 89.9176 18.1279 89.9945C18.1279 90.0618 18.1356 90.1297 18.1869 90.1297C18.2207 90.1297 18.2375 90.0873 18.2463 90.0025C18.254 89.8841 18.254 89.6888 18.2806 89.4256C18.3064 89.1455 18.3478 89.0015 18.3478 88.9502C18.3478 88.8991 18.3299 88.8821 18.3056 88.8821C18.2718 88.8821 18.2462 88.9166 18.2039 88.9669C18.119 89.0686 18.0086 89.0944 17.7796 89.1112C17.5845 89.1292 16.5402 89.1292 16.4298 89.1292C16.3873 89.1292 16.3793 89.1034 16.3793 89.0443V86.7014C16.3793 86.642 16.3947 86.6165 16.4298 86.6165C16.5232 86.6165 17.4483 86.6242 17.5925 86.6423C17.9661 86.6766 18.1446 86.7615 18.2039 86.9567C18.2297 87.0241 18.2463 87.1265 18.2463 87.2369C18.2463 87.304 18.2617 87.3466 18.3143 87.3466C18.3478 87.3466 18.3734 87.2873 18.3822 87.2024C18.3976 86.9816 18.408 86.8208 18.416 86.6936C18.4315 86.4558 18.4839 86.3542 18.4839 86.2943C18.4839 86.2518 18.4761 86.2182 18.4503 86.2182C18.4245 86.2182 18.4077 86.2259 18.3566 86.2517C18.3056 86.2775 18.1527 86.2943 17.9662 86.3031C17.7709 86.3108 16.0823 86.3108 16.0225 86.3108C15.4879 86.285 15.2589 86.285 15.0639 86.285C14.9702 86.285 14.9277 86.303 14.9277 86.3528C14.9277 86.3866 14.979 86.3954 15.0381 86.4034C15.1142 86.4112 15.2245 86.4111 15.2846 86.4292C15.5645 86.4885 15.6319 86.6245 15.6495 86.9134C15.6675 87.1846 15.6674 87.4224 15.6674 88.7459V90.239ZM24.7721 90.239C24.7721 91.0538 24.7722 91.7245 24.7296 92.0813C24.6953 92.3269 24.653 92.5134 24.4832 92.5477C24.4071 92.5658 24.3392 92.5736 24.2456 92.5816C24.1775 92.5816 24.1607 92.6073 24.1607 92.6326C24.1607 92.6839 24.203 92.7007 24.2966 92.7007C24.4238 92.7007 24.6191 92.6826 24.7888 92.6826C24.9671 92.6749 25.1114 92.6749 25.1282 92.6749C25.1707 92.6749 25.4594 92.7007 25.8333 92.726C26.198 92.7518 26.6476 92.7766 27.0126 92.7766C28.4555 92.7766 29.2189 92.1827 29.5839 91.8009C30.0591 91.2999 30.5008 90.4767 30.5008 89.4074C30.5008 88.3976 30.1017 87.6926 29.6773 87.2517C28.6676 86.2074 27.1144 86.2842 26.2741 86.2842C25.7651 86.2842 25.2306 86.3101 25.1282 86.3101C25.0858 86.3101 24.5514 86.2842 24.1695 86.2842C24.0759 86.2842 24.0335 86.3023 24.0335 86.3521C24.0335 86.3859 24.0678 86.4027 24.1269 86.4027C24.203 86.4027 24.3479 86.4104 24.415 86.4285C24.6952 86.4878 24.7376 86.6237 24.7551 86.9127C24.7732 87.1838 24.7731 87.4216 24.7731 88.7451L24.7721 90.239ZM25.485 88.6099C25.485 87.9562 25.4849 87.0902 25.4927 86.8023C25.4927 86.7086 25.5185 86.6661 25.5949 86.6325C25.6622 86.5982 25.9767 86.5726 26.1464 86.5726C27.1562 86.5726 28.1238 86.6919 28.9215 87.5321C29.2698 87.8969 29.7362 88.5932 29.7362 89.6702C29.7362 90.4511 29.4985 91.2658 29.0574 91.6987C28.5566 92.1997 27.8268 92.4887 27.0377 92.4887C26.0359 92.4887 25.7053 92.3101 25.5949 92.1486C25.527 92.0558 25.5103 91.7163 25.5015 91.5037C25.4937 91.3427 25.4834 90.5615 25.4834 89.6622L25.485 88.6099ZM36.9911 88.7451C36.9911 87.4216 36.9911 87.1838 37.0092 86.9127C37.0247 86.615 37.094 86.462 37.3228 86.4285C37.4245 86.413 37.4756 86.4027 37.5349 86.4027C37.5692 86.4027 37.6028 86.3846 37.6028 86.3521C37.6028 86.301 37.5604 86.2842 37.4668 86.2842C37.2124 86.2842 36.7034 86.3101 36.6266 86.3101C36.5505 86.3101 36.0327 86.2842 35.6511 86.2842C35.5575 86.2842 35.5152 86.3023 35.5152 86.3521C35.5152 86.3859 35.5488 86.4027 35.5831 86.4027C35.6592 86.4027 35.8039 86.4104 35.8712 86.4285C36.1514 86.4878 36.2192 86.6237 36.2367 86.9127C36.2548 87.1838 36.2548 87.4216 36.2548 88.7451V89.9847C36.2548 91.2235 36.5773 91.8179 36.9927 92.2165C37.595 92.7856 38.453 92.8191 38.7409 92.8191C39.2419 92.8191 39.8781 92.7342 40.4895 92.1909C41.1688 91.5883 41.2705 90.5706 41.2705 89.6535V88.7451C41.2705 87.4216 41.2705 87.1838 41.2886 86.9127C41.3041 86.615 41.3731 86.4798 41.6027 86.4285C41.7046 86.413 41.755 86.4027 41.8151 86.4027C41.8487 86.4027 41.8821 86.3846 41.8821 86.3521C41.8821 86.301 41.8398 86.2842 41.747 86.2842C41.4923 86.2842 41.0932 86.3101 41.0338 86.3101C40.9827 86.3101 40.5161 86.2842 40.1346 86.2842C40.0409 86.2842 39.9984 86.3023 39.9984 86.3521C39.9984 86.3859 40.0321 86.4027 40.0664 86.4027C40.1425 86.4027 40.2874 86.4104 40.3547 86.4285C40.6346 86.4878 40.7026 86.6237 40.7194 86.9127C40.7374 87.1838 40.7375 87.4216 40.7375 88.7451V89.8062C40.7375 90.681 40.635 91.402 40.2454 91.886C39.9397 92.251 39.43 92.4966 38.9122 92.4966C38.4288 92.4966 38.0473 92.4206 37.6311 92.03C37.2661 91.682 36.9942 91.1561 36.9942 89.9336L36.9911 88.7451ZM49.6605 86.6492C50.0165 86.657 50.3735 86.657 50.7295 86.6673C51.5442 86.6854 51.7484 86.8794 51.7739 87.134C51.7739 87.1684 51.7816 87.1939 51.7816 87.2277C51.7894 87.3461 51.8073 87.3717 51.8497 87.3717C51.884 87.3717 51.9095 87.3381 51.9095 87.2612C51.9095 87.1683 51.9353 86.5827 51.9353 86.3281C51.9353 86.277 51.9354 86.2257 51.8928 86.2257C51.8593 86.2257 51.7824 86.2515 51.6552 86.2683C51.52 86.2941 51.3248 86.3105 51.0526 86.3105H47.87C47.7684 86.3105 47.446 86.2951 47.1996 86.2683C46.9705 86.2502 46.8856 86.1666 46.8266 86.1666C46.7923 86.1666 46.7585 86.277 46.7409 86.3281C46.7254 86.3962 46.5545 87.126 46.5545 87.2107C46.5545 87.2612 46.5725 87.2867 46.597 87.2867C46.6313 87.2867 46.6561 87.2712 46.6819 87.2018C46.7077 87.1428 46.7329 87.0834 46.8266 86.9387C46.9617 86.7354 47.1659 86.6761 47.6916 86.6673C48.1078 86.6596 48.5319 86.6596 48.948 86.6492V90.239C48.948 91.0538 48.948 91.7245 48.9057 92.0813C48.8719 92.3269 48.8296 92.5134 48.6591 92.5477C48.5832 92.5658 48.4815 92.5816 48.4046 92.5816C48.3541 92.5816 48.3366 92.6073 48.3366 92.6326C48.3366 92.6839 48.3791 92.7007 48.4728 92.7007C48.7272 92.7007 49.2616 92.6749 49.3042 92.6749C49.3473 92.6749 49.8818 92.7007 50.3484 92.7007C50.4418 92.7007 50.4845 92.6749 50.4845 92.6326C50.4845 92.6068 50.4689 92.5816 50.4163 92.5816C50.3397 92.5816 50.1533 92.5634 50.0346 92.5477C49.7795 92.5134 49.7291 92.3269 49.7033 92.0813C49.661 91.7245 49.661 91.0538 49.661 90.239L49.6605 86.6492ZM59.6645 90.1968C59.7068 90.1968 59.7238 90.2148 59.7405 90.2479L60.5302 92.3357C60.5807 92.4711 60.5302 92.5478 60.4792 92.5648C60.4454 92.5725 60.4198 92.5906 60.4198 92.6238C60.4198 92.6752 60.5134 92.6751 60.6744 92.6839C61.26 92.702 61.8795 92.702 62.0067 92.702C62.1003 92.702 62.1764 92.684 62.1764 92.6339C62.1764 92.5916 62.1341 92.5828 62.0835 92.5828C62.0154 92.5828 61.8794 92.5751 61.7522 92.5323C61.5737 92.4812 61.3281 92.3452 61.0224 91.5896C60.5046 90.2997 59.1722 86.7947 59.045 86.472C58.9434 86.2089 58.909 86.1666 58.8577 86.1666C58.8074 86.1666 58.7729 86.2177 58.6712 86.4978L56.7452 91.7681C56.5925 92.1922 56.4226 92.5147 56.0321 92.5661C55.9642 92.5738 55.8873 92.5841 55.828 92.5841C55.7522 92.5841 55.7096 92.6022 55.7096 92.6352C55.7096 92.6865 55.7601 92.7033 55.8705 92.7033C56.2696 92.7033 56.7364 92.6775 56.8301 92.6775C56.9229 92.6775 57.2629 92.7033 57.4662 92.7033C57.5431 92.7033 57.6189 92.6852 57.6189 92.6352C57.6189 92.6016 57.5932 92.5841 57.5086 92.5841C57.4828 92.5841 57.4574 92.5841 57.4327 92.5841C57.2877 92.5841 57.1269 92.508 57.1269 92.3382C57.1269 92.1855 57.1692 91.9814 57.2453 91.7694L57.7551 90.2675C57.7706 90.2249 57.7974 90.1994 57.8397 90.1994L59.6645 90.1968ZM57.9326 89.8911C57.9068 89.8911 57.8903 89.873 57.9068 89.8319L58.6534 87.5401C58.696 87.4129 58.7384 87.4129 58.7807 87.5401L59.5873 89.8319C59.5951 89.8655 59.595 89.8911 59.553 89.8911H57.9326ZM67.5045 90.239C67.5045 91.0538 67.5044 91.7245 67.4621 92.0813C67.4278 92.3269 67.3773 92.5222 67.2075 92.5565C67.1309 92.5746 67.0379 92.5823 66.9866 92.5823C66.91 92.5823 66.8931 92.6081 66.8931 92.6334C66.8931 92.6847 66.9356 92.7015 67.0293 92.7015C67.2836 92.7015 67.8181 92.6757 67.8607 92.6757C67.903 92.6757 68.4463 92.7015 68.913 92.7015C69.0066 92.7015 69.041 92.6757 69.041 92.6334C69.041 92.6076 69.0152 92.5823 68.9386 92.5823C68.8881 92.5823 68.7097 92.5642 68.5905 92.5485C68.3359 92.5142 68.2856 92.3277 68.2598 92.0821C68.2175 91.7253 68.2175 91.0545 68.2175 90.2398V88.7459C68.2175 87.4224 68.2176 87.1846 68.2331 86.9134C68.2511 86.6157 68.3179 86.4715 68.5467 86.4292C68.6491 86.4137 68.6997 86.4034 68.7596 86.4034C68.7931 86.4034 68.8268 86.3853 68.8268 86.3528C68.8268 86.3017 68.7843 86.285 68.6914 86.285C68.437 86.285 67.9017 86.3108 67.8594 86.3108C67.8168 86.3108 67.2824 86.285 67.0022 86.285C66.9088 86.285 66.8662 86.303 66.8662 86.3528C66.8662 86.3866 66.9005 86.4034 66.9343 86.4034C66.9942 86.4034 67.1038 86.4112 67.1974 86.4378C67.384 86.4803 67.4688 86.6243 67.4864 86.9132C67.5044 87.1843 67.5045 87.4222 67.5045 88.7456V90.239ZM75.0746 91.4531C75.0746 92.2253 75.0322 92.4711 74.8202 92.5309C74.693 92.5735 74.54 92.5816 74.4722 92.5816C74.4296 92.5816 74.4042 92.5996 74.4042 92.6326C74.4042 92.6919 74.4552 92.7007 74.5401 92.7007C74.9219 92.7007 75.2779 92.6749 75.3563 92.6749C75.4324 92.6749 75.7716 92.7007 76.2543 92.7007C76.356 92.7007 76.407 92.6826 76.407 92.6326C76.407 92.599 76.3813 92.5816 76.339 92.5816C76.2632 92.5816 76.0774 92.5738 75.9164 92.5309C75.6868 92.4631 75.6019 92.2422 75.5851 91.546L75.4747 87.4808C75.7466 87.7865 76.704 88.8555 77.6877 89.9166C78.5857 90.8843 79.8062 92.1316 79.8996 92.2165C80.3495 92.6664 80.4525 92.7598 80.5206 92.7598C80.58 92.7598 80.5967 92.7174 80.5967 92.1574L80.6148 87.2006C80.6148 86.615 80.6738 86.4878 80.9116 86.4372C81.0133 86.4192 81.0644 86.4114 81.1325 86.4029C81.1916 86.3951 81.2254 86.3771 81.2254 86.3435C81.2254 86.2924 81.166 86.2845 81.0724 86.2845C80.7251 86.2845 80.4451 86.3103 80.3501 86.3103C80.2565 86.3103 79.8491 86.2845 79.4688 86.2845C79.3672 86.2845 79.2991 86.2922 79.2991 86.3435C79.2991 86.3773 79.3248 86.4029 79.4176 86.4029C79.4943 86.4029 79.6282 86.4107 79.7809 86.4452C80.0443 86.5134 80.1034 86.6998 80.1122 87.2519L80.2059 91.5635C79.934 91.2833 79.0103 90.2478 78.1714 89.3478C76.866 87.9474 75.6024 86.5814 75.4752 86.4372C75.3903 86.3523 75.2449 86.1653 75.1768 86.1653C75.109 86.1653 75.0834 86.2587 75.0834 86.5894C75.0912 88.2361 75.0756 87.1327 75.0756 90.1968L75.0746 91.4531ZM93.2509 86.3949C93.2328 86.2332 93.2083 86.1653 93.149 86.1653C93.0899 86.1653 93.0555 86.2244 93.0218 86.3012L90.5267 91.6309L87.9292 86.2925C87.8867 86.1996 87.8531 86.1653 87.802 86.1653C87.7507 86.1653 87.7172 86.2419 87.7085 86.3348L87.0978 91.8517C87.0553 92.1997 87.0384 92.5054 86.7585 92.5565C86.6303 92.5823 86.5712 92.5823 86.5031 92.5823C86.4608 92.5823 86.4183 92.6003 86.4183 92.6334C86.4183 92.6927 86.4784 92.7015 86.5633 92.7015C86.7921 92.7015 87.1995 92.6757 87.2761 92.6757C87.3434 92.6757 87.7763 92.7015 88.0908 92.7015C88.1757 92.7015 88.218 92.6834 88.218 92.6246C88.218 92.5988 88.1836 92.5823 88.1333 92.5823C88.082 92.5823 87.9716 92.5823 87.8277 92.5485C87.7005 92.5227 87.5987 92.4551 87.5987 92.243C87.5987 92.0988 87.6066 91.9797 87.6143 91.8445L87.9623 87.8465C88.0552 88.0761 89.0314 90.172 89.1075 90.3247C89.1498 90.4096 89.8804 91.878 90.1007 92.2941C90.2622 92.5998 90.3045 92.6847 90.3638 92.6847C90.4407 92.6847 90.4654 92.6079 90.644 92.234L92.7486 87.7704L93.1559 92.2005C93.174 92.3535 93.1816 92.4807 93.1221 92.5062C93.0797 92.5217 93.063 92.532 93.063 92.5655C93.063 92.6078 93.1053 92.6334 93.3006 92.6501C93.6143 92.6759 94.5818 92.7015 94.7691 92.7015C94.8707 92.7015 94.8963 92.6834 94.8963 92.6334C94.8963 92.5911 94.8452 92.5823 94.8026 92.5823C94.7177 92.5823 94.5227 92.5823 94.2761 92.5062C93.9113 92.387 93.852 91.9115 93.8185 91.6066L93.2509 86.3949ZM100.53 90.239C100.53 90.9947 100.523 91.4276 100.515 91.7588C100.497 92.395 100.388 92.5134 100.209 92.5565C100.15 92.5746 100.099 92.5745 100.014 92.5823C99.9629 92.59 99.9206 92.6081 99.9206 92.6334C99.9206 92.6847 99.963 92.7015 100.057 92.7015C100.278 92.7092 100.481 92.6757 100.685 92.6757C101.015 92.6757 101.406 92.6937 101.746 92.7015C102.076 92.7092 102.357 92.7273 102.985 92.7273C103.316 92.7273 103.383 92.7273 103.443 92.5065C103.486 92.3279 103.554 91.7511 103.554 91.6829C103.554 91.6239 103.554 91.5558 103.503 91.5558C103.46 91.5558 103.443 91.5893 103.426 91.6829C103.358 92.048 103.265 92.2263 102.993 92.3111C102.764 92.3792 102.484 92.3873 102.229 92.3873C101.898 92.3873 101.669 92.3692 101.525 92.3111C101.313 92.2263 101.262 92.0398 101.245 91.6918C101.237 91.5135 101.245 90.529 101.245 90.2401V89.4935C101.245 89.4592 101.263 89.4344 101.304 89.4344C101.448 89.4344 102.288 89.4525 102.518 89.4767C102.823 89.5103 102.925 89.629 102.959 89.7569C102.985 89.833 102.993 89.9176 102.993 89.9945C102.993 90.0618 103.001 90.1297 103.052 90.1297C103.086 90.1297 103.103 90.0873 103.112 90.0025C103.12 89.8841 103.12 89.6888 103.146 89.4256C103.172 89.1455 103.214 89.0015 103.214 88.9502C103.214 88.8991 103.198 88.8821 103.171 88.8821C103.137 88.8821 103.112 88.9166 103.07 88.9669C102.985 89.0686 102.874 89.0944 102.645 89.1112C102.45 89.1292 101.406 89.1292 101.295 89.1292C101.253 89.1292 101.245 89.1034 101.245 89.0443V86.7014C101.245 86.642 101.263 86.6165 101.295 86.6165C101.389 86.6165 102.314 86.6242 102.458 86.6423C102.832 86.6766 103.01 86.7615 103.07 86.9567C103.095 87.0241 103.112 87.1265 103.112 87.2369C103.112 87.304 103.13 87.3466 103.18 87.3466C103.214 87.3466 103.239 87.2873 103.248 87.2024C103.263 86.9816 103.274 86.8208 103.282 86.6936C103.297 86.4558 103.349 86.3542 103.349 86.2943C103.349 86.2518 103.342 86.2182 103.316 86.2182C103.29 86.2182 103.273 86.2259 103.222 86.2517C103.171 86.2775 103.018 86.2943 102.832 86.3031C102.637 86.3108 100.948 86.3108 100.888 86.3108C100.354 86.285 100.125 86.285 99.9295 86.285C99.8358 86.285 99.7933 86.303 99.7933 86.3528C99.7933 86.3866 99.8446 86.3954 99.9036 86.4034C99.9797 86.4112 100.09 86.4111 100.15 86.4292C100.43 86.4885 100.498 86.6245 100.515 86.9134C100.531 87.1846 100.53 87.4224 100.53 88.7459V90.239ZM109.544 91.4531C109.544 92.2253 109.501 92.4711 109.289 92.5309C109.162 92.5735 109.009 92.5816 108.941 92.5816C108.899 92.5816 108.873 92.5996 108.873 92.6326C108.873 92.6919 108.924 92.7007 109.009 92.7007C109.391 92.7007 109.747 92.6749 109.825 92.6749C109.901 92.6749 110.241 92.7007 110.723 92.7007C110.825 92.7007 110.876 92.6826 110.876 92.6326C110.876 92.599 110.85 92.5816 110.808 92.5816C110.732 92.5816 110.546 92.5738 110.385 92.5309C110.156 92.4631 110.071 92.2422 110.054 91.546L109.944 87.4808C110.216 87.7865 111.173 88.8555 112.157 89.9166C113.055 90.8843 114.275 92.1316 114.369 92.2165C114.818 92.6664 114.921 92.7598 114.99 92.7598C115.049 92.7598 115.066 92.7174 115.066 92.1574L115.084 87.2006C115.084 86.615 115.143 86.4878 115.381 86.4372C115.482 86.4192 115.533 86.4114 115.601 86.4029C115.661 86.3951 115.694 86.3771 115.694 86.3435C115.694 86.2924 115.635 86.2845 115.541 86.2845C115.194 86.2845 114.914 86.3103 114.819 86.3103C114.725 86.3103 114.318 86.2845 113.938 86.2845C113.836 86.2845 113.768 86.2922 113.768 86.3435C113.768 86.3773 113.794 86.4029 113.887 86.4029C113.963 86.4029 114.097 86.4107 114.25 86.4452C114.513 86.5134 114.572 86.6998 114.581 87.2519L114.675 91.5635C114.403 91.2833 113.479 90.2478 112.64 89.3478C111.335 87.9474 110.071 86.5814 109.944 86.4372C109.859 86.3523 109.714 86.1653 109.646 86.1653C109.578 86.1653 109.552 86.2587 109.552 86.5894C109.56 88.2361 109.545 87.1327 109.545 90.1968L109.544 91.4531ZM123.782 86.6492C124.138 86.657 124.495 86.657 124.851 86.6673C125.666 86.6854 125.87 86.8794 125.895 87.134C125.895 87.1684 125.903 87.1939 125.903 87.2277C125.911 87.3461 125.929 87.3717 125.971 87.3717C126.005 87.3717 126.031 87.3381 126.031 87.2612C126.031 87.1683 126.057 86.5827 126.057 86.3281C126.057 86.277 126.057 86.2257 126.014 86.2257C125.98 86.2257 125.904 86.2515 125.776 86.2683C125.641 86.2941 125.446 86.3105 125.174 86.3105H121.991C121.89 86.3105 121.567 86.2951 121.321 86.2683C121.092 86.2502 121.007 86.1666 120.948 86.1666C120.913 86.1666 120.88 86.277 120.862 86.3281C120.847 86.3962 120.676 87.126 120.676 87.2107C120.676 87.2612 120.694 87.2867 120.718 87.2867C120.753 87.2867 120.777 87.2712 120.803 87.2018C120.829 87.1428 120.854 87.0834 120.948 86.9387C121.083 86.7354 121.287 86.6761 121.813 86.6673C122.229 86.6596 122.653 86.6596 123.069 86.6492V90.239C123.069 91.0538 123.069 91.7245 123.027 92.0813C122.993 92.3269 122.951 92.5134 122.781 92.5477C122.705 92.5658 122.603 92.5816 122.526 92.5816C122.475 92.5816 122.458 92.6073 122.458 92.6326C122.458 92.6839 122.5 92.7007 122.594 92.7007C122.848 92.7007 123.383 92.6749 123.426 92.6749C123.469 92.6749 124.003 92.7007 124.47 92.7007C124.563 92.7007 124.606 92.6749 124.606 92.6326C124.606 92.6068 124.59 92.5816 124.538 92.5816C124.461 92.5816 124.275 92.5634 124.156 92.5477C123.901 92.5134 123.85 92.3269 123.825 92.0813C123.782 91.7245 123.782 91.0538 123.782 90.239L123.782 86.6492Z" stroke="white" mask="url(#path-2-outside-1_1062_267)" />
 <path fill-rule="evenodd" clip-rule="evenodd" d="M74.6978 40.9984C75.5099 40.2387 76.3685 39.4593 77.2653 38.7591C82.2298 34.8835 84.9644 33.5095 90.4625 31.0992C92.0653 30.3968 97.1049 29.1399 98.1155 28.3017L95.4265 23.77C90.7393 26.5 86.6393 29.4837 82.7218 32.9881L78.2255 37.2616C77.2634 38.2089 75.9332 39.6458 74.6978 40.9984Z" fill="white" />
 <path fill-rule="evenodd" clip-rule="evenodd" d="M54.6824 32.8571C58.7404 34.8786 63.5185 37.9958 68.516 43.0617L69.3995 43.7998C69.3738 35.4493 69.3327 27.0376 69.4125 18.6875C69.4383 16.1016 68.8728 15.839 67.6969 14.249C66.2528 12.2966 64.0247 10.7688 61.5496 9.66675C60.6273 10.1646 59.7509 10.5114 58.7437 10.9948C58.276 12.0252 58.5296 13.4049 58.422 14.6311C58.6826 16.8905 59.0326 18.3395 60.3832 20.148C62.7948 23.0456 65.3514 22.1582 66.1561 22.2838C64.1908 23.7324 61.7302 23.5512 59.8957 22.866L58.1713 22.0794C57.8285 21.8558 57.4783 21.6486 57.0957 21.3617C56.8192 21.1543 56.3315 20.6418 56.0619 20.5615C55.5725 21.5207 55.3992 22.1352 55.1508 23.326C54.8149 24.9358 54.6791 27.9227 54.6876 29.623L54.7143 32.4931C54.7164 32.5708 54.7221 32.6063 54.7139 32.6837C54.6857 32.9874 54.775 32.3664 54.6932 32.8109L54.6824 32.8571Z" fill="white" />
 <path fill-rule="evenodd" clip-rule="evenodd" d="M103.995 31.4634C93.416 33.3358 85.6533 35.2391 77.7191 42.2216C76.6655 43.1485 72.4565 47.3345 71.9086 49.2062C72.5974 48.9518 77.8612 45.4397 80.6126 44.0512L86.2438 41.4113C92.0697 39.0255 98.0408 37.8788 104.989 37.8478C105.407 38.4278 106.866 40.6346 107.081 41.3946C103.388 41.698 96.4302 41.3025 93.4423 42.8607C96.1351 43.1287 100.095 42.8735 103.064 42.9919C105.773 43.101 109.251 43.7455 111.764 43.6199C110.983 41.7846 109.042 40.109 108.254 38.0707L116.649 38.7312C116.32 37.1869 101.567 14.9552 99.9885 12.4296C98.7837 10.5022 98.5769 9.77492 96.6444 8.62407C93.6696 6.85278 91.4022 7.04859 88.2721 7.23536C90.0019 10.3523 97.3658 21.3575 100.108 25.4653C101.28 27.2211 103.176 29.7769 103.995 31.4634Z" fill="white" />
 <path fill-rule="evenodd" clip-rule="evenodd" d="M24.351 38.6721C26.7876 38.9391 30.4538 37.7024 33.1969 38.0197C32.7725 38.4384 29.6005 42.9887 29.2966 43.6109C31.4036 43.7639 35.5108 43.097 37.9784 42.9717C41.2272 42.8066 44.3359 43.0214 47.4985 42.9355C47.2632 42.7526 47.2823 42.7248 46.8301 42.532C44.619 41.5907 36.0591 41.4413 33.9001 41.446L36.0836 37.9016C45.6505 37.4014 54.7108 40.7858 62.6202 45.1348C65.1494 46.5261 67.5267 48.2654 69.637 49.5499C66.3676 44.4664 64.7343 43.194 60.4668 39.8676C54.9318 35.5524 44.7946 32.1738 37.139 31.5338C38.5434 27.4306 46.4462 19.5246 40.0088 16.7771C37.168 18.0773 31.5551 31.1814 24.351 38.6721Z" fill="white" />
 <path fill-rule="evenodd" clip-rule="evenodd" d="M41.1634 26.1876C42.2149 26.1278 42.3919 26.2596 43.607 25.847C43.6199 26.5263 43.0407 27.7433 42.6246 28.3219C42.041 29.1333 41.3453 29.6275 40.3364 30.1772L40.7984 30.1695C42.6961 29.8262 44.4712 28.8647 45.3409 27.1181C45.6249 26.5472 45.7351 25.8411 45.8925 25.4351C46.5986 25.1717 47.4876 24.7953 48.1983 24.7715C49.6071 26.1559 53.0097 31.2419 53.9652 33.128C53.4565 30.5897 51.8529 26.1193 50.4095 24.0497L51.2621 23.7659C50.7046 22.153 49.8477 20.8069 48.8664 19.5327C47.94 18.3305 46.8366 17.5225 45.9451 16.3704C45.2263 15.678 44.2522 14.1144 43.8057 13.0889C43.5108 12.364 43.8109 11.9716 44.0541 10.6887C44.3408 9.18388 44.3918 7.14794 44.0941 5.60883C43.9533 4.88055 43.7412 4.1205 43.444 3.43299C43.3991 3.32902 43.3462 3.20446 43.2946 3.1054L43.0746 2.78418L43.208 5.40193C42.9206 6.36213 43.1519 9.78549 40.8966 12.1762C39.8792 13.2551 39.2389 13.4393 37.957 14.7C37.318 15.3287 36.1347 17.0556 36.0036 17.7354C35.5431 18.265 35.1118 19.8044 34.9291 20.4803C34.7875 21.0035 34.3082 22.9252 34.3641 23.4391C34.4206 23.2802 34.5088 23.1868 34.5986 22.99C34.9082 22.3104 35.3018 21.6962 35.6893 21.0394C35.809 20.8369 35.8295 20.7543 35.9608 20.5541C36.1832 20.2151 36.3668 19.9192 36.5925 19.5609C37.0832 18.7821 38.6267 16.5048 39.8524 16.1455C45.0001 18.1874 42.9576 22.6288 41.1634 26.1871V26.1876Z" fill="white" fill-opacity="0.933333" />
 <path fill-rule="evenodd" clip-rule="evenodd" d="M34.6136 4.67725L34.1583 4.83124C33.8626 5.14675 32.5647 6.17399 32.9137 7.24925C33.215 7.33258 33.4043 7.19744 33.9879 7.24413C36.0401 7.40357 35.3854 8.25386 35.2123 8.99452C34.7425 11.0037 32.52 9.52545 31.7144 10.1175C31.4252 10.5796 32.9925 12.9654 34.3175 12.8175C34.368 12.623 34.2469 11.8101 34.2913 11.4608C34.3509 10.99 34.4069 10.5862 34.7043 10.297C35.6328 9.39435 36.6603 10.8127 36.933 11.0901C37.5772 11.7448 38.1992 12.1308 39.1034 12.2409C40.359 12.3939 40.932 11.7846 40.9983 10.795C41.1332 8.78248 39.4943 5.2654 36.6444 6.65359C36.1658 6.8868 36.0661 7.30085 35.5326 7.14297C34.5486 6.85197 35.3907 5.18956 34.6136 4.67851V4.67725Z" fill="white" />
 <path fill-rule="evenodd" clip-rule="evenodd" d="M55.588 0.388144C53.1323 1.74512 54.1196 6.58018 55.3115 6.98676C56.6873 7.45654 60.3795 5.63673 59.5736 2.14239C59.149 0.301186 57.3007 -0.558385 55.588 0.388144Z" fill="white" />
 <path fill-rule="evenodd" clip-rule="evenodd" d="M63.1844 6.21438C59.6268 7.76974 58.4461 7.89691 55.1163 7.63764C51.6473 7.36728 48.9089 5.73223 48.5451 5.67728L47.3034 4.95778C46.911 4.74572 46.4714 4.42838 46.0721 4.17891L44.2835 2.89751C44.2188 2.84514 44.0867 2.73192 44.018 2.68187C43.9832 2.65607 43.9081 2.60604 43.8702 2.58385C43.7729 2.52684 43.7902 2.53972 43.6953 2.50024C44.1965 3.32372 45.076 4.27562 45.7137 5.02454C46.4371 5.87407 47.114 6.51644 47.8547 7.23337C48.5474 7.90386 49.4547 8.59295 50.1802 9.06918C51.1928 9.73373 52.179 10.1027 52.7156 10.453C52.5518 10.8023 52.3965 11.5522 52.313 11.9722C52.2018 12.4523 52.1088 12.8698 52.0149 13.3868C51.9236 13.8875 51.8781 14.2714 51.7915 14.7698C51.4282 17.492 51.4006 20.3661 51.8214 23.3628C52.2205 26.2011 53.2466 30.3912 54.66 32.939L54.6944 32.8119C54.7754 32.3674 54.6866 32.9883 54.715 32.6847C54.7227 32.6073 54.7175 32.5717 54.7155 32.494L54.6887 29.624C54.681 27.9236 54.816 24.9368 55.1519 23.327C55.4004 22.1361 55.5734 21.5216 56.0628 20.5625C56.3324 20.6427 56.8203 21.1553 57.0969 21.3627C57.4794 21.6495 57.8296 21.8567 58.1725 22.0804L59.8968 22.867C61.7313 23.5521 64.1919 23.7333 66.1572 22.2848C65.3525 22.1591 62.7959 23.0465 60.3843 20.1489C59.0338 18.3405 58.6837 16.8914 58.4231 14.632C58.5307 13.4059 58.2771 12.0261 58.7448 10.9958C59.9488 10.4176 60.9666 10.0351 62.0984 9.35583C64.5706 7.87193 67.1656 5.62725 68.697 3.16818C68.7543 3.07634 68.7326 3.10646 68.7875 3.01978C68.8899 2.85828 68.7746 3.0172 68.8902 2.86602L68.885 2.85059C68.0953 3.28064 67.0315 4.08091 66.1891 4.59145C65.2844 5.13992 64.1728 5.77764 63.185 6.21414L63.1844 6.21438Z" fill="white" />
 <path fill-rule="evenodd" clip-rule="evenodd" d="M93.5639 20.6293L90.8564 16.0662C86.5373 20.0713 82.9739 24.174 79.7548 28.812L76.3726 34.0123C74.9467 36.2928 72.5501 40.8015 71.6906 42.278C71.7086 42.7666 71.731 43.1987 71.7573 43.5635C72.6577 41.6056 74.9066 38.2677 75.5626 37.3709C80.7968 30.2208 86.3526 25.6855 93.5639 20.6293Z" fill="white" fill-opacity="0.933333" />
 <path fill-rule="evenodd" clip-rule="evenodd" d="M88.846 12.6912C88.0514 11.4062 87.0758 9.94451 86.4107 8.63965C82.6089 13.6094 79.6697 18.5055 77.2122 23.9167L74.8183 29.6395C73.7779 32.2564 72.1291 37.4674 71.6199 38.8153C71.6276 39.6504 71.6406 40.4287 71.6561 41.1312C72.1749 38.9693 73.4097 35.6832 73.807 34.7369C77.51 25.9207 82.2848 19.9794 88.846 12.6912Z" fill="white" />
 <path fill-rule="evenodd" clip-rule="evenodd" d="M81.9294 8.60938C78.5808 9.69134 75.4464 11.8938 73.5028 14.1274C72.1345 15.6995 71.6938 16.0465 71.7083 18.6874C71.7289 22.3128 71.6074 29.7761 71.6072 35.8139C71.8422 33.8158 72.2526 31.5853 72.4231 30.8127C74.3015 22.3027 77.4839 15.9819 81.9294 8.60938Z" fill="white" />
 <path fill-rule="evenodd" clip-rule="evenodd" d="M0 53.6729H141V53.2551H0V53.6729Z" fill="white" />
</svg>