<svg width="136" height="38" viewBox="0 0 136 38" fill="none" xmlns="http://www.w3.org/2000/svg">
<path fill-rule="evenodd" clip-rule="evenodd" d="M7.61553 9.89589C7.61553 4.72868 7.64355 4.10223 7.69857 3.10035C7.75435 2.00463 7.94897 1.40908 8.69962 1.25267C9.08882 1.15911 9.36643 1.15918 9.64382 1.12761C10.033 1.12761 10.3113 1.06476 10.3113 0.783506C10.3113 0.59553 10.1448 0.501364 9.64382 0.501364C8.6438 0.501364 5.19724 0.595527 4.94762 0.595527C3.86355 0.595527 2.41818 0.501364 0.833589 0.501364C0.277545 0.501364 0 0.564257 0 0.814228C0 1.06477 0.277548 1.12761 0.583713 1.12761C1.00018 1.15918 1.41741 1.19044 1.66779 1.284C2.36241 1.50326 2.55703 2.03534 2.6123 2.91237C2.66808 3.91453 2.69596 4.47789 2.69596 9.58224V15.0938C2.69596 17.0355 2.66808 18.9139 2.6123 20.1666C2.52926 22.672 2.50123 23.2357 1.50095 23.4233C1.19479 23.4862 0.889407 23.5177 0.555983 23.549C0.166777 23.549 0 23.6426 0 23.8303C0 24.1127 0.222545 24.1755 0.611751 24.1755C2.14005 24.1755 3.64118 24.0811 4.94762 24.0811C7.89316 24.0811 10.4782 24.2691 14.3137 24.2691C15.4248 24.2691 15.6475 24.2375 15.8701 23.4233C16.1475 22.5156 16.4538 19.5401 16.4538 18.8204C16.4538 18.3819 16.4258 18.2255 16.2312 18.2255C16.0086 18.2255 15.9536 18.4763 15.8701 18.8204C15.5644 20.2923 15.0913 21.1065 14.4247 21.4509C13.6461 21.9207 12.7569 21.9514 11.2286 21.9514C8.92111 21.9514 8.39312 21.795 8.00468 21.2001C7.53193 20.5423 7.61553 18.2874 7.61553 15.1251V9.89589ZM22.7349 18.4763C22.7349 18.9768 22.7069 20.3859 22.6241 21.7014C22.5681 22.6092 22.4015 23.1725 21.6789 23.3918C21.4285 23.4862 21.1508 23.4862 20.7059 23.549C20.3724 23.549 20.2056 23.6742 20.2056 23.8303C20.2056 24.0498 20.3724 24.1755 20.7616 24.1755C22.0123 24.1755 24.264 24.0811 25.0695 24.0811C25.9867 24.0811 28.2934 24.1755 30.2947 24.1755C30.7117 24.1755 30.8504 24.0499 30.8504 23.8935C30.8504 23.6742 30.7396 23.5797 30.4062 23.549C29.9332 23.4862 29.3773 23.4862 28.8771 23.3614C27.849 23.1421 27.7933 22.3584 27.7375 21.5758C27.6545 20.2611 27.6545 18.9768 27.6545 18.4763V16.253C27.6545 15.8145 27.6826 14.5931 28.0988 13.2775C28.488 11.9628 32.4625 4.29018 33.4075 2.97521C33.9078 2.25458 34.186 1.72253 34.9639 1.37843C35.2973 1.25273 35.6865 1.15918 36.0477 1.12761C36.4091 1.12761 36.6037 1.03348 36.6037 0.783506C36.6037 0.564248 36.3811 0.501364 36.0477 0.501364C35.5197 0.501364 33.2409 0.595527 32.8517 0.595527C31.7956 0.595527 30.8504 0.501364 29.7108 0.501364C29.2663 0.501364 29.0998 0.59553 29.0998 0.783506C29.0998 1.00191 29.3224 1.09627 29.572 1.15912C30.4062 1.31553 30.5728 1.59765 30.5728 1.94176C30.5728 2.34899 30.4062 2.88111 30.1278 3.53888C29.5998 4.79158 28.0988 7.92257 26.4039 11.5243C25.9589 10.5844 22.4846 3.63297 22.0401 2.72465C21.8455 2.31742 21.7619 2.03535 21.7619 1.81609C21.7619 1.56612 21.8735 1.25268 22.6241 1.15912C23.0404 1.0647 23.18 1.00189 23.18 0.751916C23.18 0.564224 22.9575 0.501364 22.6511 0.501364C20.9004 0.501364 19.1498 0.595527 18.6776 0.595527C17.6208 0.595527 15.5366 0.501364 14.3967 0.501364C14.0633 0.501364 13.8407 0.564248 13.8407 0.783506C13.8407 0.971198 13.9803 1.09633 14.2579 1.12761C14.4805 1.15918 14.814 1.22115 14.9806 1.284C15.87 1.59767 16.1754 2.0046 17.2322 3.82094C18.1765 5.41774 20.9282 10.5844 21.9565 12.7141C22.4295 13.7475 22.7349 14.3737 22.7349 16.0644V18.4763ZM38.5489 19.5717C38.4659 22.4843 38.3266 23.267 37.2425 23.4549C36.9371 23.5178 36.5757 23.5177 36.3253 23.549C35.9369 23.549 35.7972 23.6742 35.7972 23.8619C35.7972 24.1127 36.0199 24.1755 36.4091 24.1755C37.4929 24.1755 39.55 24.0811 40.1888 24.0811C41.9117 24.1127 42.8016 24.1755 43.7741 24.1755C44.2191 24.1755 44.4409 24.1127 44.4409 23.8619C44.4409 23.6742 44.3021 23.5797 43.8858 23.549C43.3298 23.4862 42.8289 23.4862 42.4125 23.3298C41.634 23.0161 41.5233 22.1706 41.4675 19.9158L41.1899 9.23813C43.2182 11.4614 45.998 14.4054 47.554 16.0022C49.2219 17.7241 51.6671 20.1982 53.5574 22.0771C55.3641 23.8619 56.2255 24.6132 56.6705 24.6132C57.032 24.6132 57.2265 24.2691 57.2265 22.672C57.3373 16.3778 57.3374 10.1151 57.5597 3.82094C57.6428 1.8789 57.9211 1.34687 58.8384 1.22117C59.033 1.15917 59.1718 1.15918 59.533 1.12761C59.8664 1.12761 60.0052 0.939916 60.0052 0.783506C60.0052 0.59553 59.8107 0.501364 59.3945 0.501364C58.2266 0.501364 56.837 0.595527 56.2255 0.595527C55.1136 0.595527 53.3069 0.501364 52.1959 0.501364C51.8897 0.501364 51.6402 0.595539 51.6402 0.814228C51.6402 0.971207 51.7789 1.12761 52.1401 1.12761C52.5293 1.15918 52.9736 1.19044 53.3628 1.284C54.4747 1.50326 54.6135 2.31739 54.6695 4.07088L54.836 15.8144C54.0854 15.0623 52.1681 12.9647 49.3326 10.0208C42.9685 3.44446 41.5233 1.87894 40.3557 0.783506C39.633 0.125733 39.4942 0.0313298 39.2716 0.0313298C38.9382 0.0313298 38.8274 0.595504 38.7994 1.53481C38.6328 5.57416 38.6877 13.1211 38.5489 19.5717ZM65.0637 15.0938C65.0637 17.7869 65.0078 20.0102 64.9248 21.5137C64.8412 22.7348 64.5637 23.3298 64.0077 23.4233C63.7023 23.4862 63.5076 23.5177 63.1462 23.549C62.84 23.549 62.6181 23.6426 62.6181 23.8619C62.6181 24.0183 62.7012 24.1755 63.1735 24.1755C63.9519 24.1755 64.3132 24.144 65.0916 24.1127C65.87 24.0811 66.537 24.0811 67.2038 24.0811C67.7319 24.0811 68.8713 24.1756 69.9554 24.3004C70.8727 24.394 71.8177 24.4252 72.9288 24.4252C78.5153 24.4252 81.0723 22.2651 82.4348 20.6996C84.0188 19.0083 85.492 15.908 85.492 12.1192C85.492 8.39236 84.2413 5.76213 82.8241 4.16504C80.2947 1.2527 76.57 0.56426 71.8178 0.532694C69.4826 0.56426 68.2319 0.595527 67.3154 0.595527C66.092 0.595527 63.5348 0.501364 62.8399 0.501364C62.3677 0.501364 62.2012 0.59553 62.2012 0.783506C62.2012 0.939916 62.312 1.09633 62.7292 1.12761C63.2572 1.19046 63.5348 1.19046 63.7572 1.22117C64.8132 1.34687 64.9529 2.19261 65.008 3.10035C65.0637 4.10223 65.0637 4.97925 65.0637 9.58224V15.0938ZM69.9833 9.08175C69.9833 6.54478 70.0386 4.29017 70.0113 3.22602C70.0113 2.94391 70.0385 2.78752 70.2609 2.66182C70.5113 2.50541 71.1503 2.41188 71.7619 2.41188C73.5963 2.41188 76.2365 3.00679 78.1541 5.82501C79.3217 7.60978 80.2389 10.1465 80.2389 12.9962C80.2389 15.9393 79.8777 18.7262 78.4324 20.3543C76.9592 22.0771 75.3193 22.5471 73.374 22.5471C72.1512 22.5471 71.0115 22.1086 70.5112 21.4193C70.2051 21.0752 70.0942 20.4487 70.0385 19.1647C70.0112 18.5698 69.9833 16.4094 69.9833 13.0898V9.08175ZM90.9115 15.0938C90.9115 17.0355 90.8837 18.8832 90.828 20.135C90.7729 22.1086 90.6611 23.2985 89.8835 23.4233C89.6611 23.4862 89.3827 23.5177 89.0492 23.549C88.6328 23.549 88.4933 23.7055 88.4933 23.8619C88.4933 24.0811 88.66 24.1755 89.1608 24.1755C90.6891 24.1755 91.8567 24.0811 93.1631 24.0811C96.0809 24.0811 98.1659 24.2691 102.001 24.2691C103.03 24.2691 103.224 24.2375 103.419 23.4233C103.558 22.8284 103.863 20.4487 103.863 19.2276C103.863 18.8519 103.835 18.5382 103.613 18.5382C103.447 18.5382 103.335 18.7262 103.279 19.1016C103.03 20.5422 102.696 21.2316 101.918 21.5758C101.139 21.9207 100.055 21.9514 99.3327 21.9514C96.2476 21.9514 95.8591 21.4509 95.8314 19.2589C95.8033 18.0691 95.8314 16.2214 95.8314 15.1567V12.9962C95.8314 12.7454 95.8591 12.589 95.9979 12.589C96.8593 12.589 99.138 12.6512 99.9164 12.7141C101.279 12.8077 101.667 13.3403 101.779 14.248C101.807 14.4989 101.834 14.7182 101.862 14.9687C101.918 15.2503 101.974 15.4695 102.168 15.4695C102.335 15.4695 102.418 15.2815 102.418 14.8746C102.418 14.5302 102.418 12.9962 102.446 12.2756C102.529 11.0541 102.668 9.92722 102.668 9.61383C102.668 9.42586 102.668 9.23813 102.502 9.23813C102.363 9.23813 102.279 9.36297 102.112 9.64507C101.807 10.2087 101.445 10.3029 100.083 10.3651C99.083 10.3964 96.8313 10.4279 96.0529 10.3964C95.859 10.3964 95.8314 10.24 95.8314 10.0208V3.13159C95.8314 2.91234 95.8863 2.81882 96.0529 2.81882C96.8871 2.81882 99.305 2.88108 100.222 2.97521C101.556 3.10033 101.918 3.50726 102.057 4.22788C102.168 4.66582 102.196 4.97926 102.196 5.32364C102.223 5.60575 102.335 5.76217 102.474 5.76217C102.64 5.76217 102.751 5.57418 102.751 5.32364C102.835 3.69527 102.891 2.59955 102.974 1.97335C103.057 1.06475 103.113 0.751937 103.113 0.595527C103.113 0.438549 103.085 0.313385 102.946 0.313385C102.835 0.313385 102.696 0.376251 102.502 0.438531C102.223 0.501379 101.556 0.564197 101 0.564197C100.556 0.564197 93.7462 0.595527 93.1631 0.595527C91.9397 0.595527 90.6061 0.501364 89.0212 0.501364C88.577 0.501364 88.4104 0.59553 88.4104 0.783506C88.4104 0.971198 88.549 1.09633 88.9104 1.12761C89.1889 1.15918 89.5773 1.15917 89.8277 1.22117C90.5223 1.40914 90.7729 1.94179 90.828 2.84954C90.8837 3.8517 90.9115 4.47789 90.9115 9.58224V15.0938ZM129.711 1.22117C129.627 0.438552 129.46 0 129.182 0C128.905 0 128.682 0.31343 128.238 1.12761L120.622 16.2837L112.673 1.284C112.09 0.31341 111.895 0 111.59 0C111.312 0 111.117 0.282143 111.006 1.22117L108.476 20.4802C108.199 22.5471 107.921 23.267 107.115 23.4549C106.809 23.5178 106.503 23.5177 106.281 23.549C105.892 23.549 105.725 23.6742 105.725 23.8619C105.725 24.1755 106.059 24.1755 106.337 24.1755C107.365 24.1755 108.671 24.0811 109.533 24.0811C110.367 24.0811 111.895 24.1755 113.118 24.1755C113.563 24.1755 113.674 24.0811 113.674 23.8303C113.674 23.6426 113.591 23.549 113.173 23.549C112.812 23.5177 112.563 23.4862 112.145 23.3918C111.451 23.2356 111.172 22.86 111.172 21.9514C111.172 21.4821 111.172 20.7931 111.284 19.4468L112.09 10.6157C112.618 11.6807 113.84 14.2481 114.313 15.1567C115.369 17.1607 117.065 20.73 118.037 22.4843C118.816 23.8619 118.982 24.1755 119.288 24.1755C119.51 24.1755 119.677 23.9867 120.428 22.3899L126.153 10.3028L127.154 21.5137C127.265 22.9228 127.237 23.1105 126.793 23.2985C126.598 23.3613 126.487 23.4862 126.487 23.6111C126.487 23.7683 126.598 23.9562 127.126 23.9867C130.294 24.1755 132.546 24.1755 134.852 24.1755C135.297 24.1755 135.519 24.1127 135.519 23.8619C135.519 23.6426 135.353 23.549 134.991 23.549C134.63 23.5177 133.963 23.4549 133.407 23.267C132.49 22.9541 132.212 22.1706 131.99 20.135L129.711 1.22117Z" fill="white"/>
<mask id="path-2-outside-1_1120_261" maskUnits="userSpaceOnUse" x="12.3906" y="28.8459" width="110" height="9" fill="black">
<rect fill="white" x="12.3906" y="28.8459" width="110" height="9"/>
<path fill-rule="evenodd" clip-rule="evenodd" d="M14.1144 34.3366C14.1144 35.1696 14.1069 35.6468 14.0968 36.0119C14.0791 36.7132 13.9723 36.8438 13.7976 36.8913C13.7398 36.9112 13.6897 36.9111 13.6066 36.9196C13.5566 36.9282 13.5153 36.9481 13.5153 36.976C13.5153 37.0325 13.5566 37.051 13.6482 37.051C13.8643 37.0596 14.0632 37.0226 14.2629 37.0226C14.5862 37.0226 14.9684 37.0425 15.3011 37.051C15.6244 37.0596 15.8984 37.0795 16.513 37.0795C16.8371 37.0795 16.9031 37.0795 16.9616 36.8361C17.003 36.6393 17.0696 36.0033 17.0696 35.9283C17.0696 35.8631 17.0695 35.7881 17.0195 35.7881C16.9779 35.7881 16.9615 35.825 16.9451 35.9283C16.8785 36.3307 16.7869 36.5272 16.5216 36.6207C16.297 36.6958 16.0228 36.7047 15.7737 36.7047C15.4496 36.7047 15.2258 36.6847 15.0849 36.6207C14.8774 36.5272 14.8273 36.3216 14.8109 35.938C14.8033 35.7415 14.8109 34.6562 14.8109 34.3377V33.5147C14.8109 33.4769 14.826 33.4497 14.8689 33.4497C15.0098 33.4497 15.8317 33.4695 16.0564 33.4963C16.3547 33.5332 16.4549 33.6641 16.4877 33.8051C16.513 33.889 16.5216 33.9823 16.5216 34.0671C16.5216 34.1413 16.5292 34.2161 16.5794 34.2161C16.6125 34.2161 16.6289 34.1694 16.6375 34.0758C16.6451 33.9453 16.6451 33.73 16.6711 33.4399C16.6963 33.1311 16.7368 32.9724 16.7368 32.9158C16.7368 32.8595 16.7193 32.8408 16.6956 32.8408C16.6625 32.8408 16.6374 32.8789 16.596 32.9343C16.513 33.0464 16.405 33.0748 16.1809 33.0933C15.99 33.1132 14.9683 33.1132 14.8603 33.1132C14.8187 33.1132 14.8109 33.0848 14.8109 33.0196V30.4369C14.8109 30.3715 14.826 30.3433 14.8603 30.3433C14.9517 30.3433 15.8568 30.3519 15.9978 30.3718C16.3633 30.4096 16.538 30.5031 16.596 30.7184C16.6213 30.7926 16.6375 30.9056 16.6375 31.0273C16.6375 31.1012 16.6525 31.1482 16.704 31.1482C16.7368 31.1482 16.7618 31.0827 16.7704 30.9892C16.7856 30.7458 16.7957 30.5686 16.8036 30.4284C16.8187 30.1662 16.8699 30.0542 16.8699 29.9882C16.8699 29.9413 16.8624 29.9043 16.8371 29.9043C16.8119 29.9043 16.7954 29.9128 16.7455 29.9412C16.6955 29.9697 16.5459 29.9882 16.3634 29.9978C16.1723 30.0064 14.5203 30.0063 14.4618 30.0063C13.9388 29.9779 13.7147 29.9779 13.5239 29.9779C13.4323 29.9779 13.3906 29.9978 13.3906 30.0527C13.3906 30.0899 13.4408 30.0997 13.4986 30.1085C13.5731 30.117 13.6811 30.1169 13.7399 30.1369C14.0137 30.2023 14.0796 30.3522 14.0968 30.6707C14.1145 30.9696 14.1144 31.2318 14.1144 32.6906V34.3366ZM23.0223 34.3366C23.0223 35.2347 23.0223 35.9741 22.9807 36.3674C22.9471 36.6381 22.9057 36.8437 22.7396 36.8815C22.6651 36.9014 22.5987 36.91 22.5071 36.9189C22.4405 36.9189 22.4241 36.9472 22.4241 36.9751C22.4241 37.0317 22.4654 37.0502 22.557 37.0502C22.6815 37.0502 22.8725 37.0303 23.0386 37.0303C23.213 37.0218 23.3542 37.0218 23.3706 37.0218C23.4122 37.0218 23.6947 37.0502 24.0604 37.0781C24.4173 37.1065 24.8572 37.1338 25.2143 37.1338C26.626 37.1338 27.3729 36.4792 27.73 36.0583C28.195 35.506 28.6271 34.5986 28.6271 33.4198C28.6271 32.3067 28.2366 31.5295 27.8214 31.0435C26.8335 29.8923 25.3139 29.9771 24.4918 29.9771C23.9938 29.9771 23.4708 30.0055 23.3706 30.0055C23.3292 30.0055 22.8063 29.9771 22.4327 29.9771C22.3411 29.9771 22.2996 29.997 22.2996 30.0519C22.2996 30.0891 22.3332 30.1076 22.391 30.1076C22.4654 30.1076 22.6073 30.1162 22.6729 30.1361C22.947 30.2015 22.9885 30.3513 23.0056 30.6698C23.0233 30.9687 23.0232 31.2309 23.0232 32.6898L23.0223 34.3366ZM23.7197 32.5407C23.7197 31.8201 23.7197 30.8655 23.7272 30.5481C23.7272 30.4449 23.7525 30.398 23.8272 30.361C23.8931 30.3232 24.2008 30.295 24.3669 30.295C25.3548 30.295 26.3015 30.4264 27.0819 31.3526C27.4227 31.7548 27.879 32.5223 27.879 33.7096C27.879 34.5704 27.6465 35.4684 27.2149 35.9456C26.725 36.4979 26.0109 36.8164 25.2388 36.8164C24.2587 36.8164 23.9352 36.6196 23.8272 36.4416C23.7608 36.3392 23.7444 35.965 23.7359 35.7307C23.7283 35.5532 23.7181 34.6921 23.7181 33.7007L23.7197 32.5407ZM34.9771 32.6898C34.9771 31.2309 34.9771 30.9687 34.9948 30.6698C35.0099 30.3416 35.0778 30.173 35.3017 30.1361C35.4011 30.119 35.4511 30.1076 35.5092 30.1076C35.5427 30.1076 35.5756 30.0877 35.5756 30.0519C35.5756 29.9956 35.5341 29.9771 35.4425 29.9771C35.1936 29.9771 34.6956 30.0055 34.6204 30.0055C34.546 30.0055 34.0394 29.9771 33.6661 29.9771C33.5744 29.9771 33.5331 29.997 33.5331 30.0519C33.5331 30.0891 33.5659 30.1076 33.5995 30.1076C33.674 30.1076 33.8155 30.1162 33.8814 30.1361C34.1555 30.2015 34.2218 30.3513 34.239 30.6698C34.2567 30.9687 34.2567 31.2309 34.2567 32.6898V34.0562C34.2567 35.4218 34.5722 36.0771 34.9786 36.5164C35.568 37.1438 36.4074 37.1807 36.6891 37.1807C37.1792 37.1807 37.8016 37.0871 38.3998 36.4882C39.0644 35.8239 39.164 34.7021 39.164 33.6911V32.6898C39.164 31.2309 39.164 30.9687 39.1817 30.6698C39.1968 30.3416 39.2644 30.1927 39.489 30.1361C39.5887 30.119 39.638 30.1076 39.6968 30.1076C39.7296 30.1076 39.7623 30.0877 39.7623 30.0519C39.7623 29.9956 39.721 29.9771 39.6301 29.9771C39.381 29.9771 38.9905 30.0055 38.9324 30.0055C38.8824 30.0055 38.4259 29.9771 38.0526 29.9771C37.961 29.9771 37.9193 29.997 37.9193 30.0519C37.9193 30.0891 37.9523 30.1076 37.9859 30.1076C38.0604 30.1076 38.2021 30.1162 38.268 30.1361C38.5418 30.2015 38.6084 30.3513 38.6248 30.6698C38.6424 30.9687 38.6425 31.2309 38.6425 32.6898V33.8595C38.6425 34.8238 38.5422 35.6186 38.1611 36.1521C37.862 36.5545 37.3633 36.8252 36.8567 36.8252C36.3837 36.8252 36.0104 36.7414 35.6033 36.3108C35.2461 35.9272 34.9801 35.3476 34.9801 33.9999L34.9771 32.6898ZM47.3726 30.3794C47.7209 30.388 48.0702 30.388 48.4185 30.3994C49.2156 30.4193 49.4153 30.6332 49.4403 30.9139C49.4403 30.9517 49.4479 30.9798 49.4479 31.017C49.4554 31.1476 49.473 31.1758 49.5144 31.1758C49.548 31.1758 49.573 31.1388 49.573 31.054C49.573 30.9516 49.5982 30.3061 49.5982 30.0254C49.5982 29.9691 49.5983 29.9125 49.5566 29.9125C49.5238 29.9125 49.4486 29.941 49.3242 29.9595C49.1919 29.9879 49.0009 30.0061 48.7346 30.0061H45.6208C45.5214 30.0061 45.2059 29.989 44.9649 29.9595C44.7407 29.9396 44.6577 29.8474 44.5999 29.8474C44.5664 29.8474 44.5333 29.9691 44.5161 30.0254C44.501 30.1005 44.3337 30.905 44.3337 30.9983C44.3337 31.054 44.3513 31.0821 44.3753 31.0821C44.4089 31.0821 44.4331 31.0651 44.4584 30.9886C44.4836 30.9235 44.5083 30.8581 44.5999 30.6985C44.7322 30.4744 44.9319 30.4091 45.4463 30.3994C45.8534 30.3909 46.2684 30.3908 46.6755 30.3794V34.3366C46.6755 35.2347 46.6755 35.9741 46.6341 36.3674C46.601 36.6381 46.5597 36.8437 46.3928 36.8815C46.3186 36.9014 46.2191 36.9189 46.1439 36.9189C46.0944 36.9189 46.0773 36.9472 46.0773 36.9751C46.0773 37.0317 46.1189 37.0502 46.2106 37.0502C46.4594 37.0502 46.9823 37.0218 47.024 37.0218C47.0661 37.0218 47.5891 37.0502 48.0457 37.0502C48.137 37.0502 48.1788 37.0217 48.1788 36.9751C48.1788 36.9466 48.1636 36.9189 48.1121 36.9189C48.0371 36.9189 47.8547 36.8989 47.7386 36.8815C47.489 36.8437 47.4397 36.6381 47.4145 36.3674C47.3731 35.9741 47.3731 35.2347 47.3731 34.3366L47.3726 30.3794ZM57.1603 34.29C57.2017 34.29 57.2183 34.3099 57.2347 34.3463L58.0073 36.6478C58.0568 36.7971 58.0074 36.8816 57.9574 36.9004C57.9243 36.9089 57.8993 36.9288 57.8993 36.9655C57.8993 37.022 57.9909 37.022 58.1484 37.0317C58.7214 37.0516 59.3274 37.0516 59.4519 37.0516C59.5435 37.0516 59.6179 37.0317 59.6179 36.9766C59.6179 36.9299 59.5765 36.9202 59.527 36.9202C59.4604 36.9202 59.3273 36.9117 59.2029 36.8645C59.0283 36.8082 58.788 36.6583 58.4889 35.8253C57.9823 34.4034 56.6787 30.5398 56.5543 30.1841C56.4548 29.894 56.4212 29.8474 56.3709 29.8474C56.3217 29.8474 56.288 29.9037 56.1885 30.2125L54.3041 36.0222C54.1547 36.4897 53.9886 36.8452 53.6064 36.9018C53.54 36.9103 53.4648 36.9216 53.4068 36.9216C53.3326 36.9216 53.2909 36.9416 53.2909 36.978C53.2909 37.0345 53.3403 37.053 53.4484 37.053C53.8388 37.053 54.2955 37.0246 54.3872 37.0246C54.478 37.0246 54.8107 37.053 55.0095 37.053C55.0848 37.053 55.159 37.0331 55.159 36.978C55.159 36.941 55.1338 36.9216 55.051 36.9216C55.0257 36.9216 55.001 36.9216 54.9767 36.9216C54.8349 36.9216 54.6776 36.8377 54.6776 36.6506C54.6776 36.4822 54.7189 36.2573 54.7934 36.0236L55.2922 34.3679C55.3074 34.321 55.3336 34.2929 55.375 34.2929L57.1603 34.29ZM55.4659 33.953C55.4406 33.953 55.4244 33.9331 55.4406 33.8878L56.1711 31.3614C56.2128 31.2212 56.2542 31.2212 56.2956 31.3614L57.0848 33.8878C57.0924 33.9248 57.0924 33.953 57.0512 33.953H55.4659ZM64.8308 34.3366C64.8308 35.2347 64.8308 35.9741 64.7894 36.3674C64.7558 36.6381 64.7064 36.8534 64.5403 36.8913C64.4653 36.9112 64.3744 36.9196 64.3241 36.9196C64.2492 36.9196 64.2326 36.9481 64.2326 36.976C64.2326 37.0325 64.2743 37.051 64.3659 37.051C64.6148 37.051 65.1377 37.0226 65.1793 37.0226C65.2207 37.0226 65.7523 37.051 66.2089 37.051C66.3005 37.051 66.3341 37.0226 66.3341 36.976C66.3341 36.9475 66.3089 36.9196 66.234 36.9196C66.1845 36.9196 66.01 36.8997 65.8933 36.8824C65.6442 36.8446 65.5951 36.639 65.5698 36.3683C65.5284 35.975 65.5284 35.2356 65.5284 34.3375V32.6906C65.5284 31.2318 65.5285 30.9696 65.5436 30.6707C65.5613 30.3425 65.6266 30.1835 65.8505 30.1369C65.9507 30.1198 66.0002 30.1085 66.0588 30.1085C66.0916 30.1085 66.1246 30.0885 66.1246 30.0527C66.1246 29.9964 66.083 29.9779 65.9921 29.9779C65.7432 29.9779 65.2195 30.0063 65.1781 30.0063C65.1364 30.0063 64.6135 29.9779 64.3394 29.9779C64.248 29.9779 64.2063 29.9978 64.2063 30.0527C64.2063 30.0899 64.2399 30.1085 64.273 30.1085C64.3316 30.1085 64.4388 30.117 64.5304 30.1463C64.7129 30.1932 64.796 30.3519 64.8131 30.6704C64.8308 30.9693 64.8308 31.2315 64.8308 32.6904V34.3366ZM72.2373 35.6749C72.2373 36.5261 72.1958 36.7971 71.9884 36.863C71.8639 36.91 71.7143 36.9189 71.6479 36.9189C71.6063 36.9189 71.5814 36.9387 71.5814 36.9751C71.5814 37.0405 71.6313 37.0502 71.7143 37.0502C72.0879 37.0502 72.4362 37.0218 72.5129 37.0218C72.5874 37.0218 72.9192 37.0502 73.3915 37.0502C73.4909 37.0502 73.5409 37.0303 73.5409 36.9751C73.5409 36.9381 73.5158 36.9189 73.4744 36.9189C73.4002 36.9189 73.2184 36.9103 73.0609 36.863C72.8363 36.7883 72.7532 36.5448 72.7368 35.7773L72.6288 31.2961C72.8948 31.633 73.8314 32.8115 74.7939 33.9811C75.6725 35.0479 76.8666 36.4229 76.958 36.5164C77.3982 37.0124 77.499 37.1153 77.5656 37.1153C77.6237 37.1153 77.64 37.0686 77.64 36.4512L77.6577 30.9872C77.6577 30.3416 77.7154 30.2014 77.9481 30.1457C78.0476 30.1258 78.0976 30.1173 78.1643 30.1079C78.2221 30.0993 78.2551 30.0794 78.2551 30.0424C78.2551 29.9861 78.197 29.9773 78.1054 29.9773C77.7657 29.9773 77.4916 30.0058 77.3988 30.0058C77.3071 30.0058 76.9086 29.9773 76.5365 29.9773C76.4371 29.9773 76.3704 29.9858 76.3704 30.0424C76.3704 30.0797 76.3956 30.1079 76.4864 30.1079C76.5614 30.1079 76.6924 30.1165 76.8419 30.1546C77.0996 30.2296 77.1574 30.4352 77.166 31.0438L77.2576 35.7966C76.9916 35.4878 76.0879 34.3463 75.2671 33.3541C73.99 31.8105 72.7537 30.3047 72.6292 30.1457C72.5462 30.0521 72.4039 29.8459 72.3373 29.8459C72.2709 29.8459 72.2459 29.9489 72.2459 30.3135C72.2535 32.1287 72.2382 30.9124 72.2382 34.29L72.2373 35.6749ZM90.0206 30.0991C90.0029 29.9208 89.979 29.8459 89.9209 29.8459C89.8631 29.8459 89.8295 29.9111 89.7965 29.9958L87.3553 35.8709L84.814 29.9862C84.7724 29.8838 84.7395 29.8459 84.6895 29.8459C84.6393 29.8459 84.6066 29.9304 84.598 30.0328L84.0006 36.1143C83.959 36.4979 83.9425 36.8349 83.6686 36.8913C83.5432 36.9197 83.4854 36.9196 83.4188 36.9196C83.3774 36.9196 83.3357 36.9396 83.3357 36.976C83.3357 37.0414 83.3946 37.051 83.4776 37.051C83.7015 37.051 84.1 37.0226 84.175 37.0226C84.2409 37.0226 84.6644 37.051 84.9721 37.051C85.0551 37.051 85.0966 37.0312 85.0966 36.9663C85.0966 36.9379 85.0629 36.9196 85.0137 36.9196C84.9635 36.9196 84.8555 36.9197 84.7147 36.8824C84.5902 36.854 84.4907 36.7794 84.4907 36.5457C84.4907 36.3867 84.4983 36.2554 84.5059 36.1064L84.8464 31.6993C84.9372 31.9524 85.8924 34.2627 85.9668 34.431C86.0082 34.5246 86.723 36.1433 86.9386 36.602C87.0966 36.939 87.138 37.0325 87.196 37.0325C87.2712 37.0325 87.2954 36.9478 87.4701 36.5358L89.5292 31.6153L89.9277 36.4988C89.9454 36.6674 89.9529 36.8076 89.8946 36.8358C89.8532 36.8529 89.8368 36.8642 89.8368 36.9011C89.8368 36.9478 89.8782 36.976 90.0693 36.9944C90.3762 37.0229 91.3228 37.051 91.506 37.051C91.6054 37.051 91.6305 37.0311 91.6305 36.976C91.6305 36.9293 91.5805 36.9196 91.5388 36.9196C91.4558 36.9196 91.265 36.9197 91.0237 36.8358C90.6668 36.7044 90.6088 36.1802 90.576 35.8441L90.0206 30.0991ZM97.1429 34.3366C97.1429 35.1696 97.1353 35.6468 97.1278 36.0119C97.1101 36.7132 97.0034 36.8438 96.8287 36.8913C96.7709 36.9112 96.7206 36.9111 96.6376 36.9196C96.5876 36.9282 96.5462 36.9481 96.5462 36.976C96.5462 37.0325 96.5877 37.051 96.6793 37.051C96.8954 37.0596 97.0942 37.0226 97.2938 37.0226C97.6172 37.0226 97.9993 37.0425 98.332 37.051C98.6553 37.0596 98.9295 37.0795 99.5441 37.0795C99.8682 37.0795 99.934 37.0795 99.9926 36.8361C100.034 36.6393 100.101 36.0033 100.101 35.9283C100.101 35.8631 100.101 35.7881 100.051 35.7881C100.009 35.7881 99.9925 35.825 99.9761 35.9283C99.9094 36.3307 99.8179 36.5272 99.5526 36.6207C99.3279 36.6958 99.0538 36.7047 98.805 36.7047C98.4809 36.7047 98.2567 36.6847 98.1159 36.6207C97.9084 36.5272 97.8582 36.3216 97.8418 35.938C97.8342 35.7415 97.8418 34.6562 97.8418 34.3377V33.5147C97.8418 33.4769 97.8595 33.4497 97.8999 33.4497C98.0407 33.4497 98.8628 33.4695 99.0875 33.4963C99.3858 33.5332 99.4859 33.6641 99.519 33.8051C99.5442 33.889 99.5526 33.9823 99.5526 34.0671C99.5526 34.1413 99.5601 34.2161 99.6104 34.2161C99.6434 34.2161 99.6598 34.1694 99.6684 34.0758C99.676 33.9453 99.676 33.73 99.702 33.4399C99.7273 33.1311 99.7679 32.9724 99.7679 32.9158C99.7679 32.8595 99.7528 32.8408 99.7265 32.8408C99.6934 32.8408 99.6685 32.8789 99.6271 32.9343C99.5441 33.0464 99.436 33.0748 99.2121 33.0933C99.0211 33.1132 97.9993 33.1132 97.8913 33.1132C97.8496 33.1132 97.8418 33.0848 97.8418 33.0196V30.4369C97.8418 30.3715 97.8595 30.3433 97.8913 30.3433C97.9829 30.3433 98.8879 30.3519 99.0289 30.3718C99.3944 30.4096 99.5691 30.5031 99.6271 30.7184C99.6524 30.7926 99.6684 30.9056 99.6684 31.0273C99.6684 31.1012 99.6862 31.1482 99.7351 31.1482C99.7679 31.1482 99.793 31.0827 99.8015 30.9892C99.8167 30.7458 99.8267 30.5686 99.8345 30.4284C99.8496 30.1662 99.9009 30.0542 99.9009 29.9882C99.9009 29.9413 99.8933 29.9043 99.8681 29.9043C99.8428 29.9043 99.8264 29.9128 99.7764 29.9412C99.7264 29.9697 99.5769 29.9882 99.3944 29.9978C99.2035 30.0064 97.5513 30.0063 97.4927 30.0063C96.9697 29.9779 96.7459 29.9779 96.5548 29.9779C96.4632 29.9779 96.4216 29.9978 96.4216 30.0527C96.4216 30.0899 96.4718 30.0997 96.5296 30.1085C96.604 30.117 96.712 30.1169 96.7708 30.1369C97.0447 30.2023 97.1106 30.3522 97.1278 30.6707C97.1429 30.9696 97.1429 31.2318 97.1429 32.6906V34.3366ZM105.961 35.6749C105.961 36.5261 105.92 36.7971 105.712 36.863C105.588 36.91 105.438 36.9189 105.372 36.9189C105.33 36.9189 105.305 36.9387 105.305 36.9751C105.305 37.0405 105.355 37.0502 105.438 37.0502C105.812 37.0502 106.16 37.0218 106.237 37.0218C106.311 37.0218 106.643 37.0502 107.115 37.0502C107.215 37.0502 107.265 37.0303 107.265 36.9751C107.265 36.9381 107.24 36.9189 107.198 36.9189C107.124 36.9189 106.942 36.9103 106.785 36.863C106.56 36.7883 106.477 36.5448 106.461 35.7773L106.353 31.2961C106.619 31.633 107.555 32.8115 108.518 33.9811C109.396 35.0479 110.59 36.4229 110.682 36.5164C111.122 37.0124 111.223 37.1153 111.289 37.1153C111.347 37.1153 111.364 37.0686 111.364 36.4512L111.382 30.9872C111.382 30.3416 111.439 30.2014 111.672 30.1457C111.771 30.1258 111.821 30.1173 111.888 30.1079C111.946 30.0993 111.979 30.0794 111.979 30.0424C111.979 29.9861 111.921 29.9773 111.829 29.9773C111.489 29.9773 111.215 30.0058 111.123 30.0058C111.031 30.0058 110.632 29.9773 110.26 29.9773C110.161 29.9773 110.094 29.9858 110.094 30.0424C110.094 30.0797 110.12 30.1079 110.21 30.1079C110.285 30.1079 110.416 30.1165 110.566 30.1546C110.823 30.2296 110.881 30.4352 110.89 31.0438L110.981 35.7966C110.715 35.4878 109.812 34.3463 108.991 33.3541C107.714 31.8105 106.478 30.3047 106.353 30.1457C106.27 30.0521 106.128 29.8459 106.061 29.8459C105.995 29.8459 105.97 29.9489 105.97 30.3135C105.977 32.1287 105.962 30.9124 105.962 34.29L105.961 35.6749ZM119.891 30.3794C120.24 30.388 120.589 30.388 120.938 30.3994C121.735 30.4193 121.934 30.6332 121.959 30.9139C121.959 30.9517 121.967 30.9798 121.967 31.017C121.974 31.1476 121.992 31.1758 122.033 31.1758C122.067 31.1758 122.092 31.1388 122.092 31.054C122.092 30.9516 122.117 30.3061 122.117 30.0254C122.117 29.9691 122.117 29.9125 122.076 29.9125C122.043 29.9125 121.967 29.941 121.843 29.9595C121.711 29.9879 121.52 30.0061 121.253 30.0061H118.14C118.04 30.0061 117.725 29.989 117.484 29.9595C117.26 29.9396 117.177 29.8474 117.119 29.8474C117.085 29.8474 117.052 29.9691 117.035 30.0254C117.02 30.1005 116.853 30.905 116.853 30.9983C116.853 31.054 116.87 31.0821 116.894 31.0821C116.928 31.0821 116.952 31.0651 116.977 30.9886C117.002 30.9235 117.027 30.8581 117.119 30.6985C117.251 30.4744 117.451 30.4091 117.965 30.3994C118.372 30.3909 118.787 30.3908 119.194 30.3794V34.3366C119.194 35.2347 119.194 35.9741 119.153 36.3674C119.12 36.6381 119.079 36.8437 118.912 36.8815C118.838 36.9014 118.738 36.9189 118.663 36.9189C118.613 36.9189 118.596 36.9472 118.596 36.9751C118.596 37.0317 118.638 37.0502 118.729 37.0502C118.978 37.0502 119.501 37.0218 119.543 37.0218C119.585 37.0218 120.108 37.0502 120.565 37.0502C120.656 37.0502 120.698 37.0217 120.698 36.9751C120.698 36.9466 120.683 36.9189 120.631 36.9189C120.556 36.9189 120.374 36.8989 120.258 36.8815C120.008 36.8437 119.959 36.6381 119.933 36.3674C119.892 35.9741 119.892 35.2347 119.892 34.3366L119.891 30.3794Z"/>
</mask>
<path fill-rule="evenodd" clip-rule="evenodd" d="M14.1144 34.3366C14.1144 35.1696 14.1069 35.6468 14.0968 36.0119C14.0791 36.7132 13.9723 36.8438 13.7976 36.8913C13.7398 36.9112 13.6897 36.9111 13.6066 36.9196C13.5566 36.9282 13.5153 36.9481 13.5153 36.976C13.5153 37.0325 13.5566 37.051 13.6482 37.051C13.8643 37.0596 14.0632 37.0226 14.2629 37.0226C14.5862 37.0226 14.9684 37.0425 15.3011 37.051C15.6244 37.0596 15.8984 37.0795 16.513 37.0795C16.8371 37.0795 16.9031 37.0795 16.9616 36.8361C17.003 36.6393 17.0696 36.0033 17.0696 35.9283C17.0696 35.8631 17.0695 35.7881 17.0195 35.7881C16.9779 35.7881 16.9615 35.825 16.9451 35.9283C16.8785 36.3307 16.7869 36.5272 16.5216 36.6207C16.297 36.6958 16.0228 36.7047 15.7737 36.7047C15.4496 36.7047 15.2258 36.6847 15.0849 36.6207C14.8774 36.5272 14.8273 36.3216 14.8109 35.938C14.8033 35.7415 14.8109 34.6562 14.8109 34.3377V33.5147C14.8109 33.4769 14.826 33.4497 14.8689 33.4497C15.0098 33.4497 15.8317 33.4695 16.0564 33.4963C16.3547 33.5332 16.4549 33.6641 16.4877 33.8051C16.513 33.889 16.5216 33.9823 16.5216 34.0671C16.5216 34.1413 16.5292 34.2161 16.5794 34.2161C16.6125 34.2161 16.6289 34.1694 16.6375 34.0758C16.6451 33.9453 16.6451 33.73 16.6711 33.4399C16.6963 33.1311 16.7368 32.9724 16.7368 32.9158C16.7368 32.8595 16.7193 32.8408 16.6956 32.8408C16.6625 32.8408 16.6374 32.8789 16.596 32.9343C16.513 33.0464 16.405 33.0748 16.1809 33.0933C15.99 33.1132 14.9683 33.1132 14.8603 33.1132C14.8187 33.1132 14.8109 33.0848 14.8109 33.0196V30.4369C14.8109 30.3715 14.826 30.3433 14.8603 30.3433C14.9517 30.3433 15.8568 30.3519 15.9978 30.3718C16.3633 30.4096 16.538 30.5031 16.596 30.7184C16.6213 30.7926 16.6375 30.9056 16.6375 31.0273C16.6375 31.1012 16.6525 31.1482 16.704 31.1482C16.7368 31.1482 16.7618 31.0827 16.7704 30.9892C16.7856 30.7458 16.7957 30.5686 16.8036 30.4284C16.8187 30.1662 16.8699 30.0542 16.8699 29.9882C16.8699 29.9413 16.8624 29.9043 16.8371 29.9043C16.8119 29.9043 16.7954 29.9128 16.7455 29.9412C16.6955 29.9697 16.5459 29.9882 16.3634 29.9978C16.1723 30.0064 14.5203 30.0063 14.4618 30.0063C13.9388 29.9779 13.7147 29.9779 13.5239 29.9779C13.4323 29.9779 13.3906 29.9978 13.3906 30.0527C13.3906 30.0899 13.4408 30.0997 13.4986 30.1085C13.5731 30.117 13.6811 30.1169 13.7399 30.1369C14.0137 30.2023 14.0796 30.3522 14.0968 30.6707C14.1145 30.9696 14.1144 31.2318 14.1144 32.6906V34.3366ZM23.0223 34.3366C23.0223 35.2347 23.0223 35.9741 22.9807 36.3674C22.9471 36.6381 22.9057 36.8437 22.7396 36.8815C22.6651 36.9014 22.5987 36.91 22.5071 36.9189C22.4405 36.9189 22.4241 36.9472 22.4241 36.9751C22.4241 37.0317 22.4654 37.0502 22.557 37.0502C22.6815 37.0502 22.8725 37.0303 23.0386 37.0303C23.213 37.0218 23.3542 37.0218 23.3706 37.0218C23.4122 37.0218 23.6947 37.0502 24.0604 37.0781C24.4173 37.1065 24.8572 37.1338 25.2143 37.1338C26.626 37.1338 27.3729 36.4792 27.73 36.0583C28.195 35.506 28.6271 34.5986 28.6271 33.4198C28.6271 32.3067 28.2366 31.5295 27.8214 31.0435C26.8335 29.8923 25.3139 29.9771 24.4918 29.9771C23.9938 29.9771 23.4708 30.0055 23.3706 30.0055C23.3292 30.0055 22.8063 29.9771 22.4327 29.9771C22.3411 29.9771 22.2996 29.997 22.2996 30.0519C22.2996 30.0891 22.3332 30.1076 22.391 30.1076C22.4654 30.1076 22.6073 30.1162 22.6729 30.1361C22.947 30.2015 22.9885 30.3513 23.0056 30.6698C23.0233 30.9687 23.0232 31.2309 23.0232 32.6898L23.0223 34.3366ZM23.7197 32.5407C23.7197 31.8201 23.7197 30.8655 23.7272 30.5481C23.7272 30.4449 23.7525 30.398 23.8272 30.361C23.8931 30.3232 24.2008 30.295 24.3669 30.295C25.3548 30.295 26.3015 30.4264 27.0819 31.3526C27.4227 31.7548 27.879 32.5223 27.879 33.7096C27.879 34.5704 27.6465 35.4684 27.2149 35.9456C26.725 36.4979 26.0109 36.8164 25.2388 36.8164C24.2587 36.8164 23.9352 36.6196 23.8272 36.4416C23.7608 36.3392 23.7444 35.965 23.7359 35.7307C23.7283 35.5532 23.7181 34.6921 23.7181 33.7007L23.7197 32.5407ZM34.9771 32.6898C34.9771 31.2309 34.9771 30.9687 34.9948 30.6698C35.0099 30.3416 35.0778 30.173 35.3017 30.1361C35.4011 30.119 35.4511 30.1076 35.5092 30.1076C35.5427 30.1076 35.5756 30.0877 35.5756 30.0519C35.5756 29.9956 35.5341 29.9771 35.4425 29.9771C35.1936 29.9771 34.6956 30.0055 34.6204 30.0055C34.546 30.0055 34.0394 29.9771 33.6661 29.9771C33.5744 29.9771 33.5331 29.997 33.5331 30.0519C33.5331 30.0891 33.5659 30.1076 33.5995 30.1076C33.674 30.1076 33.8155 30.1162 33.8814 30.1361C34.1555 30.2015 34.2218 30.3513 34.239 30.6698C34.2567 30.9687 34.2567 31.2309 34.2567 32.6898V34.0562C34.2567 35.4218 34.5722 36.0771 34.9786 36.5164C35.568 37.1438 36.4074 37.1807 36.6891 37.1807C37.1792 37.1807 37.8016 37.0871 38.3998 36.4882C39.0644 35.8239 39.164 34.7021 39.164 33.6911V32.6898C39.164 31.2309 39.164 30.9687 39.1817 30.6698C39.1968 30.3416 39.2644 30.1927 39.489 30.1361C39.5887 30.119 39.638 30.1076 39.6968 30.1076C39.7296 30.1076 39.7623 30.0877 39.7623 30.0519C39.7623 29.9956 39.721 29.9771 39.6301 29.9771C39.381 29.9771 38.9905 30.0055 38.9324 30.0055C38.8824 30.0055 38.4259 29.9771 38.0526 29.9771C37.961 29.9771 37.9193 29.997 37.9193 30.0519C37.9193 30.0891 37.9523 30.1076 37.9859 30.1076C38.0604 30.1076 38.2021 30.1162 38.268 30.1361C38.5418 30.2015 38.6084 30.3513 38.6248 30.6698C38.6424 30.9687 38.6425 31.2309 38.6425 32.6898V33.8595C38.6425 34.8238 38.5422 35.6186 38.1611 36.1521C37.862 36.5545 37.3633 36.8252 36.8567 36.8252C36.3837 36.8252 36.0104 36.7414 35.6033 36.3108C35.2461 35.9272 34.9801 35.3476 34.9801 33.9999L34.9771 32.6898ZM47.3726 30.3794C47.7209 30.388 48.0702 30.388 48.4185 30.3994C49.2156 30.4193 49.4153 30.6332 49.4403 30.9139C49.4403 30.9517 49.4479 30.9798 49.4479 31.017C49.4554 31.1476 49.473 31.1758 49.5144 31.1758C49.548 31.1758 49.573 31.1388 49.573 31.054C49.573 30.9516 49.5982 30.3061 49.5982 30.0254C49.5982 29.9691 49.5983 29.9125 49.5566 29.9125C49.5238 29.9125 49.4486 29.941 49.3242 29.9595C49.1919 29.9879 49.0009 30.0061 48.7346 30.0061H45.6208C45.5214 30.0061 45.2059 29.989 44.9649 29.9595C44.7407 29.9396 44.6577 29.8474 44.5999 29.8474C44.5664 29.8474 44.5333 29.9691 44.5161 30.0254C44.501 30.1005 44.3337 30.905 44.3337 30.9983C44.3337 31.054 44.3513 31.0821 44.3753 31.0821C44.4089 31.0821 44.4331 31.0651 44.4584 30.9886C44.4836 30.9235 44.5083 30.8581 44.5999 30.6985C44.7322 30.4744 44.9319 30.4091 45.4463 30.3994C45.8534 30.3909 46.2684 30.3908 46.6755 30.3794V34.3366C46.6755 35.2347 46.6755 35.9741 46.6341 36.3674C46.601 36.6381 46.5597 36.8437 46.3928 36.8815C46.3186 36.9014 46.2191 36.9189 46.1439 36.9189C46.0944 36.9189 46.0773 36.9472 46.0773 36.9751C46.0773 37.0317 46.1189 37.0502 46.2106 37.0502C46.4594 37.0502 46.9823 37.0218 47.024 37.0218C47.0661 37.0218 47.5891 37.0502 48.0457 37.0502C48.137 37.0502 48.1788 37.0217 48.1788 36.9751C48.1788 36.9466 48.1636 36.9189 48.1121 36.9189C48.0371 36.9189 47.8547 36.8989 47.7386 36.8815C47.489 36.8437 47.4397 36.6381 47.4145 36.3674C47.3731 35.9741 47.3731 35.2347 47.3731 34.3366L47.3726 30.3794ZM57.1603 34.29C57.2017 34.29 57.2183 34.3099 57.2347 34.3463L58.0073 36.6478C58.0568 36.7971 58.0074 36.8816 57.9574 36.9004C57.9243 36.9089 57.8993 36.9288 57.8993 36.9655C57.8993 37.022 57.9909 37.022 58.1484 37.0317C58.7214 37.0516 59.3274 37.0516 59.4519 37.0516C59.5435 37.0516 59.6179 37.0317 59.6179 36.9766C59.6179 36.9299 59.5765 36.9202 59.527 36.9202C59.4604 36.9202 59.3273 36.9117 59.2029 36.8645C59.0283 36.8082 58.788 36.6583 58.4889 35.8253C57.9823 34.4034 56.6787 30.5398 56.5543 30.1841C56.4548 29.894 56.4212 29.8474 56.3709 29.8474C56.3217 29.8474 56.288 29.9037 56.1885 30.2125L54.3041 36.0222C54.1547 36.4897 53.9886 36.8452 53.6064 36.9018C53.54 36.9103 53.4648 36.9216 53.4068 36.9216C53.3326 36.9216 53.2909 36.9416 53.2909 36.978C53.2909 37.0345 53.3403 37.053 53.4484 37.053C53.8388 37.053 54.2955 37.0246 54.3872 37.0246C54.478 37.0246 54.8107 37.053 55.0095 37.053C55.0848 37.053 55.159 37.0331 55.159 36.978C55.159 36.941 55.1338 36.9216 55.051 36.9216C55.0257 36.9216 55.001 36.9216 54.9767 36.9216C54.8349 36.9216 54.6776 36.8377 54.6776 36.6506C54.6776 36.4822 54.7189 36.2573 54.7934 36.0236L55.2922 34.3679C55.3074 34.321 55.3336 34.2929 55.375 34.2929L57.1603 34.29ZM55.4659 33.953C55.4406 33.953 55.4244 33.9331 55.4406 33.8878L56.1711 31.3614C56.2128 31.2212 56.2542 31.2212 56.2956 31.3614L57.0848 33.8878C57.0924 33.9248 57.0924 33.953 57.0512 33.953H55.4659ZM64.8308 34.3366C64.8308 35.2347 64.8308 35.9741 64.7894 36.3674C64.7558 36.6381 64.7064 36.8534 64.5403 36.8913C64.4653 36.9112 64.3744 36.9196 64.3241 36.9196C64.2492 36.9196 64.2326 36.9481 64.2326 36.976C64.2326 37.0325 64.2743 37.051 64.3659 37.051C64.6148 37.051 65.1377 37.0226 65.1793 37.0226C65.2207 37.0226 65.7523 37.051 66.2089 37.051C66.3005 37.051 66.3341 37.0226 66.3341 36.976C66.3341 36.9475 66.3089 36.9196 66.234 36.9196C66.1845 36.9196 66.01 36.8997 65.8933 36.8824C65.6442 36.8446 65.5951 36.639 65.5698 36.3683C65.5284 35.975 65.5284 35.2356 65.5284 34.3375V32.6906C65.5284 31.2318 65.5285 30.9696 65.5436 30.6707C65.5613 30.3425 65.6266 30.1835 65.8505 30.1369C65.9507 30.1198 66.0002 30.1085 66.0588 30.1085C66.0916 30.1085 66.1246 30.0885 66.1246 30.0527C66.1246 29.9964 66.083 29.9779 65.9921 29.9779C65.7432 29.9779 65.2195 30.0063 65.1781 30.0063C65.1364 30.0063 64.6135 29.9779 64.3394 29.9779C64.248 29.9779 64.2063 29.9978 64.2063 30.0527C64.2063 30.0899 64.2399 30.1085 64.273 30.1085C64.3316 30.1085 64.4388 30.117 64.5304 30.1463C64.7129 30.1932 64.796 30.3519 64.8131 30.6704C64.8308 30.9693 64.8308 31.2315 64.8308 32.6904V34.3366ZM72.2373 35.6749C72.2373 36.5261 72.1958 36.7971 71.9884 36.863C71.8639 36.91 71.7143 36.9189 71.6479 36.9189C71.6063 36.9189 71.5814 36.9387 71.5814 36.9751C71.5814 37.0405 71.6313 37.0502 71.7143 37.0502C72.0879 37.0502 72.4362 37.0218 72.5129 37.0218C72.5874 37.0218 72.9192 37.0502 73.3915 37.0502C73.4909 37.0502 73.5409 37.0303 73.5409 36.9751C73.5409 36.9381 73.5158 36.9189 73.4744 36.9189C73.4002 36.9189 73.2184 36.9103 73.0609 36.863C72.8363 36.7883 72.7532 36.5448 72.7368 35.7773L72.6288 31.2961C72.8948 31.633 73.8314 32.8115 74.7939 33.9811C75.6725 35.0479 76.8666 36.4229 76.958 36.5164C77.3982 37.0124 77.499 37.1153 77.5656 37.1153C77.6237 37.1153 77.64 37.0686 77.64 36.4512L77.6577 30.9872C77.6577 30.3416 77.7154 30.2014 77.9481 30.1457C78.0476 30.1258 78.0976 30.1173 78.1643 30.1079C78.2221 30.0993 78.2551 30.0794 78.2551 30.0424C78.2551 29.9861 78.197 29.9773 78.1054 29.9773C77.7657 29.9773 77.4916 30.0058 77.3988 30.0058C77.3071 30.0058 76.9086 29.9773 76.5365 29.9773C76.4371 29.9773 76.3704 29.9858 76.3704 30.0424C76.3704 30.0797 76.3956 30.1079 76.4864 30.1079C76.5614 30.1079 76.6924 30.1165 76.8419 30.1546C77.0996 30.2296 77.1574 30.4352 77.166 31.0438L77.2576 35.7966C76.9916 35.4878 76.0879 34.3463 75.2671 33.3541C73.99 31.8105 72.7537 30.3047 72.6292 30.1457C72.5462 30.0521 72.4039 29.8459 72.3373 29.8459C72.2709 29.8459 72.2459 29.9489 72.2459 30.3135C72.2535 32.1287 72.2382 30.9124 72.2382 34.29L72.2373 35.6749ZM90.0206 30.0991C90.0029 29.9208 89.979 29.8459 89.9209 29.8459C89.8631 29.8459 89.8295 29.9111 89.7965 29.9958L87.3553 35.8709L84.814 29.9862C84.7724 29.8838 84.7395 29.8459 84.6895 29.8459C84.6393 29.8459 84.6066 29.9304 84.598 30.0328L84.0006 36.1143C83.959 36.4979 83.9425 36.8349 83.6686 36.8913C83.5432 36.9197 83.4854 36.9196 83.4188 36.9196C83.3774 36.9196 83.3357 36.9396 83.3357 36.976C83.3357 37.0414 83.3946 37.051 83.4776 37.051C83.7015 37.051 84.1 37.0226 84.175 37.0226C84.2409 37.0226 84.6644 37.051 84.9721 37.051C85.0551 37.051 85.0966 37.0312 85.0966 36.9663C85.0966 36.9379 85.0629 36.9196 85.0137 36.9196C84.9635 36.9196 84.8555 36.9197 84.7147 36.8824C84.5902 36.854 84.4907 36.7794 84.4907 36.5457C84.4907 36.3867 84.4983 36.2554 84.5059 36.1064L84.8464 31.6993C84.9372 31.9524 85.8924 34.2627 85.9668 34.431C86.0082 34.5246 86.723 36.1433 86.9386 36.602C87.0966 36.939 87.138 37.0325 87.196 37.0325C87.2712 37.0325 87.2954 36.9478 87.4701 36.5358L89.5292 31.6153L89.9277 36.4988C89.9454 36.6674 89.9529 36.8076 89.8946 36.8358C89.8532 36.8529 89.8368 36.8642 89.8368 36.9011C89.8368 36.9478 89.8782 36.976 90.0693 36.9944C90.3762 37.0229 91.3228 37.051 91.506 37.051C91.6054 37.051 91.6305 37.0311 91.6305 36.976C91.6305 36.9293 91.5805 36.9196 91.5388 36.9196C91.4558 36.9196 91.265 36.9197 91.0237 36.8358C90.6668 36.7044 90.6088 36.1802 90.576 35.8441L90.0206 30.0991ZM97.1429 34.3366C97.1429 35.1696 97.1353 35.6468 97.1278 36.0119C97.1101 36.7132 97.0034 36.8438 96.8287 36.8913C96.7709 36.9112 96.7206 36.9111 96.6376 36.9196C96.5876 36.9282 96.5462 36.9481 96.5462 36.976C96.5462 37.0325 96.5877 37.051 96.6793 37.051C96.8954 37.0596 97.0942 37.0226 97.2938 37.0226C97.6172 37.0226 97.9993 37.0425 98.332 37.051C98.6553 37.0596 98.9295 37.0795 99.5441 37.0795C99.8682 37.0795 99.934 37.0795 99.9926 36.8361C100.034 36.6393 100.101 36.0033 100.101 35.9283C100.101 35.8631 100.101 35.7881 100.051 35.7881C100.009 35.7881 99.9925 35.825 99.9761 35.9283C99.9094 36.3307 99.8179 36.5272 99.5526 36.6207C99.3279 36.6958 99.0538 36.7047 98.805 36.7047C98.4809 36.7047 98.2567 36.6847 98.1159 36.6207C97.9084 36.5272 97.8582 36.3216 97.8418 35.938C97.8342 35.7415 97.8418 34.6562 97.8418 34.3377V33.5147C97.8418 33.4769 97.8595 33.4497 97.8999 33.4497C98.0407 33.4497 98.8628 33.4695 99.0875 33.4963C99.3858 33.5332 99.4859 33.6641 99.519 33.8051C99.5442 33.889 99.5526 33.9823 99.5526 34.0671C99.5526 34.1413 99.5601 34.2161 99.6104 34.2161C99.6434 34.2161 99.6598 34.1694 99.6684 34.0758C99.676 33.9453 99.676 33.73 99.702 33.4399C99.7273 33.1311 99.7679 32.9724 99.7679 32.9158C99.7679 32.8595 99.7528 32.8408 99.7265 32.8408C99.6934 32.8408 99.6685 32.8789 99.6271 32.9343C99.5441 33.0464 99.436 33.0748 99.2121 33.0933C99.0211 33.1132 97.9993 33.1132 97.8913 33.1132C97.8496 33.1132 97.8418 33.0848 97.8418 33.0196V30.4369C97.8418 30.3715 97.8595 30.3433 97.8913 30.3433C97.9829 30.3433 98.8879 30.3519 99.0289 30.3718C99.3944 30.4096 99.5691 30.5031 99.6271 30.7184C99.6524 30.7926 99.6684 30.9056 99.6684 31.0273C99.6684 31.1012 99.6862 31.1482 99.7351 31.1482C99.7679 31.1482 99.793 31.0827 99.8015 30.9892C99.8167 30.7458 99.8267 30.5686 99.8345 30.4284C99.8496 30.1662 99.9009 30.0542 99.9009 29.9882C99.9009 29.9413 99.8933 29.9043 99.8681 29.9043C99.8428 29.9043 99.8264 29.9128 99.7764 29.9412C99.7264 29.9697 99.5769 29.9882 99.3944 29.9978C99.2035 30.0064 97.5513 30.0063 97.4927 30.0063C96.9697 29.9779 96.7459 29.9779 96.5548 29.9779C96.4632 29.9779 96.4216 29.9978 96.4216 30.0527C96.4216 30.0899 96.4718 30.0997 96.5296 30.1085C96.604 30.117 96.712 30.1169 96.7708 30.1369C97.0447 30.2023 97.1106 30.3522 97.1278 30.6707C97.1429 30.9696 97.1429 31.2318 97.1429 32.6906V34.3366ZM105.961 35.6749C105.961 36.5261 105.92 36.7971 105.712 36.863C105.588 36.91 105.438 36.9189 105.372 36.9189C105.33 36.9189 105.305 36.9387 105.305 36.9751C105.305 37.0405 105.355 37.0502 105.438 37.0502C105.812 37.0502 106.16 37.0218 106.237 37.0218C106.311 37.0218 106.643 37.0502 107.115 37.0502C107.215 37.0502 107.265 37.0303 107.265 36.9751C107.265 36.9381 107.24 36.9189 107.198 36.9189C107.124 36.9189 106.942 36.9103 106.785 36.863C106.56 36.7883 106.477 36.5448 106.461 35.7773L106.353 31.2961C106.619 31.633 107.555 32.8115 108.518 33.9811C109.396 35.0479 110.59 36.4229 110.682 36.5164C111.122 37.0124 111.223 37.1153 111.289 37.1153C111.347 37.1153 111.364 37.0686 111.364 36.4512L111.382 30.9872C111.382 30.3416 111.439 30.2014 111.672 30.1457C111.771 30.1258 111.821 30.1173 111.888 30.1079C111.946 30.0993 111.979 30.0794 111.979 30.0424C111.979 29.9861 111.921 29.9773 111.829 29.9773C111.489 29.9773 111.215 30.0058 111.123 30.0058C111.031 30.0058 110.632 29.9773 110.26 29.9773C110.161 29.9773 110.094 29.9858 110.094 30.0424C110.094 30.0797 110.12 30.1079 110.21 30.1079C110.285 30.1079 110.416 30.1165 110.566 30.1546C110.823 30.2296 110.881 30.4352 110.89 31.0438L110.981 35.7966C110.715 35.4878 109.812 34.3463 108.991 33.3541C107.714 31.8105 106.478 30.3047 106.353 30.1457C106.27 30.0521 106.128 29.8459 106.061 29.8459C105.995 29.8459 105.97 29.9489 105.97 30.3135C105.977 32.1287 105.962 30.9124 105.962 34.29L105.961 35.6749ZM119.891 30.3794C120.24 30.388 120.589 30.388 120.938 30.3994C121.735 30.4193 121.934 30.6332 121.959 30.9139C121.959 30.9517 121.967 30.9798 121.967 31.017C121.974 31.1476 121.992 31.1758 122.033 31.1758C122.067 31.1758 122.092 31.1388 122.092 31.054C122.092 30.9516 122.117 30.3061 122.117 30.0254C122.117 29.9691 122.117 29.9125 122.076 29.9125C122.043 29.9125 121.967 29.941 121.843 29.9595C121.711 29.9879 121.52 30.0061 121.253 30.0061H118.14C118.04 30.0061 117.725 29.989 117.484 29.9595C117.26 29.9396 117.177 29.8474 117.119 29.8474C117.085 29.8474 117.052 29.9691 117.035 30.0254C117.02 30.1005 116.853 30.905 116.853 30.9983C116.853 31.054 116.87 31.0821 116.894 31.0821C116.928 31.0821 116.952 31.0651 116.977 30.9886C117.002 30.9235 117.027 30.8581 117.119 30.6985C117.251 30.4744 117.451 30.4091 117.965 30.3994C118.372 30.3909 118.787 30.3908 119.194 30.3794V34.3366C119.194 35.2347 119.194 35.9741 119.153 36.3674C119.12 36.6381 119.079 36.8437 118.912 36.8815C118.838 36.9014 118.738 36.9189 118.663 36.9189C118.613 36.9189 118.596 36.9472 118.596 36.9751C118.596 37.0317 118.638 37.0502 118.729 37.0502C118.978 37.0502 119.501 37.0218 119.543 37.0218C119.585 37.0218 120.108 37.0502 120.565 37.0502C120.656 37.0502 120.698 37.0217 120.698 36.9751C120.698 36.9466 120.683 36.9189 120.631 36.9189C120.556 36.9189 120.374 36.8989 120.258 36.8815C120.008 36.8437 119.959 36.6381 119.933 36.3674C119.892 35.9741 119.892 35.2347 119.892 34.3366L119.891 30.3794Z" fill="white"/>
<path fill-rule="evenodd" clip-rule="evenodd" d="M14.1144 34.3366C14.1144 35.1696 14.1069 35.6468 14.0968 36.0119C14.0791 36.7132 13.9723 36.8438 13.7976 36.8913C13.7398 36.9112 13.6897 36.9111 13.6066 36.9196C13.5566 36.9282 13.5153 36.9481 13.5153 36.976C13.5153 37.0325 13.5566 37.051 13.6482 37.051C13.8643 37.0596 14.0632 37.0226 14.2629 37.0226C14.5862 37.0226 14.9684 37.0425 15.3011 37.051C15.6244 37.0596 15.8984 37.0795 16.513 37.0795C16.8371 37.0795 16.9031 37.0795 16.9616 36.8361C17.003 36.6393 17.0696 36.0033 17.0696 35.9283C17.0696 35.8631 17.0695 35.7881 17.0195 35.7881C16.9779 35.7881 16.9615 35.825 16.9451 35.9283C16.8785 36.3307 16.7869 36.5272 16.5216 36.6207C16.297 36.6958 16.0228 36.7047 15.7737 36.7047C15.4496 36.7047 15.2258 36.6847 15.0849 36.6207C14.8774 36.5272 14.8273 36.3216 14.8109 35.938C14.8033 35.7415 14.8109 34.6562 14.8109 34.3377V33.5147C14.8109 33.4769 14.826 33.4497 14.8689 33.4497C15.0098 33.4497 15.8317 33.4695 16.0564 33.4963C16.3547 33.5332 16.4549 33.6641 16.4877 33.8051C16.513 33.889 16.5216 33.9823 16.5216 34.0671C16.5216 34.1413 16.5292 34.2161 16.5794 34.2161C16.6125 34.2161 16.6289 34.1694 16.6375 34.0758C16.6451 33.9453 16.6451 33.73 16.6711 33.4399C16.6963 33.1311 16.7368 32.9724 16.7368 32.9158C16.7368 32.8595 16.7193 32.8408 16.6956 32.8408C16.6625 32.8408 16.6374 32.8789 16.596 32.9343C16.513 33.0464 16.405 33.0748 16.1809 33.0933C15.99 33.1132 14.9683 33.1132 14.8603 33.1132C14.8187 33.1132 14.8109 33.0848 14.8109 33.0196V30.4369C14.8109 30.3715 14.826 30.3433 14.8603 30.3433C14.9517 30.3433 15.8568 30.3519 15.9978 30.3718C16.3633 30.4096 16.538 30.5031 16.596 30.7184C16.6213 30.7926 16.6375 30.9056 16.6375 31.0273C16.6375 31.1012 16.6525 31.1482 16.704 31.1482C16.7368 31.1482 16.7618 31.0827 16.7704 30.9892C16.7856 30.7458 16.7957 30.5686 16.8036 30.4284C16.8187 30.1662 16.8699 30.0542 16.8699 29.9882C16.8699 29.9413 16.8624 29.9043 16.8371 29.9043C16.8119 29.9043 16.7954 29.9128 16.7455 29.9412C16.6955 29.9697 16.5459 29.9882 16.3634 29.9978C16.1723 30.0064 14.5203 30.0063 14.4618 30.0063C13.9388 29.9779 13.7147 29.9779 13.5239 29.9779C13.4323 29.9779 13.3906 29.9978 13.3906 30.0527C13.3906 30.0899 13.4408 30.0997 13.4986 30.1085C13.5731 30.117 13.6811 30.1169 13.7399 30.1369C14.0137 30.2023 14.0796 30.3522 14.0968 30.6707C14.1145 30.9696 14.1144 31.2318 14.1144 32.6906V34.3366ZM23.0223 34.3366C23.0223 35.2347 23.0223 35.9741 22.9807 36.3674C22.9471 36.6381 22.9057 36.8437 22.7396 36.8815C22.6651 36.9014 22.5987 36.91 22.5071 36.9189C22.4405 36.9189 22.4241 36.9472 22.4241 36.9751C22.4241 37.0317 22.4654 37.0502 22.557 37.0502C22.6815 37.0502 22.8725 37.0303 23.0386 37.0303C23.213 37.0218 23.3542 37.0218 23.3706 37.0218C23.4122 37.0218 23.6947 37.0502 24.0604 37.0781C24.4173 37.1065 24.8572 37.1338 25.2143 37.1338C26.626 37.1338 27.3729 36.4792 27.73 36.0583C28.195 35.506 28.6271 34.5986 28.6271 33.4198C28.6271 32.3067 28.2366 31.5295 27.8214 31.0435C26.8335 29.8923 25.3139 29.9771 24.4918 29.9771C23.9938 29.9771 23.4708 30.0055 23.3706 30.0055C23.3292 30.0055 22.8063 29.9771 22.4327 29.9771C22.3411 29.9771 22.2996 29.997 22.2996 30.0519C22.2996 30.0891 22.3332 30.1076 22.391 30.1076C22.4654 30.1076 22.6073 30.1162 22.6729 30.1361C22.947 30.2015 22.9885 30.3513 23.0056 30.6698C23.0233 30.9687 23.0232 31.2309 23.0232 32.6898L23.0223 34.3366ZM23.7197 32.5407C23.7197 31.8201 23.7197 30.8655 23.7272 30.5481C23.7272 30.4449 23.7525 30.398 23.8272 30.361C23.8931 30.3232 24.2008 30.295 24.3669 30.295C25.3548 30.295 26.3015 30.4264 27.0819 31.3526C27.4227 31.7548 27.879 32.5223 27.879 33.7096C27.879 34.5704 27.6465 35.4684 27.2149 35.9456C26.725 36.4979 26.0109 36.8164 25.2388 36.8164C24.2587 36.8164 23.9352 36.6196 23.8272 36.4416C23.7608 36.3392 23.7444 35.965 23.7359 35.7307C23.7283 35.5532 23.7181 34.6921 23.7181 33.7007L23.7197 32.5407ZM34.9771 32.6898C34.9771 31.2309 34.9771 30.9687 34.9948 30.6698C35.0099 30.3416 35.0778 30.173 35.3017 30.1361C35.4011 30.119 35.4511 30.1076 35.5092 30.1076C35.5427 30.1076 35.5756 30.0877 35.5756 30.0519C35.5756 29.9956 35.5341 29.9771 35.4425 29.9771C35.1936 29.9771 34.6956 30.0055 34.6204 30.0055C34.546 30.0055 34.0394 29.9771 33.6661 29.9771C33.5744 29.9771 33.5331 29.997 33.5331 30.0519C33.5331 30.0891 33.5659 30.1076 33.5995 30.1076C33.674 30.1076 33.8155 30.1162 33.8814 30.1361C34.1555 30.2015 34.2218 30.3513 34.239 30.6698C34.2567 30.9687 34.2567 31.2309 34.2567 32.6898V34.0562C34.2567 35.4218 34.5722 36.0771 34.9786 36.5164C35.568 37.1438 36.4074 37.1807 36.6891 37.1807C37.1792 37.1807 37.8016 37.0871 38.3998 36.4882C39.0644 35.8239 39.164 34.7021 39.164 33.6911V32.6898C39.164 31.2309 39.164 30.9687 39.1817 30.6698C39.1968 30.3416 39.2644 30.1927 39.489 30.1361C39.5887 30.119 39.638 30.1076 39.6968 30.1076C39.7296 30.1076 39.7623 30.0877 39.7623 30.0519C39.7623 29.9956 39.721 29.9771 39.6301 29.9771C39.381 29.9771 38.9905 30.0055 38.9324 30.0055C38.8824 30.0055 38.4259 29.9771 38.0526 29.9771C37.961 29.9771 37.9193 29.997 37.9193 30.0519C37.9193 30.0891 37.9523 30.1076 37.9859 30.1076C38.0604 30.1076 38.2021 30.1162 38.268 30.1361C38.5418 30.2015 38.6084 30.3513 38.6248 30.6698C38.6424 30.9687 38.6425 31.2309 38.6425 32.6898V33.8595C38.6425 34.8238 38.5422 35.6186 38.1611 36.1521C37.862 36.5545 37.3633 36.8252 36.8567 36.8252C36.3837 36.8252 36.0104 36.7414 35.6033 36.3108C35.2461 35.9272 34.9801 35.3476 34.9801 33.9999L34.9771 32.6898ZM47.3726 30.3794C47.7209 30.388 48.0702 30.388 48.4185 30.3994C49.2156 30.4193 49.4153 30.6332 49.4403 30.9139C49.4403 30.9517 49.4479 30.9798 49.4479 31.017C49.4554 31.1476 49.473 31.1758 49.5144 31.1758C49.548 31.1758 49.573 31.1388 49.573 31.054C49.573 30.9516 49.5982 30.3061 49.5982 30.0254C49.5982 29.9691 49.5983 29.9125 49.5566 29.9125C49.5238 29.9125 49.4486 29.941 49.3242 29.9595C49.1919 29.9879 49.0009 30.0061 48.7346 30.0061H45.6208C45.5214 30.0061 45.2059 29.989 44.9649 29.9595C44.7407 29.9396 44.6577 29.8474 44.5999 29.8474C44.5664 29.8474 44.5333 29.9691 44.5161 30.0254C44.501 30.1005 44.3337 30.905 44.3337 30.9983C44.3337 31.054 44.3513 31.0821 44.3753 31.0821C44.4089 31.0821 44.4331 31.0651 44.4584 30.9886C44.4836 30.9235 44.5083 30.8581 44.5999 30.6985C44.7322 30.4744 44.9319 30.4091 45.4463 30.3994C45.8534 30.3909 46.2684 30.3908 46.6755 30.3794V34.3366C46.6755 35.2347 46.6755 35.9741 46.6341 36.3674C46.601 36.6381 46.5597 36.8437 46.3928 36.8815C46.3186 36.9014 46.2191 36.9189 46.1439 36.9189C46.0944 36.9189 46.0773 36.9472 46.0773 36.9751C46.0773 37.0317 46.1189 37.0502 46.2106 37.0502C46.4594 37.0502 46.9823 37.0218 47.024 37.0218C47.0661 37.0218 47.5891 37.0502 48.0457 37.0502C48.137 37.0502 48.1788 37.0217 48.1788 36.9751C48.1788 36.9466 48.1636 36.9189 48.1121 36.9189C48.0371 36.9189 47.8547 36.8989 47.7386 36.8815C47.489 36.8437 47.4397 36.6381 47.4145 36.3674C47.3731 35.9741 47.3731 35.2347 47.3731 34.3366L47.3726 30.3794ZM57.1603 34.29C57.2017 34.29 57.2183 34.3099 57.2347 34.3463L58.0073 36.6478C58.0568 36.7971 58.0074 36.8816 57.9574 36.9004C57.9243 36.9089 57.8993 36.9288 57.8993 36.9655C57.8993 37.022 57.9909 37.022 58.1484 37.0317C58.7214 37.0516 59.3274 37.0516 59.4519 37.0516C59.5435 37.0516 59.6179 37.0317 59.6179 36.9766C59.6179 36.9299 59.5765 36.9202 59.527 36.9202C59.4604 36.9202 59.3273 36.9117 59.2029 36.8645C59.0283 36.8082 58.788 36.6583 58.4889 35.8253C57.9823 34.4034 56.6787 30.5398 56.5543 30.1841C56.4548 29.894 56.4212 29.8474 56.3709 29.8474C56.3217 29.8474 56.288 29.9037 56.1885 30.2125L54.3041 36.0222C54.1547 36.4897 53.9886 36.8452 53.6064 36.9018C53.54 36.9103 53.4648 36.9216 53.4068 36.9216C53.3326 36.9216 53.2909 36.9416 53.2909 36.978C53.2909 37.0345 53.3403 37.053 53.4484 37.053C53.8388 37.053 54.2955 37.0246 54.3872 37.0246C54.478 37.0246 54.8107 37.053 55.0095 37.053C55.0848 37.053 55.159 37.0331 55.159 36.978C55.159 36.941 55.1338 36.9216 55.051 36.9216C55.0257 36.9216 55.001 36.9216 54.9767 36.9216C54.8349 36.9216 54.6776 36.8377 54.6776 36.6506C54.6776 36.4822 54.7189 36.2573 54.7934 36.0236L55.2922 34.3679C55.3074 34.321 55.3336 34.2929 55.375 34.2929L57.1603 34.29ZM55.4659 33.953C55.4406 33.953 55.4244 33.9331 55.4406 33.8878L56.1711 31.3614C56.2128 31.2212 56.2542 31.2212 56.2956 31.3614L57.0848 33.8878C57.0924 33.9248 57.0924 33.953 57.0512 33.953H55.4659ZM64.8308 34.3366C64.8308 35.2347 64.8308 35.9741 64.7894 36.3674C64.7558 36.6381 64.7064 36.8534 64.5403 36.8913C64.4653 36.9112 64.3744 36.9196 64.3241 36.9196C64.2492 36.9196 64.2326 36.9481 64.2326 36.976C64.2326 37.0325 64.2743 37.051 64.3659 37.051C64.6148 37.051 65.1377 37.0226 65.1793 37.0226C65.2207 37.0226 65.7523 37.051 66.2089 37.051C66.3005 37.051 66.3341 37.0226 66.3341 36.976C66.3341 36.9475 66.3089 36.9196 66.234 36.9196C66.1845 36.9196 66.01 36.8997 65.8933 36.8824C65.6442 36.8446 65.5951 36.639 65.5698 36.3683C65.5284 35.975 65.5284 35.2356 65.5284 34.3375V32.6906C65.5284 31.2318 65.5285 30.9696 65.5436 30.6707C65.5613 30.3425 65.6266 30.1835 65.8505 30.1369C65.9507 30.1198 66.0002 30.1085 66.0588 30.1085C66.0916 30.1085 66.1246 30.0885 66.1246 30.0527C66.1246 29.9964 66.083 29.9779 65.9921 29.9779C65.7432 29.9779 65.2195 30.0063 65.1781 30.0063C65.1364 30.0063 64.6135 29.9779 64.3394 29.9779C64.248 29.9779 64.2063 29.9978 64.2063 30.0527C64.2063 30.0899 64.2399 30.1085 64.273 30.1085C64.3316 30.1085 64.4388 30.117 64.5304 30.1463C64.7129 30.1932 64.796 30.3519 64.8131 30.6704C64.8308 30.9693 64.8308 31.2315 64.8308 32.6904V34.3366ZM72.2373 35.6749C72.2373 36.5261 72.1958 36.7971 71.9884 36.863C71.8639 36.91 71.7143 36.9189 71.6479 36.9189C71.6063 36.9189 71.5814 36.9387 71.5814 36.9751C71.5814 37.0405 71.6313 37.0502 71.7143 37.0502C72.0879 37.0502 72.4362 37.0218 72.5129 37.0218C72.5874 37.0218 72.9192 37.0502 73.3915 37.0502C73.4909 37.0502 73.5409 37.0303 73.5409 36.9751C73.5409 36.9381 73.5158 36.9189 73.4744 36.9189C73.4002 36.9189 73.2184 36.9103 73.0609 36.863C72.8363 36.7883 72.7532 36.5448 72.7368 35.7773L72.6288 31.2961C72.8948 31.633 73.8314 32.8115 74.7939 33.9811C75.6725 35.0479 76.8666 36.4229 76.958 36.5164C77.3982 37.0124 77.499 37.1153 77.5656 37.1153C77.6237 37.1153 77.64 37.0686 77.64 36.4512L77.6577 30.9872C77.6577 30.3416 77.7154 30.2014 77.9481 30.1457C78.0476 30.1258 78.0976 30.1173 78.1643 30.1079C78.2221 30.0993 78.2551 30.0794 78.2551 30.0424C78.2551 29.9861 78.197 29.9773 78.1054 29.9773C77.7657 29.9773 77.4916 30.0058 77.3988 30.0058C77.3071 30.0058 76.9086 29.9773 76.5365 29.9773C76.4371 29.9773 76.3704 29.9858 76.3704 30.0424C76.3704 30.0797 76.3956 30.1079 76.4864 30.1079C76.5614 30.1079 76.6924 30.1165 76.8419 30.1546C77.0996 30.2296 77.1574 30.4352 77.166 31.0438L77.2576 35.7966C76.9916 35.4878 76.0879 34.3463 75.2671 33.3541C73.99 31.8105 72.7537 30.3047 72.6292 30.1457C72.5462 30.0521 72.4039 29.8459 72.3373 29.8459C72.2709 29.8459 72.2459 29.9489 72.2459 30.3135C72.2535 32.1287 72.2382 30.9124 72.2382 34.29L72.2373 35.6749ZM90.0206 30.0991C90.0029 29.9208 89.979 29.8459 89.9209 29.8459C89.8631 29.8459 89.8295 29.9111 89.7965 29.9958L87.3553 35.8709L84.814 29.9862C84.7724 29.8838 84.7395 29.8459 84.6895 29.8459C84.6393 29.8459 84.6066 29.9304 84.598 30.0328L84.0006 36.1143C83.959 36.4979 83.9425 36.8349 83.6686 36.8913C83.5432 36.9197 83.4854 36.9196 83.4188 36.9196C83.3774 36.9196 83.3357 36.9396 83.3357 36.976C83.3357 37.0414 83.3946 37.051 83.4776 37.051C83.7015 37.051 84.1 37.0226 84.175 37.0226C84.2409 37.0226 84.6644 37.051 84.9721 37.051C85.0551 37.051 85.0966 37.0312 85.0966 36.9663C85.0966 36.9379 85.0629 36.9196 85.0137 36.9196C84.9635 36.9196 84.8555 36.9197 84.7147 36.8824C84.5902 36.854 84.4907 36.7794 84.4907 36.5457C84.4907 36.3867 84.4983 36.2554 84.5059 36.1064L84.8464 31.6993C84.9372 31.9524 85.8924 34.2627 85.9668 34.431C86.0082 34.5246 86.723 36.1433 86.9386 36.602C87.0966 36.939 87.138 37.0325 87.196 37.0325C87.2712 37.0325 87.2954 36.9478 87.4701 36.5358L89.5292 31.6153L89.9277 36.4988C89.9454 36.6674 89.9529 36.8076 89.8946 36.8358C89.8532 36.8529 89.8368 36.8642 89.8368 36.9011C89.8368 36.9478 89.8782 36.976 90.0693 36.9944C90.3762 37.0229 91.3228 37.051 91.506 37.051C91.6054 37.051 91.6305 37.0311 91.6305 36.976C91.6305 36.9293 91.5805 36.9196 91.5388 36.9196C91.4558 36.9196 91.265 36.9197 91.0237 36.8358C90.6668 36.7044 90.6088 36.1802 90.576 35.8441L90.0206 30.0991ZM97.1429 34.3366C97.1429 35.1696 97.1353 35.6468 97.1278 36.0119C97.1101 36.7132 97.0034 36.8438 96.8287 36.8913C96.7709 36.9112 96.7206 36.9111 96.6376 36.9196C96.5876 36.9282 96.5462 36.9481 96.5462 36.976C96.5462 37.0325 96.5877 37.051 96.6793 37.051C96.8954 37.0596 97.0942 37.0226 97.2938 37.0226C97.6172 37.0226 97.9993 37.0425 98.332 37.051C98.6553 37.0596 98.9295 37.0795 99.5441 37.0795C99.8682 37.0795 99.934 37.0795 99.9926 36.8361C100.034 36.6393 100.101 36.0033 100.101 35.9283C100.101 35.8631 100.101 35.7881 100.051 35.7881C100.009 35.7881 99.9925 35.825 99.9761 35.9283C99.9094 36.3307 99.8179 36.5272 99.5526 36.6207C99.3279 36.6958 99.0538 36.7047 98.805 36.7047C98.4809 36.7047 98.2567 36.6847 98.1159 36.6207C97.9084 36.5272 97.8582 36.3216 97.8418 35.938C97.8342 35.7415 97.8418 34.6562 97.8418 34.3377V33.5147C97.8418 33.4769 97.8595 33.4497 97.8999 33.4497C98.0407 33.4497 98.8628 33.4695 99.0875 33.4963C99.3858 33.5332 99.4859 33.6641 99.519 33.8051C99.5442 33.889 99.5526 33.9823 99.5526 34.0671C99.5526 34.1413 99.5601 34.2161 99.6104 34.2161C99.6434 34.2161 99.6598 34.1694 99.6684 34.0758C99.676 33.9453 99.676 33.73 99.702 33.4399C99.7273 33.1311 99.7679 32.9724 99.7679 32.9158C99.7679 32.8595 99.7528 32.8408 99.7265 32.8408C99.6934 32.8408 99.6685 32.8789 99.6271 32.9343C99.5441 33.0464 99.436 33.0748 99.2121 33.0933C99.0211 33.1132 97.9993 33.1132 97.8913 33.1132C97.8496 33.1132 97.8418 33.0848 97.8418 33.0196V30.4369C97.8418 30.3715 97.8595 30.3433 97.8913 30.3433C97.9829 30.3433 98.8879 30.3519 99.0289 30.3718C99.3944 30.4096 99.5691 30.5031 99.6271 30.7184C99.6524 30.7926 99.6684 30.9056 99.6684 31.0273C99.6684 31.1012 99.6862 31.1482 99.7351 31.1482C99.7679 31.1482 99.793 31.0827 99.8015 30.9892C99.8167 30.7458 99.8267 30.5686 99.8345 30.4284C99.8496 30.1662 99.9009 30.0542 99.9009 29.9882C99.9009 29.9413 99.8933 29.9043 99.8681 29.9043C99.8428 29.9043 99.8264 29.9128 99.7764 29.9412C99.7264 29.9697 99.5769 29.9882 99.3944 29.9978C99.2035 30.0064 97.5513 30.0063 97.4927 30.0063C96.9697 29.9779 96.7459 29.9779 96.5548 29.9779C96.4632 29.9779 96.4216 29.9978 96.4216 30.0527C96.4216 30.0899 96.4718 30.0997 96.5296 30.1085C96.604 30.117 96.712 30.1169 96.7708 30.1369C97.0447 30.2023 97.1106 30.3522 97.1278 30.6707C97.1429 30.9696 97.1429 31.2318 97.1429 32.6906V34.3366ZM105.961 35.6749C105.961 36.5261 105.92 36.7971 105.712 36.863C105.588 36.91 105.438 36.9189 105.372 36.9189C105.33 36.9189 105.305 36.9387 105.305 36.9751C105.305 37.0405 105.355 37.0502 105.438 37.0502C105.812 37.0502 106.16 37.0218 106.237 37.0218C106.311 37.0218 106.643 37.0502 107.115 37.0502C107.215 37.0502 107.265 37.0303 107.265 36.9751C107.265 36.9381 107.24 36.9189 107.198 36.9189C107.124 36.9189 106.942 36.9103 106.785 36.863C106.56 36.7883 106.477 36.5448 106.461 35.7773L106.353 31.2961C106.619 31.633 107.555 32.8115 108.518 33.9811C109.396 35.0479 110.59 36.4229 110.682 36.5164C111.122 37.0124 111.223 37.1153 111.289 37.1153C111.347 37.1153 111.364 37.0686 111.364 36.4512L111.382 30.9872C111.382 30.3416 111.439 30.2014 111.672 30.1457C111.771 30.1258 111.821 30.1173 111.888 30.1079C111.946 30.0993 111.979 30.0794 111.979 30.0424C111.979 29.9861 111.921 29.9773 111.829 29.9773C111.489 29.9773 111.215 30.0058 111.123 30.0058C111.031 30.0058 110.632 29.9773 110.26 29.9773C110.161 29.9773 110.094 29.9858 110.094 30.0424C110.094 30.0797 110.12 30.1079 110.21 30.1079C110.285 30.1079 110.416 30.1165 110.566 30.1546C110.823 30.2296 110.881 30.4352 110.89 31.0438L110.981 35.7966C110.715 35.4878 109.812 34.3463 108.991 33.3541C107.714 31.8105 106.478 30.3047 106.353 30.1457C106.27 30.0521 106.128 29.8459 106.061 29.8459C105.995 29.8459 105.97 29.9489 105.97 30.3135C105.977 32.1287 105.962 30.9124 105.962 34.29L105.961 35.6749ZM119.891 30.3794C120.24 30.388 120.589 30.388 120.938 30.3994C121.735 30.4193 121.934 30.6332 121.959 30.9139C121.959 30.9517 121.967 30.9798 121.967 31.017C121.974 31.1476 121.992 31.1758 122.033 31.1758C122.067 31.1758 122.092 31.1388 122.092 31.054C122.092 30.9516 122.117 30.3061 122.117 30.0254C122.117 29.9691 122.117 29.9125 122.076 29.9125C122.043 29.9125 121.967 29.941 121.843 29.9595C121.711 29.9879 121.52 30.0061 121.253 30.0061H118.14C118.04 30.0061 117.725 29.989 117.484 29.9595C117.26 29.9396 117.177 29.8474 117.119 29.8474C117.085 29.8474 117.052 29.9691 117.035 30.0254C117.02 30.1005 116.853 30.905 116.853 30.9983C116.853 31.054 116.87 31.0821 116.894 31.0821C116.928 31.0821 116.952 31.0651 116.977 30.9886C117.002 30.9235 117.027 30.8581 117.119 30.6985C117.251 30.4744 117.451 30.4091 117.965 30.3994C118.372 30.3909 118.787 30.3908 119.194 30.3794V34.3366C119.194 35.2347 119.194 35.9741 119.153 36.3674C119.12 36.6381 119.079 36.8437 118.912 36.8815C118.838 36.9014 118.738 36.9189 118.663 36.9189C118.613 36.9189 118.596 36.9472 118.596 36.9751C118.596 37.0317 118.638 37.0502 118.729 37.0502C118.978 37.0502 119.501 37.0218 119.543 37.0218C119.585 37.0218 120.108 37.0502 120.565 37.0502C120.656 37.0502 120.698 37.0217 120.698 36.9751C120.698 36.9466 120.683 36.9189 120.631 36.9189C120.556 36.9189 120.374 36.8989 120.258 36.8815C120.008 36.8437 119.959 36.6381 119.933 36.3674C119.892 35.9741 119.892 35.2347 119.892 34.3366L119.891 30.3794Z" stroke="white" stroke-width="0.5" mask="url(#path-2-outside-1_1120_261)"/>
</svg>
