<svg width="20" height="20" viewBox="0 0 20 20" fill="none" xmlns="http://www.w3.org/2000/svg">
 <g clip-path="url(#clip0_1062_304)">
  <path d="M19.8456 3.89415C19.1133 4.21538 18.333 4.42831 17.5195 4.53169C18.3564 4.032 18.9952 3.24677 19.2955 2.30031C18.5152 2.76554 17.6536 3.09415 16.7355 3.27754C15.9945 2.48862 14.9385 2 13.7865 2C11.5515 2 9.75209 3.81415 9.75209 6.03815C9.75209 6.35815 9.77917 6.66585 9.84563 6.95877C6.48932 6.79508 3.51947 5.18646 1.5244 2.736C1.17609 3.34031 0.971782 4.032 0.971782 4.77661C0.971782 6.17477 1.69178 7.41415 2.76501 8.13169C2.1164 8.11938 1.48009 7.93108 0.941013 7.63446C0.941013 7.64677 0.941013 7.66277 0.941013 7.67877C0.941013 9.64061 2.3404 11.2702 4.17547 11.6455C3.84686 11.7354 3.4887 11.7785 3.11701 11.7785C2.85855 11.7785 2.59763 11.7637 2.3527 11.7095C2.87578 13.3083 4.36009 14.4837 6.12501 14.5218C4.75147 15.5963 3.00747 16.2437 1.11947 16.2437C0.788397 16.2437 0.470859 16.2289 0.15332 16.1883C1.94163 17.3415 4.06101 18 6.34655 18C13.7755 18 17.837 11.8462 17.837 6.512C17.837 6.33354 17.8309 6.16123 17.8222 5.99015C18.6235 5.42154 19.2967 4.71138 19.8456 3.89415Z" fill="" />
 </g>
 <defs>
  <clipPath id="clip0_1062_304">
   <rect width="19.6923" height="19.6923" fill="white" transform="translate(0.15332 0.153809)" />
  </clipPath>
 </defs>
</svg>